<svg width="20" height="20" viewBox="0 0 20 20" fill="none" xmlns="http://www.w3.org/2000/svg">
<path d="M13 1.75C13.4142 1.75 13.75 2.08579 13.75 2.5V3.25H17.5V7.75H15.986L18.0453 13.4079C18.1775 13.7461 18.25 14.1142 18.25 14.4993C18.25 16.1561 16.9069 17.4993 15.25 17.4993C13.8524 17.4993 12.678 16.5435 12.3447 15.25H9.15549C8.82245 16.5439 7.64788 17.5 6.25 17.5C4.79163 17.5 3.57631 16.4594 3.30606 15.0802C2.82697 14.8297 2.5 14.328 2.5 13.75V6.25C2.5 5.83579 2.83579 5.5 3.25 5.5H8.5C8.91421 5.5 9.25 5.83579 9.25 6.25V10C9.25 10.4142 9.58579 10.75 10 10.75H11.5C11.9142 10.75 12.25 10.4142 12.25 10V3.25H10V1.75H13ZM6.25 13C5.42157 13 4.75 13.6716 4.75 14.5C4.75 15.3284 5.42157 16 6.25 16C7.07843 16 7.75 15.3284 7.75 14.5C7.75 13.6716 7.07843 13 6.25 13ZM15.25 12.9993C14.4216 12.9993 13.75 13.6708 13.75 14.4993C13.75 15.3277 14.4216 15.9993 15.25 15.9993C16.0784 15.9993 16.75 15.3277 16.75 14.4993C16.75 14.319 16.7182 14.1462 16.6599 13.9861L16.6477 13.9536C16.4294 13.395 15.8859 12.9993 15.25 12.9993ZM14.3897 7.75H13.75V10C13.75 11.2426 12.7426 12.25 11.5 12.25H10C8.75736 12.25 7.75 11.2426 7.75 10H4V12.5156C4.54971 11.8928 5.35398 11.5 6.25 11.5C7.64788 11.5 8.82245 12.4561 9.15549 13.75H12.3443C12.6771 12.4557 13.8519 11.4993 15.25 11.4993C15.4276 11.4993 15.6016 11.5147 15.7707 11.5443L14.3897 7.75ZM7.75 7H4V8.5H7.75V7ZM16 4.75H13.75V6.25H16V4.75Z" fill="#868C98"/>
</svg>
