<svg width="200" height="200" viewBox="0 0 200 200" fill="none" xmlns="http://www.w3.org/2000/svg">
<path d="M200 100C200 155.228 155.228 200 100 200C44.7715 200 0 155.228 0 100C0 44.7715 44.7715 0 100 0C155.228 0 200 44.7715 200 100ZM16 100C16 146.392 53.6081 184 100 184C146.392 184 184 146.392 184 100C184 53.6081 146.392 16 100 16C53.6081 16 16 53.6081 16 100Z" fill="#E2E4E9"/>
<path d="M100 0C113.132 1.566e-07 126.136 2.58658 138.268 7.61205C150.401 12.6375 161.425 20.0035 170.711 29.2893C179.997 38.5752 187.362 49.5991 192.388 61.7317C197.413 73.8642 200 86.8678 200 100C200 113.132 197.413 126.136 192.388 138.268C187.362 150.401 179.997 161.425 170.711 170.711C161.425 179.997 150.401 187.363 138.268 192.388C126.136 197.413 113.132 200 100 200V184C111.031 184 121.954 181.827 132.145 177.606C142.337 173.384 151.597 167.197 159.397 159.397C167.197 151.597 173.384 142.337 177.606 132.145C181.827 121.954 184 111.031 184 100C184 88.969 181.827 78.046 177.606 67.8546C173.384 57.6632 167.197 48.4032 159.397 40.603C151.597 32.8029 142.337 26.6155 132.145 22.3941C121.954 18.1727 111.031 16 100 16V0Z" fill="#F27B2C"/>
<path d="M71.6261 110.152C70.3799 110.152 69.2597 109.914 68.2653 109.437C67.2777 108.953 66.4888 108.29 65.8989 107.448C65.3089 106.606 64.994 105.645 64.9543 104.564H67.9372C68.0101 105.439 68.3979 106.159 69.1006 106.722C69.8032 107.285 70.6451 107.567 71.6261 107.567C72.4083 107.567 73.101 107.388 73.7043 107.03C74.3141 106.666 74.7914 106.165 75.1361 105.529C75.4874 104.892 75.6631 104.167 75.6631 103.351C75.6631 102.523 75.4841 101.784 75.1261 101.134C74.7682 100.484 74.2743 99.9739 73.6446 99.6027C73.0215 99.2315 72.3056 99.0426 71.4969 99.036C70.8804 99.036 70.2606 99.142 69.6375 99.3541C69.0144 99.5663 68.5106 99.8447 68.1261 100.189L65.3122 99.7718L66.4557 89.5104H77.6517V92.1453H69.0111L68.3648 97.8428H68.4841C68.8818 97.4583 69.4088 97.1368 70.0651 96.8783C70.7279 96.6198 71.4372 96.4905 72.1929 96.4905C73.4325 96.4905 74.5362 96.7855 75.504 97.3754C76.4784 97.9654 77.244 98.7708 77.8009 99.7916C78.3643 100.806 78.6427 101.973 78.6361 103.292C78.6427 104.611 78.3444 105.787 77.7412 106.821C77.1446 107.856 76.316 108.671 75.2554 109.267C74.2014 109.857 72.9917 110.152 71.6261 110.152ZM80.6276 109.874V94.6013H83.4813V97.0871H83.6702C83.9884 96.2452 84.5088 95.589 85.2313 95.1183C85.9538 94.6411 86.8189 94.4024 87.8265 94.4024C88.8473 94.4024 89.7024 94.6411 90.3918 95.1183C91.0878 95.5956 91.6016 96.2519 91.933 97.0871H92.0921C92.4567 96.2718 93.0367 95.6221 93.8321 95.1382C94.6276 94.6477 95.5755 94.4024 96.6759 94.4024C98.0613 94.4024 99.1915 94.8366 100.067 95.705C100.948 96.5734 101.389 97.8825 101.389 99.6325V109.874H98.416V99.911C98.416 98.8769 98.1342 98.1278 97.5708 97.6638C97.0073 97.1998 96.3345 96.9678 95.5523 96.9678C94.5845 96.9678 93.8321 97.2661 93.2952 97.8627C92.7583 98.4526 92.4898 99.2116 92.4898 100.14V109.874H89.5267V99.722C89.5267 98.8934 89.2682 98.2272 88.7512 97.7235C88.2341 97.2197 87.5613 96.9678 86.7327 96.9678C86.1693 96.9678 85.6489 97.1169 85.1716 97.4152C84.701 97.7069 84.3198 98.1146 84.0282 98.6382C83.7431 99.1619 83.6006 99.7684 83.6006 100.458V109.874H80.6276ZM103.694 109.874V94.6013H106.667V109.874H103.694ZM105.195 92.2448C104.678 92.2448 104.234 92.0724 103.863 91.7277C103.498 91.3764 103.316 90.9588 103.316 90.4749C103.316 89.9843 103.498 89.5667 103.863 89.222C104.234 88.8707 104.678 88.695 105.195 88.695C105.712 88.695 106.153 88.8707 106.518 89.222C106.889 89.5667 107.074 89.9843 107.074 90.4749C107.074 90.9588 106.889 91.3764 106.518 91.7277C106.153 92.0724 105.712 92.2448 105.195 92.2448ZM111.959 100.806V109.874H108.986V94.6013H111.84V97.0871H112.029C112.38 96.2784 112.93 95.6288 113.68 95.1382C114.435 94.6477 115.386 94.4024 116.533 94.4024C117.574 94.4024 118.485 94.6212 119.268 95.0587C120.05 95.4896 120.656 96.1325 121.087 96.9877C121.518 97.8428 121.734 98.9001 121.734 100.16V109.874H118.76V100.517C118.76 99.4105 118.472 98.5454 117.895 97.9223C117.319 97.2926 116.527 96.9777 115.519 96.9777C114.83 96.9777 114.216 97.1269 113.68 97.4252C113.149 97.7235 112.728 98.161 112.417 98.7377C112.112 99.3077 111.959 99.9971 111.959 100.806ZM135.485 98.33L132.791 98.8073C132.678 98.4626 132.499 98.1344 132.254 97.8229C132.015 97.5113 131.69 97.2561 131.279 97.0573C130.868 96.8584 130.355 96.759 129.738 96.759C128.896 96.759 128.194 96.9479 127.63 97.3257C127.067 97.6969 126.785 98.1775 126.785 98.7675C126.785 99.2779 126.974 99.6889 127.352 100C127.73 100.312 128.339 100.567 129.181 100.766L131.607 101.323C133.013 101.648 134.06 102.148 134.75 102.824C135.439 103.5 135.784 104.379 135.784 105.459C135.784 106.374 135.518 107.189 134.988 107.905C134.464 108.615 133.732 109.171 132.791 109.576C131.856 109.98 130.772 110.182 129.539 110.182C127.829 110.182 126.434 109.818 125.353 109.089C124.273 108.353 123.61 107.309 123.365 105.956L126.238 105.519C126.417 106.268 126.785 106.835 127.342 107.219C127.899 107.597 128.625 107.786 129.519 107.786C130.494 107.786 131.273 107.584 131.856 107.179C132.439 106.768 132.731 106.268 132.731 105.678C132.731 105.201 132.552 104.8 132.194 104.475C131.843 104.15 131.303 103.905 130.573 103.739L127.988 103.172C126.563 102.848 125.509 102.33 124.826 101.621C124.15 100.912 123.812 100.014 123.812 98.9266C123.812 98.0251 124.064 97.2362 124.568 96.5601C125.072 95.884 125.768 95.357 126.656 94.9791C127.544 94.5947 128.562 94.4024 129.708 94.4024C131.359 94.4024 132.658 94.7604 133.606 95.4763C134.554 96.1856 135.18 97.1368 135.485 98.33Z" fill="#1E2023"/>
</svg>
