<svg width="1271" height="186" viewBox="0 0 1271 186" fill="none" xmlns="http://www.w3.org/2000/svg">
<g clipPath="url(#clip0_418_10951)">
<rect width="1271" height="186" fill="#D9D9D9"/>
<g clipPath="url(#clip1_418_10951)">
<path d="M1351.97 -538.9H-6.77341V875.95H1351.97V-538.9Z" fill="#F9F9F9"/>
<path d="M938.418 303.453L917.414 293.945L1112.99 10.9744L1128.39 9.33496L1148.46 27.369L1116.25 47.6982L938.418 303.453Z" fill="#F9F9F9"/>
<g opacity="0.5">
<g opacity="0.5">
<path opacity="0.5" d="M1019.17 -203.469L1026.17 0.479596" stroke="#4D2161" strokeWidth="1.83105" stroke-miterlimit="10" stroke-linecap="round" stroke-linejoin="round" stroke-dasharray="7.32 7.32"/>
<path opacity="0.5" d="M1111.12 -147.727L1001.9 44.7457" stroke="#4D2161" strokeWidth="1.83105" stroke-miterlimit="10" stroke-linecap="round" stroke-linejoin="round" stroke-dasharray="7.32 7.32"/>
<path opacity="0.5" d="M983.693 75.8955L673.763 532.648" stroke="#4D2161" strokeWidth="1.83105" stroke-miterlimit="10" stroke-linecap="round" stroke-linejoin="round" stroke-dasharray="7.32 7.32"/>
<path opacity="0.5" d="M-3.97168 364.768C-3.97168 361.161 508.065 49.3366 508.065 49.3366C508.065 49.3366 340.965 -138.217 145.859 -219.534L-28.71 -149.365" stroke="#4D2161" strokeWidth="1.83105" stroke-miterlimit="10" stroke-linecap="round" stroke-linejoin="round" stroke-dasharray="7.32 7.32"/>
<path opacity="0.5" d="M1123.72 -50.0156L1134.45 -40.8347L1092.91 43.1055L768.047 497.563L610.281 723.152L997.227 882.179" stroke="#4D2161" strokeWidth="1.83105" stroke-miterlimit="10" stroke-linecap="round" stroke-linejoin="round" stroke-dasharray="7.32 7.32"/>
<path opacity="0.5" d="M692.44 116.883V134.589L576.216 257.548C576.216 257.548 485.665 232.628 481.93 229.677C478.196 226.726 406.315 164.427 406.315 164.427L356.838 167.05" stroke="#4D2161" strokeWidth="1.83105" stroke-miterlimit="10" stroke-linecap="round" stroke-linejoin="round" stroke-dasharray="7.32 7.32"/>
<path opacity="0.5" d="M853.003 148.359L708.774 127.702L690.57 184.755" stroke="#4D2161" strokeWidth="1.83105" stroke-miterlimit="10" stroke-linecap="round" stroke-linejoin="round" stroke-dasharray="7.32 7.32"/>
<path opacity="0.5" d="M518.804 238.856C518.804 238.856 671.434 147.374 670.034 146.063C668.634 144.751 547.743 51.958 547.743 51.958" stroke="#4D2161" strokeWidth="1.83105" stroke-miterlimit="10" stroke-linecap="round" stroke-linejoin="round" stroke-dasharray="7.32 7.32"/>
<path opacity="0.5" d="M534.2 82.4525L564.072 65.0742" stroke="#4D2161" strokeWidth="1.83105" stroke-miterlimit="10" stroke-linecap="round" stroke-linejoin="round" stroke-dasharray="7.32 7.32"/>
<path opacity="0.5" d="M294.759 -112.641L4.9003 58.8464" stroke="#4D2161" strokeWidth="1.83105" stroke-miterlimit="10" stroke-linecap="round" stroke-linejoin="round" stroke-dasharray="7.32 7.32"/>
<path opacity="0.5" d="M66.5087 20.4824L92.6474 45.4022L122.987 27.696L298.956 176.231" stroke="#4D2161" strokeWidth="1.83105" stroke-miterlimit="10" stroke-linecap="round" stroke-linejoin="round" stroke-dasharray="7.32 7.32"/>
<path opacity="0.5" d="M1107.38 215.905L997.227 177.869" stroke="#4D2161" strokeWidth="1.83105" stroke-miterlimit="10" stroke-linecap="round" stroke-linejoin="round" stroke-dasharray="7.32 7.32"/>
<path opacity="0.5" d="M1154.53 64.0919L1202.61 35.8932L1195.61 24.0892L1237.61 -0.830579L1216.14 -13.9462L1260.02 -39.8496" stroke="#4D2161" strokeWidth="1.83105" stroke-miterlimit="10" stroke-linecap="round" stroke-linejoin="round" stroke-dasharray="7.32 7.32"/>
<g opacity="0.5">
<path opacity="0.5" d="M976.692 73.2715L990.228 78.1899" stroke="#4D2161" strokeWidth="1.83105" stroke-miterlimit="10" stroke-linecap="round" stroke-linejoin="round"/>
<path opacity="0.5" d="M980.425 67.3711L993.961 72.2895" stroke="#4D2161" strokeWidth="1.83105" stroke-miterlimit="10" stroke-linecap="round" stroke-linejoin="round"/>
<path opacity="0.5" d="M984.626 61.4678L998.162 66.0583" stroke="#4D2161" strokeWidth="1.83105" stroke-miterlimit="10" stroke-linecap="round" stroke-linejoin="round"/>
<path opacity="0.5" d="M988.359 55.5664L1001.89 60.1569" stroke="#4D2161" strokeWidth="1.83105" stroke-miterlimit="10" stroke-linecap="round" stroke-linejoin="round"/>
<path opacity="0.5" d="M992.098 49.6631L1005.63 54.2535" stroke="#4D2161" strokeWidth="1.83105" stroke-miterlimit="10" stroke-linecap="round" stroke-linejoin="round"/>
<path opacity="0.5" d="M996.299 43.7617L1009.84 48.3522" stroke="#4D2161" strokeWidth="1.83105" stroke-miterlimit="10" stroke-linecap="round" stroke-linejoin="round"/>
</g>
</g>
</g>
<path d="M731.175 -264.455C728.374 -262.488 728.374 -259.209 731.641 -257.242L851.132 -177.892L867.936 -84.1151L833.862 23.1053L714.371 -64.7695L742.844 -84.443C745.644 -86.4103 745.644 -89.6892 742.844 -91.6566C740.043 -93.6239 735.376 -93.6239 732.575 -91.6566L655.093 -38.2103L486.592 -162.481C483.791 -164.448 479.124 -164.448 476.323 -162.809C473.522 -160.842 473.522 -157.563 475.856 -155.595L646.224 -30.013L633.155 -10.3396L500.128 72.9448L385.771 -22.1437C385.305 -22.4716 385.305 -22.7994 384.838 -23.4552C384.371 -23.7831 383.904 -24.111 382.971 -24.4389L298.954 -94.2797C297.553 -95.2634 295.686 -95.9191 293.819 -96.247C291.952 -96.247 290.085 -95.9192 288.685 -94.9355L142.589 -6.40488C132.32 -0.174957 130.92 10.3176 139.321 17.5312L195.333 67.3706C203.734 74.9121 218.671 76.2237 229.873 70.3216L377.836 -13.2906L488.926 79.5026L157.058 287.058L119.251 253.941L226.606 189.346C242.942 179.509 245.276 162.459 231.74 150.327L123.918 55.8944C122.518 54.9108 121.118 54.2549 119.251 53.9271L53.4373 48.3529C49.7032 48.025 45.9691 49.9924 45.5024 52.9434C45.0356 55.8944 47.8362 58.1897 52.037 58.5176L115.05 63.7638L146.79 91.3067L24.4981 166.722C17.0299 171.312 16.0964 179.509 22.1643 185.084L147.723 294.599L-4.90783 390.016C-7.7084 391.983 -8.17517 395.262 -5.3746 397.229C-3.97432 398.213 -2.10727 398.869 0.226534 398.869C2.09358 398.869 3.49386 398.541 4.89415 397.557L265.814 234.267L640.156 329.356L629.887 364.768C628.954 367.391 631.755 370.342 635.489 370.67C635.955 370.67 636.422 370.67 636.889 370.67C640.156 370.67 643.424 369.03 643.89 366.735L696.634 187.707C697.568 185.084 694.767 182.133 691.033 181.805C687.299 181.149 683.098 183.116 682.632 185.739L642.957 319.191L277.95 226.398L316.224 202.462C321.825 208.364 335.361 219.512 358.699 219.512C359.633 219.512 360.1 219.512 361.033 219.512C362.433 219.512 364.3 219.184 365.234 218.201L390.906 203.445C394.173 201.806 394.64 198.527 391.839 196.232C389.505 193.937 384.838 193.609 381.57 195.576L357.766 209.348C339.562 209.02 329.76 199.183 326.959 195.904L565.941 46.3856L649.492 113.275C656.493 118.85 666.762 121.801 677.03 121.801C685.432 121.801 693.834 119.833 700.835 115.571L732.575 96.2251C740.043 91.6346 744.711 85.4046 745.178 78.5189C745.644 71.6332 742.377 64.7475 735.842 59.8291L648.558 -7.38858L661.627 -27.3899L704.569 -56.9001L830.595 35.893L800.722 130.326C799.789 132.949 802.122 135.9 806.323 136.556C806.79 136.556 807.257 136.556 807.724 136.556C810.991 136.556 814.258 134.916 814.725 132.621L882.405 -81.8198C882.405 -82.4756 882.405 -83.1314 882.405 -83.4593L865.135 -179.859C865.135 -181.171 864.202 -182.155 862.801 -182.81L740.977 -263.472C738.643 -266.75 733.975 -266.423 731.175 -264.455ZM221.471 63.108C216.804 65.4033 210.736 64.7475 207.469 61.7965L151.457 11.957C148.19 9.00601 148.657 4.41553 152.857 2.1203L293.353 -83.1314L368.968 -20.1763L221.471 63.108ZM32.8998 178.526C31.4995 177.214 31.4995 175.575 33.3666 174.263L155.191 99.1761L221.471 157.541C229.873 165.082 228.473 175.903 218.204 182.133L110.849 246.399L32.8998 178.526ZM725.107 66.3869C729.308 69.338 731.175 73.6006 730.708 77.5353C730.241 81.7979 727.441 85.4046 723.24 88.3556L691.5 107.701C682.632 113.275 668.629 112.62 660.694 106.062L577.144 39.172L639.69 0.152924L725.107 66.3869Z" fill="white" stroke="#BBB4B5" strokeWidth="1.83105" stroke-miterlimit="10"/>
<path d="M1381.37 269.68L1307.16 268.368L1308.56 196.888L1359.43 211.643C1363.17 212.626 1367.37 211.315 1369.24 209.02C1370.64 206.397 1368.77 203.446 1365.5 202.462L1307.16 185.412C1306.22 185.084 1305.76 185.084 1304.82 185.084C1304.82 185.084 1304.82 185.084 1304.36 185.084H1299.22L1136.32 181.149C1133.52 181.149 1131.19 182.133 1129.79 183.772L1075.18 253.613C1074.71 254.269 1074.24 254.924 1074.24 255.908L1068.17 344.439L1035.03 346.734L888.005 294.271L1141.46 -82.8035L1238.08 -50.6701L1293.62 -8.70004L1167.13 63.7639C1163.86 65.4033 1163.39 68.6823 1166.19 70.9775C1167.6 72.2891 1169.93 72.9448 1171.8 72.9448C1173.2 72.9448 1175.06 72.6169 1176.46 71.6333L1212.87 50.9761L1298.76 101.471C1300.16 102.127 1301.56 102.783 1303.42 102.783C1305.29 102.783 1307.62 102.127 1309.02 100.816C1311.82 98.5203 1311.36 95.5693 1308.09 93.602L1224.07 44.0904L1255.35 26.0564L1349.17 96.553C1350.57 97.5367 1352.43 98.1924 1354.3 98.1924C1356.17 98.1924 1358.03 97.8646 1359.43 96.8809C1362.23 94.9135 1362.7 91.6346 1359.9 89.6673L1266.55 19.8265L1360.83 -34.2756C1364.1 -35.915 1364.57 -39.1939 1361.77 -41.4892C1359.43 -43.7844 1354.77 -44.1123 1351.5 -42.1449L1304.36 -15.2579L1247.41 -58.2116C1246.94 -58.5395 1246.01 -59.1953 1245.08 -59.1953L1147.06 -91.6565L1152.66 -100.182C1161.99 -114.281 1156.86 -131.003 1140.06 -141.168L1131.65 -146.414L1238.08 -270.685C1239.94 -272.98 1239.01 -276.259 1235.74 -277.571C1232.47 -278.882 1227.81 -278.227 1225.94 -275.931L1120.92 -153.3L985.558 -234.617C980.424 -237.568 972.956 -237.24 968.288 -233.633C964.087 -230.027 964.554 -224.78 969.688 -221.501L1124.65 -128.38C1133.05 -123.134 1135.86 -114.937 1130.72 -107.723L865.134 287.058L859.533 295.583L567.807 729.055L520.664 694.954C519.73 694.299 518.797 693.971 517.863 693.315L423.111 656.263C424.978 655.935 426.378 654.952 427.312 653.64L443.182 631.671C443.648 631.344 443.648 631.016 443.648 630.688L512.262 436.576C512.729 435.265 512.262 433.953 511.329 432.641C510.395 431.33 508.528 430.674 506.661 430.346L285.883 394.278C282.149 393.622 277.948 395.262 277.015 398.213C276.081 400.836 278.415 403.787 282.616 404.443L496.392 439.199L429.645 627.737L414.242 649.378C413.309 650.689 413.309 651.673 413.776 652.984L242.941 586.422L308.288 497.236C313.422 490.678 313.889 482.809 310.621 475.595C306.887 468.382 299.886 462.807 290.084 459.529L224.271 438.544C220.536 437.232 216.336 438.544 214.469 441.167C212.602 443.79 214.469 446.741 218.203 448.052L284.016 469.037C290.084 471.005 294.751 474.612 297.085 478.874C299.419 483.465 298.952 488.055 295.685 492.318L230.338 581.504L-2.57542 490.35C-8.64332 488.055 -15.6447 489.695 -18.9121 493.629C-22.1794 497.892 -19.8456 502.81 -14.2445 505.105L504.327 707.742L556.138 745.122L556.605 745.45L469.32 875.295C466.52 879.557 468.853 884.803 474.921 886.771C476.788 887.427 478.189 887.754 480.056 887.754C484.723 887.754 488.924 885.787 491.258 882.836L570.141 765.779L899.207 893.984C901.074 894.64 902.941 894.968 905.275 894.968C909.476 894.968 913.677 893.329 916.011 890.705C919.278 886.443 916.944 881.525 911.343 879.229L580.876 750.368L806.322 414.935L895.94 446.741L767.581 601.833C765.714 604.129 766.647 607.407 770.381 608.719C771.315 609.047 772.715 609.375 774.115 609.375C776.449 609.375 779.25 608.391 780.65 606.752L838.528 536.911L930.947 574.29L867.001 655.935C859.533 665.444 864.2 677.248 877.27 682.822L1037.84 752.663C1042.5 754.631 1047.64 755.614 1053.24 755.614C1055.57 755.614 1058.37 755.286 1060.71 754.958C1068.17 753.647 1074.71 749.712 1078.44 745.122L1143.79 659.87L1219.41 690.364C1226.87 693.315 1232.01 698.233 1233.88 703.807C1235.74 709.71 1234.81 715.612 1230.14 720.53L1156.86 802.831C1156.39 803.158 1156.39 803.486 1155.93 803.814L1121.85 872.999C1120.45 875.622 1122.79 878.573 1126.52 879.557C1127.45 879.885 1127.92 879.885 1128.85 879.885C1131.65 879.885 1134.92 878.573 1135.86 876.278L1169.46 807.749L1242.28 726.104C1248.81 718.563 1250.68 710.037 1247.88 701.512C1245.08 692.987 1237.14 686.101 1226.41 681.511L950.551 570.028L997.227 510.352C999.094 507.729 997.694 504.778 994.427 503.466C990.693 502.154 986.492 503.138 984.625 505.433L937.948 564.782L845.53 527.402L912.743 446.413C913.677 445.101 914.144 443.79 913.21 442.478C912.743 441.167 911.343 439.855 909.476 439.199L812.857 405.099L881.004 303.452L1029.43 356.243C1030.37 356.571 1031.77 356.899 1032.7 356.899C1033.17 356.899 1033.17 356.899 1033.63 356.899L1075.18 353.948L1350.57 360.833H1351.03C1354.77 360.833 1358.03 358.538 1358.5 355.915C1358.5 352.964 1355.7 350.669 1351.5 350.669L1082.64 343.783L1088.25 257.22L1140.06 191.314L1294.09 194.92L1292.69 268.04L1244.61 267.384C1240.88 267.384 1237.14 269.68 1237.14 272.303C1237.14 275.254 1240.41 277.549 1244.14 277.549L1296.42 278.533H1302.02L1380.44 279.844C1384.17 279.844 1387.44 277.549 1387.91 274.926C1388.37 271.975 1385.11 269.68 1381.37 269.68ZM944.016 578.881L1131.19 654.624L1065.84 740.203C1063.97 742.827 1060.71 744.466 1056.97 745.122C1053.24 745.778 1049.04 745.45 1045.77 743.81L885.205 673.969C878.67 671.018 876.336 665.444 880.07 660.526L944.016 578.881Z" fill="white" stroke="#BBB4B5" strokeWidth="1.83105" stroke-miterlimit="10"/>
<path d="M267.143 96.8646L239.214 112.753L263.006 133.392L290.936 117.504L267.143 96.8646Z" fill="#E2E0E1"/>
<path d="M335.383 102.668L308.675 119.562L333.972 139.298L360.68 122.404L335.383 102.668Z" fill="#E2E0E1"/>
<path d="M408.232 24.3108L374.588 45.5918L392.077 59.2365L425.722 37.9555L408.232 24.3108Z" fill="#E2E0E1"/>
<path d="M1195.14 85.0753L1208.67 72.9434L1306.23 116.553C1306.23 116.553 1313.23 105.405 1315.1 105.732C1316.96 106.06 1378.57 130.652 1378.57 130.652L1368.77 157.539L1195.14 85.0753Z" fill="#E2E0E1"/>
<path d="M738.181 101.141L752.184 109.01L782.057 89.337L766.653 79.8281L738.181 101.141Z" fill="#E2E0E1"/>
<path d="M1110.66 53.5975L1213.35 -9.68555L1229.22 0.151188L1190.48 23.1036L1197.01 33.5961L1146.13 64.4179L1110.66 53.5975Z" fill="#E2E0E1"/>
<path d="M1100.57 121.076V101.195H1103.41V118.605H1114.17V121.076H1100.57ZM1126.05 121.303C1119.94 121.303 1115.45 116.958 1115.45 111.136C1115.45 105.313 1119.94 100.968 1126.05 100.968C1132.1 100.968 1136.58 105.285 1136.58 111.136C1136.58 116.986 1132.1 121.303 1126.05 121.303ZM1126.05 118.776C1130.45 118.776 1133.74 115.538 1133.74 111.136C1133.74 106.734 1130.45 103.496 1126.05 103.496C1121.59 103.496 1118.29 106.734 1118.29 111.136C1118.29 115.538 1121.59 118.776 1126.05 118.776ZM1165.68 101.195H1168.38L1161.73 121.076H1158.75L1153.32 105.2L1147.9 121.076H1144.86L1138.21 101.195H1141.14L1146.51 117.356L1152.1 101.195H1154.71L1160.2 117.441L1165.68 101.195ZM1174.69 118.605H1186.28V121.076H1171.85V101.195H1185.88V103.666H1174.69V109.772H1184.66V112.187H1174.69V118.605ZM1207.26 121.076H1204.17L1199.88 114.97C1199.48 114.998 1199.06 115.027 1198.63 115.027H1193.72V121.076H1190.88V101.195H1198.63C1203.8 101.195 1206.92 103.808 1206.92 108.125C1206.92 111.193 1205.33 113.408 1202.55 114.402L1207.26 121.076ZM1198.54 112.613C1202.18 112.613 1204.08 110.965 1204.08 108.125C1204.08 105.285 1202.18 103.666 1198.54 103.666H1193.72V112.613H1198.54ZM1225.94 101.195H1228.78L1220.06 121.076H1217.25L1208.5 101.195H1211.57L1218.73 117.526L1225.94 101.195ZM1245.53 121.076L1243.34 116.106H1232.78L1230.59 121.076H1227.67L1236.67 101.195H1239.48L1248.51 121.076H1245.53ZM1233.77 113.834H1242.35L1238.06 104.092L1233.77 113.834ZM1251.48 121.076V101.195H1254.32V121.076H1251.48ZM1260.27 121.076V101.195H1263.11V118.605H1273.88V121.076H1260.27ZM1282.73 121.303C1279.7 121.303 1276.71 120.281 1275.12 118.804L1276.17 116.589C1277.65 117.924 1280.18 118.889 1282.73 118.889C1286.17 118.889 1287.65 117.554 1287.65 115.822C1287.65 110.965 1275.61 114.033 1275.61 106.648C1275.61 103.581 1277.99 100.968 1283.22 100.968C1285.55 100.968 1287.96 101.593 1289.61 102.729L1288.67 105.001C1286.94 103.893 1284.98 103.382 1283.22 103.382C1279.84 103.382 1278.39 104.802 1278.39 106.535C1278.39 111.391 1290.43 108.352 1290.43 115.652C1290.43 118.69 1287.99 121.303 1282.73 121.303ZM1307.96 110.767C1310.2 111.391 1311.68 113.067 1311.68 115.708C1311.68 119.116 1309.09 121.076 1304.07 121.076H1294.58V101.195H1303.5C1308.07 101.195 1310.63 103.127 1310.63 106.336C1310.63 108.494 1309.52 110 1307.96 110.767ZM1303.24 103.496H1297.42V109.858H1303.24C1306.14 109.858 1307.79 108.778 1307.79 106.677C1307.79 104.575 1306.14 103.496 1303.24 103.496ZM1303.95 118.776C1307.1 118.776 1308.81 117.782 1308.81 115.481C1308.81 113.181 1307.1 112.158 1303.95 112.158H1297.42V118.776H1303.95ZM1324.31 121.303C1319.09 121.303 1315.9 118.264 1315.9 112.499V101.195H1318.74V112.385C1318.74 116.788 1320.76 118.776 1324.34 118.776C1327.92 118.776 1329.96 116.788 1329.96 112.385V101.195H1332.72V112.499C1332.72 118.264 1329.57 121.303 1324.31 121.303ZM1354.93 121.076H1351.83L1347.54 114.97C1347.15 114.998 1346.72 115.027 1346.29 115.027H1341.38V121.076H1338.54V101.195H1346.29C1351.46 101.195 1354.59 103.808 1354.59 108.125C1354.59 111.193 1353 113.408 1350.21 114.402L1354.93 121.076ZM1346.21 112.613C1349.84 112.613 1351.75 110.965 1351.75 108.125C1351.75 105.285 1349.84 103.666 1346.21 103.666H1341.38V112.613H1346.21ZM1372.95 117.498V111.022H1375.68V118.776C1373.69 120.451 1370.93 121.303 1368.15 121.303C1362.04 121.303 1357.56 117.015 1357.56 111.136C1357.56 105.257 1362.04 100.968 1368.21 100.968C1371.36 100.968 1374.03 102.019 1375.85 104.035L1374.09 105.796C1372.44 104.206 1370.57 103.496 1368.32 103.496C1363.72 103.496 1360.4 106.705 1360.4 111.136C1360.4 115.51 1363.72 118.776 1368.29 118.776C1369.97 118.776 1371.53 118.406 1372.95 117.498Z" fill="#606161"/>
<path d="M824.156 2.06143C823.705 3.54191 822.789 4.935 821.955 5.58376L820.839 4.71219C821.626 4.03876 822.394 2.88757 822.748 1.72674C823.204 0.229441 822.924 -0.463598 822.141 -0.581208C820.072 -0.892219 820.147 5.01288 816.477 4.46143C814.825 4.21314 814.148 2.61587 814.844 0.327855C815.198 -0.832974 815.91 -2.09817 816.668 -2.79365L817.78 -1.90525C816.994 -1.17874 816.532 -0.315838 816.265 0.558989C815.835 1.97217 816.164 2.74296 816.894 2.85273C819.068 3.17942 819.016 -2.73989 822.598 -2.2015C824.268 -1.9506 824.878 -0.310697 824.156 2.06143ZM825.473 -8.59537L826.827 -8.91975C827.113 -8.36652 827.096 -7.59492 826.876 -6.87151C826.328 -5.07138 824.989 -4.19934 823.128 -4.47899L818.067 -5.23953L817.606 -3.72541L816.232 -3.93188L816.694 -5.446L814.676 -5.74917L815.168 -7.36424L817.185 -7.06107L817.964 -9.61826L819.338 -9.41179L818.559 -6.8546L823.551 -6.10451C824.542 -5.95554 825.252 -6.37661 825.524 -7.26826C825.667 -7.73933 825.649 -8.21708 825.473 -8.59537ZM820.762 -13.4917C819.858 -14.2257 819.64 -15.4197 820.116 -16.9843L821.734 -16.7412C821.675 -16.6093 821.64 -16.4915 821.604 -16.3737C821.076 -14.6409 821.844 -13.3995 823.861 -13.0964L828.452 -12.4064L827.96 -10.7913L818.743 -12.1765L819.215 -13.7243L820.762 -13.4917ZM827.899 -26.2377C828.039 -26.2168 828.242 -26.1686 828.394 -26.1283L826.19 -18.8941C827.869 -18.853 829.332 -19.9527 829.87 -21.7192C830.187 -22.7622 830.089 -23.6919 829.541 -24.4604L830.89 -25.1901C831.618 -24.2362 831.766 -22.9296 831.315 -21.4492C830.439 -18.5723 827.89 -16.9498 825.142 -17.3627C822.412 -17.773 821.025 -19.9694 821.809 -22.5434C822.593 -25.1174 825.065 -26.6637 827.899 -26.2377ZM823.218 -22.3317C822.747 -20.784 823.477 -19.4779 824.99 -19.0745L826.732 -24.7945C825.133 -24.8589 823.694 -23.8963 823.218 -22.3317ZM831.036 -36.5389C831.176 -36.518 831.379 -36.4698 831.531 -36.4295L829.328 -29.1953C831.006 -29.1541 832.469 -30.2539 833.007 -32.0203C833.324 -33.0634 833.226 -33.9931 832.678 -34.7616L834.027 -35.4912C834.755 -34.5373 834.903 -33.2308 834.452 -31.7503C833.576 -28.8735 831.027 -27.2509 828.279 -27.6639C825.549 -28.0742 824.162 -30.2706 824.946 -32.8446C825.73 -35.4186 828.202 -36.9649 831.036 -36.5389ZM826.355 -32.6329C825.884 -31.0851 826.614 -29.7791 828.128 -29.3756L829.869 -35.0957C828.27 -35.16 826.832 -34.1975 826.355 -32.6329ZM835.91 -42.8669L837.264 -43.1913C837.55 -42.638 837.533 -41.8664 837.313 -41.143C836.764 -39.3429 835.426 -38.4709 833.565 -38.7505L828.504 -39.5111L828.043 -37.9969L826.669 -38.2034L827.13 -39.7175L825.113 -40.0207L825.605 -41.6358L827.622 -41.3326L828.401 -43.8898L829.775 -43.6833L828.996 -41.1261L833.987 -40.376C834.979 -40.2271 835.689 -40.6481 835.96 -41.5398C836.104 -42.0108 836.086 -42.4886 835.91 -42.8669ZM836.185 1.56454C836.846 -0.605708 838.6 -1.94325 841.313 -1.53554L846.617 -0.73841L846.125 0.876657L841.012 0.108274C839.203 -0.163534 838.05 0.578003 837.584 2.10895C837.061 3.82496 837.784 5.09474 839.784 5.3953L844.532 6.1088L844.04 7.72386L834.823 6.33868L835.294 4.79091L836.685 5C835.946 4.20274 835.755 2.97772 836.185 1.56454ZM839.212 -8.37256C839.955 -10.812 841.592 -12.0086 844.114 -11.6296L849.679 -10.7933L849.213 -9.26232L847.995 -9.44527C848.666 -8.78147 848.851 -7.7157 848.426 -6.31934C847.811 -4.3005 846.308 -3.18918 844.708 -3.42962C843.23 -3.65177 842.295 -4.76002 843.104 -7.41815L843.883 -9.97534L843.552 -10.025C842.144 -10.2367 841.085 -9.56882 840.599 -7.97058C840.276 -6.91069 840.331 -5.77648 840.729 -4.99524L839.272 -4.51047C838.789 -5.55076 838.776 -6.94255 839.212 -8.37256ZM847.221 -6.78192C847.589 -7.99322 847.308 -9.03841 846.37 -9.6016L845.083 -9.795L844.324 -7.30511C843.838 -5.70687 844.343 -5.15593 845.126 -5.03832C846.047 -4.8998 846.847 -5.55379 847.221 -6.78192ZM844.682 -26.3344C845.342 -28.5046 847.08 -29.7917 849.793 -29.384L855.098 -28.5869L854.606 -26.9718L849.493 -27.7402C847.684 -28.012 846.541 -27.3041 846.095 -25.8404C845.603 -24.2254 846.341 -23.0061 848.341 -22.7055L853.089 -21.992L852.597 -20.3769L847.484 -21.1453C845.676 -21.4171 844.533 -20.7092 844.087 -19.2456C843.595 -17.6305 844.333 -16.4112 846.333 -16.1107L851.081 -15.3972L850.589 -13.7821L841.372 -15.1673L841.843 -16.715L843.217 -16.5086C842.473 -17.289 842.284 -18.4609 842.694 -19.8068C843.109 -21.1695 844.014 -22.2299 845.341 -22.6462C844.502 -23.476 844.22 -24.8203 844.682 -26.3344ZM853.915 -40.3511C854.054 -40.3302 854.258 -40.282 854.409 -40.2417L852.206 -33.0075C853.885 -32.9664 855.348 -34.0661 855.886 -35.8326C856.203 -36.8756 856.104 -37.8054 855.556 -38.5739L856.906 -39.3035C857.634 -38.3496 857.782 -37.043 857.331 -35.5626C856.455 -32.6857 853.906 -31.0632 851.158 -31.4761C848.427 -31.8864 847.041 -34.0828 847.825 -36.6568C848.609 -39.2309 851.08 -40.7771 853.915 -40.3511ZM849.234 -36.4452C848.762 -34.8974 849.492 -33.5913 851.006 -33.1879L852.748 -38.9079C851.149 -38.9723 849.71 -38.0097 849.234 -36.4452Z" fill="#818181"/>
<path d="M198.499 283.833L647.223 -2.47943L456.348 -139.775L715.871 -292.141L1105.99 -46.0123L1162.92 -124.706L978.743 -235.213" stroke="#00ABFD" strokeWidth="10.0461"/>
</g>
</g>
<defs>
<clipPath id="clip0_418_10951">
<rect width="1271" height="186" fill="white"/>
</clipPath>
<clipPath id="clip1_418_10951">
<rect width="1527" height="1439.93" fill="white" transform="translate(-56 -544.967)"/>
</clipPath>
</defs>
</svg>
