<svg xmlns="http://www.w3.org/2000/svg" viewBox="0 0 135.51 135.51"><defs><style>.cls-1{fill:#1aadff;}</style></defs><g id="Layer_2" data-name="Layer 2"><g id="Layer_1-2" data-name="Layer 1"><path class="cls-1" d="M80.44,50.82H98.06L78.55,66.56l9,22H73.75L68.2,74.91,51.27,88.55H33.59Zm-14,8L47.82,73.51l7.39-22.69H69.06Z"/><polygon class="cls-1" points="76.13 0 32.52 0 16.22 0 16.22 16.3 16.22 59.92 32.52 59.92 32.52 16.3 76.13 16.3 76.13 0"/><polygon class="cls-1" points="59.38 135.51 103 135.51 119.3 135.51 119.3 119.21 119.3 75.6 103 75.6 103 119.21 59.38 119.21 59.38 135.51"/><polygon class="cls-1" points="135.51 76.13 135.51 32.52 135.51 16.22 119.21 16.22 75.6 16.22 75.6 32.52 119.21 32.52 119.21 76.13 135.51 76.13"/><polygon class="cls-1" points="0 59.38 0 103 0 119.3 16.3 119.3 59.92 119.3 59.92 103 16.3 103 16.3 59.38 0 59.38"/></g></g></svg>