<svg xmlns="http://www.w3.org/2000/svg" viewBox="0 0 575.74 135.51"><defs><style>.cls-1{fill:#fff;}</style></defs><g id="Layer_2" data-name="Layer 2"><g id="Layer_1-2" data-name="Layer 1"><polygon class="cls-1" points="271.57 18.22 317.72 18.22 266.63 59.43 290.34 117.02 254.06 117.02 239.53 81.31 195.21 117.02 148.91 117.02 271.57 18.22"/><polygon class="cls-1" points="235.01 39.25 186.17 77.64 205.51 18.22 241.78 18.22 235.01 39.25"/><path class="cls-1" d="M353.57,63.52,312.78,117H276.51l75.23-98.8H388L392,117H355.69Z"/><path class="cls-1" d="M456.33,77.22,443.48,117H407.21l12.84-39.8-26.39-59h36.27l14.12,31.47,33.59-31.47h41.92Z"/><path class="cls-1" d="M537.34,63.52,496.55,117H460.28l75.23-98.8h36.27l4,98.8H539.46Z"/><polygon class="cls-1" points="76.13 0 32.52 0 16.22 0 16.22 16.3 16.22 59.92 32.52 59.92 32.52 16.3 76.13 16.3 76.13 0"/><polygon class="cls-1" points="59.38 135.51 103 135.51 119.3 135.51 119.3 119.21 119.3 75.6 103 75.6 103 119.21 59.38 119.21 59.38 135.51"/><polygon class="cls-1" points="135.51 76.13 135.51 32.52 135.51 16.22 119.21 16.22 75.6 16.22 75.6 32.52 119.21 32.52 119.21 76.13 135.51 76.13"/><polygon class="cls-1" points="0 59.38 0 103 0 119.3 16.3 119.3 59.92 119.3 59.92 103 16.3 103 16.3 59.38 0 59.38"/></g></g></svg>