<svg width="293" height="291" viewBox="0 0 293 291" fill="none" xmlns="http://www.w3.org/2000/svg">
<path opacity="0.4" d="M291.501 156C291.551 155.35 291.611 154.7 291.691 154C292.601 147 296.831 94.6504 231.031 28.7704C160.321 -41.9996 83.0007 37.5004 69.6807 58.2904C56.3607 79.0804 52.4507 111 42.1407 90.0004C35.7707 77.0004 52.3807 60.7504 28.8607 67.5404C13.7707 71.9004 -14.2593 110.46 8.71072 176.72C31.6807 242.98 96.2207 293.52 158.241 289.83C238.001 285.09 285.001 227.25 281.221 223C277.441 218.75 247.791 231.53 254.321 222.6C260.851 213.67 289.631 180.54 291.501 156Z" fill="#C9DEF9" fill-opacity="0.5"/>
<path opacity="0.51" d="M152.862 78.0007C153.676 77.9443 154.434 77.5672 154.97 76.9523C155.506 76.3373 155.777 75.5347 155.722 74.7207L154.272 53.3507C154.226 52.6058 153.912 51.9026 153.388 51.3718C152.863 50.841 152.164 50.5188 151.419 50.465C150.675 50.4113 149.936 50.6296 149.341 51.0794C148.745 51.5292 148.333 52.18 148.182 52.9107C148.12 53.193 148.1 53.4826 148.122 53.7707L149.572 75.1307C149.628 75.9473 150.006 76.7081 150.623 77.2462C151.24 77.7843 152.045 78.0556 152.862 78.0007Z" fill="#91CFF9"/>
<path opacity="0.51" d="M177.121 61.0604L163.001 77.1904C162.661 77.5863 162.423 78.0604 162.311 78.5704C162.165 79.2395 162.246 79.9382 162.542 80.556C162.837 81.1738 163.33 81.6755 163.943 81.9818C164.555 82.2881 165.253 82.3815 165.924 82.2472C166.596 82.1129 167.203 81.7587 167.651 81.2404L181.731 65.1104C182.046 64.8147 182.294 64.4563 182.462 64.0583C182.629 63.6602 182.71 63.2315 182.701 62.7999C182.692 62.3684 182.592 61.9436 182.408 61.5531C182.224 61.1626 181.96 60.8152 181.633 60.5333C181.306 60.2515 180.923 60.0415 180.51 59.917C180.096 59.7925 179.662 59.7563 179.233 59.8107C178.805 59.8651 178.393 60.0089 178.024 60.2328C177.655 60.4567 177.337 60.7557 177.091 61.1104L177.121 61.0604Z" fill="#91CFF9"/>
<path opacity="0.51" d="M143.001 82.9207C143.537 82.3034 143.806 81.499 143.75 80.6838C143.693 79.8686 143.316 79.1088 142.701 78.5707L126.531 64.4808C126.23 64.1911 125.873 63.9656 125.481 63.818C125.09 63.6704 124.673 63.6038 124.255 63.6221C123.838 63.6404 123.428 63.7434 123.051 63.9247C122.674 64.106 122.338 64.3619 122.063 64.6768C121.788 64.9918 121.58 65.3594 121.451 65.7572C121.322 66.155 121.276 66.5748 121.314 66.9912C121.352 67.4076 121.474 67.8119 121.673 68.1797C121.872 68.5475 122.144 68.871 122.471 69.1307L138.601 83.2207C138.909 83.4923 139.267 83.7 139.656 83.832C140.044 83.964 140.455 84.0176 140.864 83.9897C141.273 83.9618 141.673 83.853 142.04 83.6695C142.407 83.486 142.734 83.2315 143.001 82.9207Z" fill="#91CFF9"/>
<path d="M192.771 185L204.611 151C208.399 140.109 207.706 128.159 202.683 117.779C197.661 107.399 188.722 99.4391 177.831 95.6502C172.438 93.7718 166.728 92.9744 161.027 93.3038C155.326 93.6332 149.746 95.0828 144.606 97.5699C139.466 100.057 134.866 103.533 131.069 107.798C127.273 112.064 124.354 117.036 122.481 122.43L110.641 156.43L61.8906 191.2C78.0921 214.03 101.007 231.242 127.448 240.44C153.888 249.638 182.538 250.365 209.411 242.52L192.771 185Z" fill="#F5C635"/>
<path d="M209.411 242.52C164.978 214.009 114.426 196.422 61.8906 191.2C78.0921 214.03 101.007 231.242 127.448 240.44C153.888 249.638 182.538 250.365 209.411 242.52Z" fill="#F6902E"/>
<path d="M159.98 130.845C173.627 130.478 184.498 123.015 184.261 114.177C184.023 105.338 172.767 98.4697 159.119 98.8366C145.472 99.2035 134.601 106.666 134.838 115.505C135.076 124.344 146.332 131.212 159.98 130.845Z" fill="#FFEF43"/>
</svg>
