<svg width="503" height="598" viewBox="0 0 503 598" fill="none" xmlns="http://www.w3.org/2000/svg">
<path opacity="0.4" d="M386.209 197.793C386.257 197.181 386.313 196.569 386.389 195.91C387.247 189.318 391.238 140.022 329.155 77.9842C262.44 11.3419 189.488 86.205 176.92 105.782C164.353 125.36 160.664 155.418 150.936 135.643C144.926 123.401 160.598 108.099 138.406 114.493C124.169 118.599 97.7223 154.909 119.395 217.305C141.067 279.7 201.961 327.292 260.477 323.818C335.732 319.354 380.077 264.888 376.51 260.885C372.944 256.883 344.969 268.918 351.13 260.509C357.291 252.1 384.445 220.902 386.209 197.793Z" fill="#C9DEF9" fill-opacity="0.3"/>
<path d="M118.818 242.473L118.297 243.682L178.931 269.82L179.452 268.612L118.818 242.473Z" stroke="black" stroke-width="0.620681" stroke-miterlimit="10"/>
<path d="M166.527 219.267L165.604 220.205L206.756 260.701L207.679 259.763L166.527 219.267Z" stroke="black" stroke-width="0.620681" stroke-miterlimit="10"/>
<path d="M288.053 171.909L274.329 240.158L275.619 240.418L289.343 172.168L288.053 171.909Z" stroke="black" stroke-width="0.620681" stroke-miterlimit="10"/>
<path d="M238.551 198.167L237.238 198.252L240.524 249.203L241.837 249.119L238.551 198.167Z" stroke="black" stroke-width="0.620681" stroke-miterlimit="10"/>
<path d="M237.708 194.708C189.122 163.86 162.966 216.693 162.966 216.693C115.608 186.974 114.118 150.627 147.052 107.217C153.365 103.882 159.946 101.083 166.727 98.8501C170.987 97.4181 175.317 96.2041 179.7 95.2129C241.358 111.723 253.784 139.033 237.708 194.708Z" fill="#91CFF9"/>
<path d="M162.966 216.693C116.626 201.722 114.838 241.52 114.838 241.52C114.838 241.52 70.0872 148.231 147.052 107.217C140.237 133.496 131.857 186.081 162.966 216.693Z" fill="#4AAAF6"/>
<path d="M289.523 167.746C253.014 158.858 237.708 194.709 237.708 194.709C234.841 137.147 200.008 107.615 179.699 95.2133C265.105 75.9598 289.523 167.746 289.523 167.746Z" fill="#4AAAF6"/>
<path d="M287.413 313.084L228.051 327.273L210.51 293.806L209.443 262.251L274.428 241.967L287.413 313.084Z" fill="#FAB243"/>
<path d="M228.051 327.273L203.248 333.194L182.009 270.815L209.443 262.25L228.051 327.273Z" fill="#E29733"/>
<path d="M200.803 301.118L200.058 300.026L206.327 295.793L207.072 296.885L200.803 301.118Z" fill="#F09437"/>
<path d="M213.237 295.962L198.632 303.555L199.239 304.722L213.843 297.129L213.237 295.962Z" fill="#F09437"/>
<path d="M238.366 265.529L253.225 262.189" stroke="white" stroke-width="7.72128" stroke-miterlimit="10"/>
<path d="M257.049 260.264L265.838 258.029" stroke="#382D35" stroke-width="1.71308" stroke-miterlimit="10"/>
<path d="M257.744 262.971L266.533 260.736" stroke="#382D35" stroke-width="1.71308" stroke-miterlimit="10"/>
<path opacity="0.55" d="M145.934 157.479C147.088 174.281 152.496 190.513 161.65 204.65L145.934 157.479Z" fill="#DCF3FF"/>
<path d="M236.976 104.549C239.648 106.078 242.145 107.892 244.424 109.961C247.323 112.633 249.83 115.701 251.872 119.073" fill="#73BFF4"/>
<g style="mix-blend-mode:soft-light">
<path d="M197.389 286.83L258.613 303.204" stroke="white" stroke-width="11.5447" stroke-miterlimit="10"/>
</g>
<path d="M326.598 136.501L326.085 136.873L344.802 162.663L345.315 162.291L326.598 136.501Z" stroke="black" stroke-width="0.297927" stroke-miterlimit="10"/>
<path d="M352.122 138.573L351.51 138.734L358.61 165.683L359.222 165.522L352.122 138.573Z" stroke="black" stroke-width="0.297927" stroke-miterlimit="10"/>
<path d="M414.199 148.868L391.683 173.812L392.153 174.237L414.669 149.292L414.199 148.868Z" stroke="black" stroke-width="0.297927" stroke-miterlimit="10"/>
<path d="M386.63 147.287L375.439 169.24L376.003 169.528L387.194 147.574L386.63 147.287Z" stroke="black" stroke-width="0.297927" stroke-miterlimit="10"/>
<path d="M387.702 145.949C375.14 121.183 351.268 136.651 351.268 136.651C338.942 112.655 347.284 97.2003 371.639 87.3066C375.081 87.4773 378.503 87.9382 381.868 88.6846C383.989 89.135 386.086 89.6943 388.149 90.3604C409.674 112.395 408.11 126.794 387.702 145.949Z" fill="#91CFF9"/>
<path d="M351.268 136.649C335.726 119.021 325.2 135.072 325.2 135.072C325.2 135.072 329.619 85.4175 371.651 87.3044C362.341 96.5277 345.906 116.278 351.268 136.649Z" fill="#4AAAF6"/>
<path d="M415.844 147.524C402.884 134.85 387.702 145.948 387.702 145.948C400.699 121.356 393.524 100.514 388.149 90.3594C428.332 103.419 415.844 147.524 415.844 147.524Z" fill="#4AAAF6"/>
<path d="M379.162 207.321L351.02 198.569L351.988 180.371L359.325 167.014L391.29 174.611L379.162 207.321Z" fill="#FAB243"/>
<path d="M351.02 198.569L339.277 194.919L345.831 163.811L359.325 167.013L351.02 198.569Z" fill="#E29733"/>
<path d="M346.166 181.004L346.129 180.371L349.766 180.16L349.803 180.793L346.166 181.004Z" fill="#F09437"/>
<path d="M344.643 181.46L344.608 182.092L352.54 182.539L352.575 181.907L344.643 181.46Z" fill="#F09437"/>
<path d="M370.522 175.504L377.511 177.776" stroke="white" stroke-width="3.72409" stroke-miterlimit="10"/>
<path d="M379.571 177.912L383.767 179.153" stroke="#382D35" stroke-width="0.831713" stroke-miterlimit="10"/>
<path d="M379.199 179.203L383.395 180.444" stroke="#382D35" stroke-width="0.831713" stroke-miterlimit="10"/>
<path opacity="0.55" d="M358.779 107.875C355.116 115.132 353.36 123.202 353.677 131.324L358.779 107.875Z" fill="#DCF3FF"/>
<path d="M409.612 108.346C411.304 111.308 412.21 114.654 412.244 118.066L409.612 108.346Z" fill="#73BFF4"/>
<g style="mix-blend-mode:soft-light">
<path d="M348.264 174.238L369.64 196.111" stroke="white" stroke-width="5.57372" stroke-miterlimit="10"/>
</g>
<path opacity="0.4" d="M84.3505 30.2896C84.3505 30.2896 108.929 16.6346 126.917 30.2896C126.917 30.2896 146.667 24.5793 152.812 40.3819H80.8126C80.8126 40.3819 79.0871 35.1185 84.3505 30.2896Z" fill="#C9DEF9"/>
<path d="M308.677 71.5273L320.656 91.2029" stroke="black" stroke-width="0.844127" stroke-miterlimit="10"/>
<path d="M291.596 69.8145L303.575 89.49" stroke="black" stroke-width="0.844127" stroke-miterlimit="10"/>
<path d="M305.164 77.9707L317.143 97.6463" stroke="black" stroke-width="0.844127" stroke-miterlimit="10"/>
<path d="M172.783 410.11V429.02H169.736L160.826 416.14H160.669V429.02H157.244V410.11H160.309L169.21 423H169.376V410.11H172.783ZM180.994 429.297C179.609 429.297 178.408 428.992 177.393 428.382C176.377 427.773 175.589 426.921 175.029 425.825C174.475 424.729 174.198 423.449 174.198 421.984C174.198 420.519 174.475 419.236 175.029 418.134C175.589 417.032 176.377 416.176 177.393 415.567C178.408 414.958 179.609 414.653 180.994 414.653C182.379 414.653 183.579 414.958 184.594 415.567C185.61 416.176 186.395 417.032 186.949 418.134C187.509 419.236 187.789 420.519 187.789 421.984C187.789 423.449 187.509 424.729 186.949 425.825C186.395 426.921 185.61 427.773 184.594 428.382C183.579 428.992 182.379 429.297 180.994 429.297ZM181.012 426.619C181.763 426.619 182.391 426.413 182.896 426C183.4 425.582 183.776 425.022 184.022 424.32C184.274 423.618 184.401 422.837 184.401 421.975C184.401 421.107 184.274 420.322 184.022 419.62C183.776 418.913 183.4 418.349 182.896 417.931C182.391 417.512 181.763 417.303 181.012 417.303C180.243 417.303 179.603 417.512 179.092 417.931C178.587 418.349 178.208 418.913 177.956 419.62C177.71 420.322 177.587 421.107 177.587 421.975C177.587 422.837 177.71 423.618 177.956 424.32C178.208 425.022 178.587 425.582 179.092 426C179.603 426.413 180.243 426.619 181.012 426.619ZM210.999 419.565C210.999 421.602 210.617 423.347 209.854 424.8C209.097 426.247 208.063 427.355 206.752 428.124C205.447 428.893 203.967 429.278 202.311 429.278C200.655 429.278 199.172 428.893 197.861 428.124C196.556 427.348 195.522 426.237 194.758 424.791C194.001 423.338 193.623 421.596 193.623 419.565C193.623 417.528 194.001 415.786 194.758 414.339C195.522 412.886 196.556 411.775 197.861 411.006C199.172 410.237 200.655 409.852 202.311 409.852C203.967 409.852 205.447 410.237 206.752 411.006C208.063 411.775 209.097 412.886 209.854 414.339C210.617 415.786 210.999 417.528 210.999 419.565ZM207.555 419.565C207.555 418.131 207.331 416.921 206.881 415.936C206.438 414.945 205.823 414.198 205.035 413.693C204.247 413.182 203.339 412.926 202.311 412.926C201.283 412.926 200.375 413.182 199.587 413.693C198.799 414.198 198.181 414.945 197.731 415.936C197.288 416.921 197.067 418.131 197.067 419.565C197.067 420.999 197.288 422.212 197.731 423.203C198.181 424.188 198.799 424.935 199.587 425.446C200.375 425.951 201.283 426.203 202.311 426.203C203.339 426.203 204.247 425.951 205.035 425.446C205.823 424.935 206.438 424.188 206.881 423.203C207.331 422.212 207.555 420.999 207.555 419.565ZM212.53 429.02V414.838H215.771V417.201H215.918C216.177 416.383 216.62 415.752 217.248 415.309C217.882 414.859 218.605 414.635 219.418 414.635C219.602 414.635 219.809 414.644 220.036 414.662C220.27 414.675 220.464 414.696 220.618 414.727V417.801C220.476 417.752 220.252 417.709 219.944 417.672C219.642 417.629 219.35 417.608 219.067 417.608C218.457 417.608 217.91 417.74 217.423 418.005C216.943 418.263 216.565 418.623 216.288 419.085C216.011 419.547 215.872 420.079 215.872 420.682V429.02H212.53ZM225.957 429.269C224.843 429.269 223.846 428.983 222.966 428.41C222.086 427.838 221.39 427.007 220.879 425.917C220.368 424.828 220.113 423.504 220.113 421.947C220.113 420.371 220.371 419.042 220.888 417.958C221.412 416.869 222.116 416.047 223.003 415.493C223.889 414.933 224.877 414.653 225.966 414.653C226.797 414.653 227.481 414.795 228.016 415.078C228.552 415.355 228.976 415.69 229.29 416.084C229.604 416.472 229.847 416.838 230.02 417.183H230.158V410.11H233.51V429.02H230.223V426.785H230.02C229.847 427.13 229.598 427.496 229.272 427.884C228.946 428.266 228.515 428.592 227.979 428.863C227.444 429.133 226.77 429.269 225.957 429.269ZM226.89 426.527C227.598 426.527 228.201 426.336 228.699 425.954C229.198 425.566 229.577 425.028 229.835 424.338C230.094 423.649 230.223 422.846 230.223 421.929C230.223 421.011 230.094 420.214 229.835 419.537C229.583 418.86 229.207 418.334 228.709 417.958C228.216 417.583 227.61 417.395 226.89 417.395C226.145 417.395 225.523 417.589 225.025 417.977C224.526 418.365 224.151 418.9 223.898 419.583C223.646 420.267 223.52 421.048 223.52 421.929C223.52 422.815 223.646 423.606 223.898 424.301C224.157 424.991 224.535 425.536 225.034 425.936C225.539 426.33 226.157 426.527 226.89 426.527ZM241.79 429.297C240.368 429.297 239.14 429.001 238.106 428.41C237.078 427.813 236.287 426.97 235.733 425.88C235.179 424.785 234.902 423.495 234.902 422.012C234.902 420.553 235.179 419.273 235.733 418.171C236.293 417.063 237.075 416.201 238.078 415.586C239.082 414.964 240.26 414.653 241.614 414.653C242.488 414.653 243.313 414.795 244.089 415.078C244.871 415.355 245.56 415.786 246.157 416.37C246.76 416.955 247.234 417.7 247.579 418.605C247.924 419.503 248.096 420.574 248.096 421.818V422.843H236.472V420.59H244.892C244.886 419.95 244.747 419.38 244.477 418.882C244.206 418.377 243.827 417.98 243.341 417.691C242.861 417.401 242.301 417.257 241.661 417.257C240.977 417.257 240.377 417.423 239.86 417.755C239.343 418.082 238.94 418.512 238.651 419.048C238.367 419.577 238.223 420.159 238.217 420.793V422.76C238.217 423.584 238.367 424.292 238.669 424.883C238.971 425.468 239.392 425.917 239.934 426.231C240.476 426.539 241.11 426.693 241.836 426.693C242.322 426.693 242.762 426.625 243.156 426.49C243.55 426.348 243.892 426.142 244.181 425.871C244.47 425.6 244.689 425.265 244.837 424.865L247.957 425.216C247.76 426.04 247.385 426.761 246.831 427.376C246.283 427.985 245.582 428.459 244.726 428.798C243.87 429.13 242.892 429.297 241.79 429.297ZM249.364 429.02V414.838H252.604V417.201H252.752C253.011 416.383 253.454 415.752 254.082 415.309C254.716 414.859 255.439 414.635 256.251 414.635C256.436 414.635 256.642 414.644 256.87 414.662C257.104 414.675 257.298 414.696 257.452 414.727V417.801C257.31 417.752 257.085 417.709 256.778 417.672C256.476 417.629 256.184 417.608 255.9 417.608C255.291 417.608 254.743 417.74 254.257 418.005C253.777 418.263 253.398 418.623 253.121 419.085C252.844 419.547 252.706 420.079 252.706 420.682V429.02H249.364ZM269.321 418.586L266.274 418.919C266.188 418.611 266.037 418.322 265.822 418.051C265.612 417.78 265.329 417.561 264.972 417.395C264.615 417.229 264.178 417.146 263.661 417.146C262.966 417.146 262.381 417.297 261.907 417.598C261.439 417.9 261.208 418.291 261.214 418.771C261.208 419.183 261.359 419.519 261.667 419.777C261.981 420.036 262.498 420.248 263.218 420.414L265.637 420.931C266.979 421.221 267.976 421.679 268.628 422.307C269.287 422.935 269.619 423.757 269.626 424.772C269.619 425.665 269.358 426.453 268.841 427.136C268.33 427.813 267.619 428.342 266.708 428.724C265.797 429.106 264.751 429.297 263.569 429.297C261.833 429.297 260.436 428.933 259.377 428.207C258.318 427.475 257.687 426.456 257.484 425.151L260.744 424.837C260.891 425.477 261.205 425.96 261.685 426.287C262.165 426.613 262.79 426.776 263.56 426.776C264.354 426.776 264.991 426.613 265.471 426.287C265.957 425.96 266.2 425.557 266.2 425.077C266.2 424.671 266.043 424.335 265.729 424.071C265.422 423.806 264.941 423.603 264.289 423.461L261.87 422.953C260.51 422.67 259.503 422.193 258.851 421.522C258.198 420.845 257.875 419.99 257.881 418.956C257.875 418.082 258.112 417.324 258.592 416.684C259.079 416.038 259.753 415.539 260.614 415.189C261.482 414.832 262.482 414.653 263.615 414.653C265.277 414.653 266.585 415.007 267.539 415.715C268.499 416.423 269.093 417.38 269.321 418.586ZM274.566 410.11H278.435L283.06 418.475H283.245L287.871 410.11H291.739L284.861 421.966V429.02H281.445V421.966L274.566 410.11ZM296.095 429.297C294.673 429.297 293.445 429.001 292.411 428.41C291.383 427.813 290.592 426.97 290.038 425.88C289.485 424.785 289.208 423.495 289.208 422.012C289.208 420.553 289.485 419.273 290.038 418.171C290.599 417.063 291.38 416.201 292.384 415.586C293.387 414.964 294.566 414.653 295.92 414.653C296.794 414.653 297.619 414.795 298.394 415.078C299.176 415.355 299.865 415.786 300.462 416.37C301.066 416.955 301.54 417.7 301.884 418.605C302.229 419.503 302.401 420.574 302.401 421.818V422.843H290.777V420.59H299.198C299.191 419.95 299.053 419.38 298.782 418.882C298.511 418.377 298.133 417.98 297.646 417.691C297.166 417.401 296.606 417.257 295.966 417.257C295.283 417.257 294.683 417.423 294.166 417.755C293.649 418.082 293.245 418.512 292.956 419.048C292.673 419.577 292.528 420.159 292.522 420.793V422.76C292.522 423.584 292.673 424.292 292.975 424.883C293.276 425.468 293.698 425.917 294.239 426.231C294.781 426.539 295.415 426.693 296.141 426.693C296.628 426.693 297.068 426.625 297.462 426.49C297.856 426.348 298.197 426.142 298.487 425.871C298.776 425.6 298.994 425.265 299.142 424.865L302.263 425.216C302.066 426.04 301.69 426.761 301.136 427.376C300.589 427.985 299.887 428.459 299.031 428.798C298.176 429.13 297.197 429.297 296.095 429.297ZM310.751 414.838V417.423H302.598V414.838H310.751ZM304.611 411.44H307.953V424.754C307.953 425.203 308.021 425.548 308.156 425.788C308.298 426.022 308.482 426.182 308.71 426.268C308.938 426.354 309.19 426.397 309.467 426.397C309.677 426.397 309.867 426.382 310.04 426.351C310.218 426.32 310.354 426.293 310.446 426.268L311.009 428.881C310.831 428.943 310.575 429.01 310.243 429.084C309.917 429.158 309.517 429.201 309.043 429.213C308.205 429.238 307.451 429.112 306.78 428.835C306.11 428.552 305.577 428.115 305.183 427.524C304.795 426.933 304.605 426.194 304.611 425.308V411.44ZM316.076 410.11L315.771 423.461H312.798L312.503 410.11H316.076ZM314.285 429.223C313.725 429.223 313.245 429.026 312.845 428.632C312.451 428.238 312.254 427.758 312.254 427.191C312.254 426.637 312.451 426.163 312.845 425.77C313.245 425.376 313.725 425.179 314.285 425.179C314.833 425.179 315.307 425.376 315.707 425.77C316.113 426.163 316.316 426.637 316.316 427.191C316.316 427.567 316.221 427.908 316.03 428.216C315.845 428.524 315.599 428.77 315.291 428.955C314.99 429.133 314.654 429.223 314.285 429.223ZM321.621 430.84H347.621V404.84H321.621V430.84Z" fill="#475467"/>
<path d="M38.7559 467.02V453.929H40.3411V465.613H46.4263V467.02H38.7559ZM51.5849 467.224C50.6986 467.224 49.9209 467.013 49.2518 466.591C48.5871 466.169 48.0672 465.579 47.6922 464.821C47.3214 464.062 47.1361 463.176 47.1361 462.162C47.1361 461.139 47.3214 460.246 47.6922 459.483C48.0672 458.721 48.5871 458.128 49.2518 457.706C49.9209 457.284 50.6986 457.074 51.5849 457.074C52.4713 457.074 53.2469 457.284 53.9116 457.706C54.5807 458.128 55.1006 458.721 55.4713 459.483C55.8463 460.246 56.0338 461.139 56.0338 462.162C56.0338 463.176 55.8463 464.062 55.4713 464.821C55.1006 465.579 54.5807 466.169 53.9116 466.591C53.2469 467.013 52.4713 467.224 51.5849 467.224ZM51.5849 465.869C52.2582 465.869 52.8122 465.696 53.2469 465.351C53.6815 465.006 54.0033 464.552 54.2121 463.99C54.4209 463.427 54.5253 462.818 54.5253 462.162C54.5253 461.505 54.4209 460.894 54.2121 460.327C54.0033 459.76 53.6815 459.302 53.2469 458.953C52.8122 458.603 52.2582 458.429 51.5849 458.429C50.9116 458.429 50.3577 458.603 49.923 458.953C49.4884 459.302 49.1666 459.76 48.9578 460.327C48.749 460.894 48.6446 461.505 48.6446 462.162C48.6446 462.818 48.749 463.427 48.9578 463.99C49.1666 464.552 49.4884 465.006 49.923 465.351C50.3577 465.696 50.9116 465.869 51.5849 465.869ZM61.2452 467.224C60.3588 467.224 59.5811 467.013 58.9121 466.591C58.2473 466.169 57.7274 465.579 57.3524 464.821C56.9817 464.062 56.7963 463.176 56.7963 462.162C56.7963 461.139 56.9817 460.246 57.3524 459.483C57.7274 458.721 58.2473 458.128 58.9121 457.706C59.5811 457.284 60.3588 457.074 61.2452 457.074C62.1315 457.074 62.9071 457.284 63.5719 457.706C64.2409 458.128 64.7608 458.721 65.1315 459.483C65.5065 460.246 65.694 461.139 65.694 462.162C65.694 463.176 65.5065 464.062 65.1315 464.821C64.7608 465.579 64.2409 466.169 63.5719 466.591C62.9071 467.013 62.1315 467.224 61.2452 467.224ZM61.2452 465.869C61.9185 465.869 62.4724 465.696 62.9071 465.351C63.3418 465.006 63.6635 464.552 63.8723 463.99C64.0811 463.427 64.1855 462.818 64.1855 462.162C64.1855 461.505 64.0811 460.894 63.8723 460.327C63.6635 459.76 63.3418 459.302 62.9071 458.953C62.4724 458.603 61.9185 458.429 61.2452 458.429C60.5719 458.429 60.0179 458.603 59.5832 458.953C59.1486 459.302 58.8269 459.76 58.618 460.327C58.4092 460.894 58.3048 461.505 58.3048 462.162C58.3048 462.818 58.4092 463.427 58.618 463.99C58.8269 464.552 59.1486 465.006 59.5832 465.351C60.0179 465.696 60.5719 465.869 61.2452 465.869ZM68.323 463.44L68.2975 461.574H68.6043L72.8997 457.201H74.7662L70.1895 461.829H70.0617L68.323 463.44ZM66.9168 467.02V453.929H68.4253V467.02H66.9168ZM73.1554 467.02L69.3202 462.162L70.394 461.113L75.073 467.02H73.1554ZM82.5823 459.4L81.2272 459.784C81.142 459.558 81.0163 459.338 80.8501 459.125C80.6882 458.908 80.4666 458.729 80.1853 458.588C79.9041 458.448 79.544 458.377 79.1051 458.377C78.5042 458.377 78.0035 458.516 77.6029 458.793C77.2066 459.066 77.0085 459.413 77.0085 459.835C77.0085 460.21 77.1448 460.506 77.4176 460.723C77.6903 460.941 78.1164 461.122 78.696 461.267L80.1534 461.625C81.0312 461.838 81.6853 462.164 82.1157 462.603C82.5461 463.037 82.7613 463.598 82.7613 464.284C82.7613 464.846 82.5994 465.349 82.2755 465.792C81.9559 466.235 81.5085 466.585 80.9332 466.841C80.3579 467.096 79.6889 467.224 78.9261 467.224C77.9247 467.224 77.0958 467.007 76.4396 466.572C75.7833 466.137 75.3678 465.502 75.1931 464.667L76.6249 464.309C76.7613 464.838 77.0191 465.234 77.3984 465.498C77.7819 465.762 78.2826 465.895 78.9005 465.895C79.6036 465.895 80.1619 465.745 80.5752 465.447C80.9928 465.145 81.2017 464.782 81.2017 464.36C81.2017 464.02 81.0823 463.734 80.8437 463.504C80.6051 463.27 80.2386 463.095 79.7443 462.98L78.1079 462.596C77.2088 462.383 76.5482 462.053 76.1264 461.605C75.7088 461.154 75.4999 460.589 75.4999 459.912C75.4999 459.358 75.6555 458.868 75.9666 458.441C76.2819 458.015 76.7102 457.681 77.2514 457.438C77.7968 457.195 78.4147 457.074 79.1051 457.074C80.0767 457.074 80.8394 457.287 81.3934 457.713C81.9517 458.139 82.348 458.701 82.5823 459.4ZM89.4431 453.929V467.02H87.9346V453.929H89.4431ZM91.1261 467.02V457.201H92.6346V467.02H91.1261ZM91.8931 455.565C91.5991 455.565 91.3455 455.465 91.1325 455.265C90.9237 455.064 90.8193 454.824 90.8193 454.542C90.8193 454.261 90.9237 454.02 91.1325 453.82C91.3455 453.62 91.5991 453.52 91.8931 453.52C92.1871 453.52 92.4386 453.62 92.6474 453.82C92.8604 454.02 92.967 454.261 92.967 454.542C92.967 454.824 92.8604 455.064 92.6474 455.265C92.4386 455.465 92.1871 455.565 91.8931 455.565ZM95.7238 463.44L95.6982 461.574H96.0051L100.301 457.201H102.167L97.5903 461.829H97.4624L95.7238 463.44ZM94.3176 467.02V453.929H95.8261V467.02H94.3176ZM100.556 467.02L96.721 462.162L97.7948 461.113L102.474 467.02H100.556ZM106.741 467.224C105.795 467.224 104.979 467.015 104.293 466.598C103.611 466.176 103.085 465.588 102.714 464.833C102.347 464.075 102.164 463.193 102.164 462.187C102.164 461.181 102.347 460.295 102.714 459.528C103.085 458.757 103.6 458.156 104.261 457.725C104.925 457.291 105.701 457.074 106.587 457.074C107.099 457.074 107.604 457.159 108.102 457.329C108.601 457.5 109.055 457.777 109.464 458.16C109.873 458.539 110.199 459.042 110.442 459.669C110.685 460.295 110.806 461.066 110.806 461.983V462.622H103.238V461.318H109.272C109.272 460.764 109.161 460.27 108.94 459.835C108.722 459.4 108.411 459.057 108.006 458.806C107.606 458.554 107.133 458.429 106.587 458.429C105.986 458.429 105.467 458.578 105.028 458.876C104.593 459.17 104.259 459.554 104.024 460.027C103.79 460.5 103.673 461.007 103.673 461.548V462.417C103.673 463.159 103.8 463.787 104.056 464.303C104.316 464.814 104.676 465.204 105.136 465.473C105.597 465.737 106.131 465.869 106.741 465.869C107.137 465.869 107.495 465.814 107.815 465.703C108.138 465.588 108.418 465.417 108.652 465.191C108.886 464.961 109.067 464.676 109.195 464.335L110.653 464.744C110.499 465.238 110.241 465.673 109.879 466.048C109.517 466.419 109.07 466.708 108.537 466.917C108.004 467.122 107.406 467.224 106.741 467.224ZM116.975 470.701C116.719 470.701 116.491 470.68 116.291 470.637C116.091 470.599 115.952 470.561 115.875 470.522L116.259 469.193C116.625 469.287 116.949 469.321 117.231 469.295C117.512 469.27 117.761 469.144 117.978 468.918C118.2 468.696 118.402 468.336 118.586 467.838L118.867 467.071L115.236 457.201H116.873L119.583 465.025H119.685L122.395 457.201H124.032L119.864 468.451C119.677 468.958 119.444 469.378 119.167 469.711C118.89 470.047 118.569 470.297 118.202 470.458C117.84 470.62 117.431 470.701 116.975 470.701ZM128.58 467.224C127.694 467.224 126.916 467.013 126.247 466.591C125.582 466.169 125.062 465.579 124.687 464.821C124.316 464.062 124.131 463.176 124.131 462.162C124.131 461.139 124.316 460.246 124.687 459.483C125.062 458.721 125.582 458.128 126.247 457.706C126.916 457.284 127.694 457.074 128.58 457.074C129.466 457.074 130.242 457.284 130.907 457.706C131.576 458.128 132.096 458.721 132.466 459.483C132.841 460.246 133.029 461.139 133.029 462.162C133.029 463.176 132.841 464.062 132.466 464.821C132.096 465.579 131.576 466.169 130.907 466.591C130.242 467.013 129.466 467.224 128.58 467.224ZM128.58 465.869C129.253 465.869 129.807 465.696 130.242 465.351C130.677 465.006 130.998 464.552 131.207 463.99C131.416 463.427 131.52 462.818 131.52 462.162C131.52 461.505 131.416 460.894 131.207 460.327C130.998 459.76 130.677 459.302 130.242 458.953C129.807 458.603 129.253 458.429 128.58 458.429C127.907 458.429 127.353 458.603 126.918 458.953C126.483 459.302 126.162 459.76 125.953 460.327C125.744 460.894 125.64 461.505 125.64 462.162C125.64 462.818 125.744 463.427 125.953 463.99C126.162 464.552 126.483 465.006 126.918 465.351C127.353 465.696 127.907 465.869 128.58 465.869ZM140.439 463.005V457.201H141.948V467.02H140.439V465.358H140.337C140.107 465.856 139.749 466.28 139.263 466.63C138.777 466.975 138.163 467.147 137.422 467.147C136.808 467.147 136.263 467.013 135.786 466.745C135.308 466.472 134.933 466.063 134.661 465.517C134.388 464.968 134.252 464.275 134.252 463.44V457.201H135.76V463.338C135.76 464.054 135.96 464.625 136.361 465.051C136.766 465.477 137.281 465.69 137.908 465.69C138.283 465.69 138.664 465.594 139.052 465.402C139.444 465.211 139.772 464.917 140.036 464.52C140.305 464.124 140.439 463.619 140.439 463.005ZM149.122 461.113V467.02H147.613V453.929H149.122V458.735H149.249C149.48 458.228 149.825 457.826 150.285 457.527C150.749 457.225 151.367 457.074 152.139 457.074C152.808 457.074 153.394 457.208 153.896 457.476C154.399 457.74 154.789 458.147 155.066 458.697C155.347 459.243 155.488 459.937 155.488 460.781V467.02H153.98V460.883C153.98 460.103 153.777 459.5 153.372 459.074C152.972 458.644 152.416 458.429 151.704 458.429C151.21 458.429 150.766 458.533 150.374 458.742C149.987 458.951 149.68 459.255 149.454 459.656C149.232 460.056 149.122 460.542 149.122 461.113ZM160.057 467.25C159.435 467.25 158.87 467.132 158.363 466.898C157.856 466.659 157.453 466.316 157.155 465.869C156.857 465.417 156.708 464.872 156.708 464.233C156.708 463.67 156.818 463.214 157.04 462.865C157.262 462.511 157.558 462.234 157.928 462.034C158.299 461.833 158.708 461.684 159.156 461.586C159.607 461.484 160.061 461.403 160.517 461.343C161.114 461.267 161.597 461.209 161.968 461.171C162.343 461.128 162.616 461.058 162.786 460.96C162.961 460.862 163.048 460.691 163.048 460.449V460.397C163.048 459.767 162.876 459.277 162.531 458.927C162.19 458.578 161.672 458.403 160.977 458.403C160.257 458.403 159.693 458.561 159.284 458.876C158.874 459.191 158.587 459.528 158.421 459.886L156.989 459.375C157.244 458.778 157.585 458.314 158.012 457.981C158.442 457.645 158.911 457.41 159.418 457.278C159.929 457.142 160.432 457.074 160.926 457.074C161.242 457.074 161.604 457.112 162.013 457.189C162.426 457.261 162.825 457.412 163.208 457.642C163.596 457.873 163.918 458.22 164.173 458.684C164.429 459.149 164.557 459.771 164.557 460.551V467.02H163.048V465.69H162.972C162.869 465.903 162.699 466.131 162.46 466.374C162.222 466.617 161.904 466.824 161.508 466.994C161.112 467.164 160.628 467.25 160.057 467.25ZM160.287 465.895C160.884 465.895 161.387 465.777 161.796 465.543C162.209 465.309 162.52 465.006 162.729 464.635C162.942 464.265 163.048 463.875 163.048 463.466V462.085C162.985 462.162 162.844 462.232 162.627 462.296C162.414 462.355 162.166 462.409 161.885 462.456C161.608 462.498 161.338 462.537 161.073 462.571C160.813 462.6 160.602 462.626 160.441 462.647C160.048 462.699 159.682 462.782 159.341 462.897C159.004 463.007 158.732 463.176 158.523 463.402C158.318 463.623 158.216 463.926 158.216 464.309C158.216 464.833 158.41 465.23 158.798 465.498C159.19 465.762 159.686 465.895 160.287 465.895ZM173.907 457.201L170.277 467.02H168.742L165.112 457.201H166.748L169.458 465.025H169.561L172.271 457.201H173.907ZM178.583 467.224C177.637 467.224 176.821 467.015 176.135 466.598C175.453 466.176 174.927 465.588 174.556 464.833C174.19 464.075 174.007 463.193 174.007 462.187C174.007 461.181 174.19 460.295 174.556 459.528C174.927 458.757 175.443 458.156 176.103 457.725C176.768 457.291 177.543 457.074 178.43 457.074C178.941 457.074 179.446 457.159 179.945 457.329C180.443 457.5 180.897 457.777 181.306 458.16C181.715 458.539 182.041 459.042 182.284 459.669C182.527 460.295 182.649 461.066 182.649 461.983V462.622H175.08V461.318H181.114C181.114 460.764 181.004 460.27 180.782 459.835C180.565 459.4 180.254 459.057 179.849 458.806C179.448 458.554 178.975 458.429 178.43 458.429C177.829 458.429 177.309 458.578 176.87 458.876C176.436 459.17 176.101 459.554 175.867 460.027C175.632 460.5 175.515 461.007 175.515 461.548V462.417C175.515 463.159 175.643 463.787 175.899 464.303C176.159 464.814 176.519 465.204 176.979 465.473C177.439 465.737 177.974 465.869 178.583 465.869C178.98 465.869 179.338 465.814 179.657 465.703C179.981 465.588 180.26 465.417 180.494 465.191C180.729 464.961 180.91 464.676 181.038 464.335L182.495 464.744C182.342 465.238 182.084 465.673 181.722 466.048C181.36 466.419 180.912 466.708 180.379 466.917C179.847 467.122 179.248 467.224 178.583 467.224ZM185.372 461.113V467.02H183.863V457.201H185.321V458.735H185.449C185.679 458.237 186.028 457.836 186.497 457.534C186.966 457.227 187.571 457.074 188.312 457.074C188.977 457.074 189.559 457.21 190.057 457.483C190.556 457.751 190.944 458.16 191.221 458.71C191.498 459.255 191.636 459.946 191.636 460.781V467.02H190.128V460.883C190.128 460.112 189.927 459.511 189.527 459.081C189.126 458.646 188.576 458.429 187.878 458.429C187.396 458.429 186.966 458.533 186.586 458.742C186.211 458.951 185.915 459.255 185.698 459.656C185.481 460.056 185.372 460.542 185.372 461.113ZM194.642 453.929V455.079C194.642 455.429 194.578 455.801 194.45 456.198C194.327 456.59 194.144 456.971 193.901 457.342C193.662 457.708 193.372 458.028 193.031 458.301L192.213 457.636C192.482 457.252 192.714 456.854 192.91 456.441C193.11 456.023 193.21 455.578 193.21 455.105V453.929H194.642ZM200.088 457.201V458.48H195V457.201H200.088ZM196.483 454.849H197.992V464.207C197.992 464.633 198.054 464.953 198.177 465.166C198.305 465.375 198.467 465.515 198.663 465.588C198.863 465.656 199.074 465.69 199.296 465.69C199.462 465.69 199.598 465.681 199.705 465.664C199.811 465.643 199.897 465.626 199.961 465.613L200.267 466.968C200.165 467.007 200.022 467.045 199.839 467.083C199.656 467.126 199.424 467.147 199.142 467.147C198.716 467.147 198.299 467.056 197.89 466.873C197.485 466.689 197.148 466.41 196.88 466.035C196.615 465.66 196.483 465.187 196.483 464.616V454.849ZM205.26 467.02V457.201H206.718V458.735H206.845C207.05 458.211 207.38 457.804 207.836 457.515C208.292 457.221 208.84 457.074 209.479 457.074C210.127 457.074 210.666 457.221 211.096 457.515C211.531 457.804 211.87 458.211 212.112 458.735H212.215C212.466 458.228 212.843 457.826 213.346 457.527C213.849 457.225 214.452 457.074 215.155 457.074C216.033 457.074 216.751 457.348 217.309 457.898C217.867 458.444 218.147 459.294 218.147 460.449V467.02H216.638V460.449C216.638 459.724 216.44 459.206 216.044 458.895C215.647 458.584 215.181 458.429 214.644 458.429C213.953 458.429 213.419 458.637 213.039 459.055C212.66 459.468 212.47 459.993 212.47 460.627V467.02H210.936V460.295C210.936 459.737 210.755 459.287 210.393 458.946C210.031 458.601 209.564 458.429 208.993 458.429C208.601 458.429 208.235 458.533 207.894 458.742C207.557 458.951 207.284 459.24 207.075 459.611C206.871 459.978 206.769 460.402 206.769 460.883V467.02H205.26ZM222.714 467.25C222.092 467.25 221.527 467.132 221.02 466.898C220.513 466.659 220.11 466.316 219.812 465.869C219.514 465.417 219.364 464.872 219.364 464.233C219.364 463.67 219.475 463.214 219.697 462.865C219.918 462.511 220.215 462.234 220.585 462.034C220.956 461.833 221.365 461.684 221.813 461.586C222.264 461.484 222.718 461.403 223.174 461.343C223.771 461.267 224.254 461.209 224.625 461.171C225 461.128 225.273 461.058 225.443 460.96C225.618 460.862 225.705 460.691 225.705 460.449V460.397C225.705 459.767 225.533 459.277 225.188 458.927C224.847 458.578 224.329 458.403 223.634 458.403C222.914 458.403 222.35 458.561 221.94 458.876C221.531 459.191 221.244 459.528 221.078 459.886L219.646 459.375C219.901 458.778 220.242 458.314 220.668 457.981C221.099 457.645 221.568 457.41 222.075 457.278C222.586 457.142 223.089 457.074 223.583 457.074C223.899 457.074 224.261 457.112 224.67 457.189C225.083 457.261 225.482 457.412 225.865 457.642C226.253 457.873 226.575 458.22 226.83 458.684C227.086 459.149 227.214 459.771 227.214 460.551V467.02H225.705V465.69H225.629C225.526 465.903 225.356 466.131 225.117 466.374C224.879 466.617 224.561 466.824 224.165 466.994C223.769 467.164 223.285 467.25 222.714 467.25ZM222.944 465.895C223.541 465.895 224.043 465.777 224.453 465.543C224.866 465.309 225.177 465.006 225.386 464.635C225.599 464.265 225.705 463.875 225.705 463.466V462.085C225.641 462.162 225.501 462.232 225.283 462.296C225.07 462.355 224.823 462.409 224.542 462.456C224.265 462.498 223.994 462.537 223.73 462.571C223.47 462.6 223.259 462.626 223.097 462.647C222.705 462.699 222.339 462.782 221.998 462.897C221.661 463.007 221.389 463.176 221.18 463.402C220.975 463.623 220.873 463.926 220.873 464.309C220.873 464.833 221.067 465.23 221.455 465.498C221.847 465.762 222.343 465.895 222.944 465.895ZM232.595 467.224C231.776 467.224 231.054 467.017 230.428 466.604C229.801 466.186 229.311 465.598 228.958 464.84C228.604 464.077 228.427 463.176 228.427 462.136C228.427 461.105 228.604 460.21 228.958 459.451C229.311 458.693 229.803 458.107 230.434 457.694C231.065 457.28 231.793 457.074 232.62 457.074C233.259 457.074 233.764 457.18 234.135 457.393C234.51 457.602 234.796 457.841 234.992 458.109C235.192 458.373 235.347 458.591 235.458 458.761H235.586V453.929H237.095V467.02H235.637V465.511H235.458C235.347 465.69 235.19 465.916 234.985 466.189C234.781 466.457 234.489 466.698 234.11 466.911C233.73 467.12 233.225 467.224 232.595 467.224ZM232.799 465.869C233.404 465.869 233.916 465.711 234.333 465.396C234.751 465.076 235.068 464.635 235.286 464.073C235.503 463.506 235.612 462.852 235.612 462.11C235.612 461.377 235.505 460.736 235.292 460.186C235.079 459.632 234.764 459.202 234.346 458.895C233.928 458.584 233.413 458.429 232.799 458.429C232.16 458.429 231.627 458.593 231.201 458.921C230.779 459.245 230.462 459.686 230.249 460.244C230.04 460.798 229.936 461.42 229.936 462.11C229.936 462.809 230.042 463.444 230.255 464.015C230.472 464.582 230.792 465.034 231.214 465.37C231.64 465.703 232.168 465.869 232.799 465.869ZM243.103 467.224C242.157 467.224 241.341 467.015 240.655 466.598C239.973 466.176 239.447 465.588 239.076 464.833C238.71 464.075 238.527 463.193 238.527 462.187C238.527 461.181 238.71 460.295 239.076 459.528C239.447 458.757 239.963 458.156 240.623 457.725C241.288 457.291 242.064 457.074 242.95 457.074C243.461 457.074 243.966 457.159 244.465 457.329C244.963 457.5 245.417 457.777 245.826 458.16C246.236 458.539 246.562 459.042 246.804 459.669C247.047 460.295 247.169 461.066 247.169 461.983V462.622H239.601V461.318H245.635C245.635 460.764 245.524 460.27 245.302 459.835C245.085 459.4 244.774 459.057 244.369 458.806C243.968 458.554 243.495 458.429 242.95 458.429C242.349 458.429 241.829 458.578 241.39 458.876C240.956 459.17 240.621 459.554 240.387 460.027C240.152 460.5 240.035 461.007 240.035 461.548V462.417C240.035 463.159 240.163 463.787 240.419 464.303C240.679 464.814 241.039 465.204 241.499 465.473C241.959 465.737 242.494 465.869 243.103 465.869C243.5 465.869 243.858 465.814 244.177 465.703C244.501 465.588 244.78 465.417 245.015 465.191C245.249 464.961 245.43 464.676 245.558 464.335L247.015 464.744C246.862 465.238 246.604 465.673 246.242 466.048C245.88 466.419 245.432 466.708 244.9 466.917C244.367 467.122 243.768 467.224 243.103 467.224ZM255.255 467.25C254.633 467.25 254.068 467.132 253.561 466.898C253.054 466.659 252.651 466.316 252.353 465.869C252.055 465.417 251.906 464.872 251.906 464.233C251.906 463.67 252.017 463.214 252.238 462.865C252.46 462.511 252.756 462.234 253.127 462.034C253.497 461.833 253.906 461.684 254.354 461.586C254.806 461.484 255.259 461.403 255.715 461.343C256.312 461.267 256.796 461.209 257.166 461.171C257.541 461.128 257.814 461.058 257.985 460.96C258.159 460.862 258.247 460.691 258.247 460.449V460.397C258.247 459.767 258.074 459.277 257.729 458.927C257.388 458.578 256.87 458.403 256.176 458.403C255.455 458.403 254.891 458.561 254.482 458.876C254.073 459.191 253.785 459.528 253.619 459.886L252.187 459.375C252.443 458.778 252.784 458.314 253.21 457.981C253.64 457.645 254.109 457.41 254.616 457.278C255.127 457.142 255.63 457.074 256.125 457.074C256.44 457.074 256.802 457.112 257.211 457.189C257.625 457.261 258.023 457.412 258.406 457.642C258.794 457.873 259.116 458.22 259.372 458.684C259.627 459.149 259.755 459.771 259.755 460.551V467.02H258.247V465.69H258.17C258.068 465.903 257.897 466.131 257.659 466.374C257.42 466.617 257.102 466.824 256.706 466.994C256.31 467.164 255.826 467.25 255.255 467.25ZM255.485 465.895C256.082 465.895 256.585 465.777 256.994 465.543C257.407 465.309 257.718 465.006 257.927 464.635C258.14 464.265 258.247 463.875 258.247 463.466V462.085C258.183 462.162 258.042 462.232 257.825 462.296C257.612 462.355 257.365 462.409 257.083 462.456C256.806 462.498 256.536 462.537 256.272 462.571C256.012 462.6 255.801 462.626 255.639 462.647C255.247 462.699 254.88 462.782 254.539 462.897C254.203 463.007 253.93 463.176 253.721 463.402C253.517 463.623 253.414 463.926 253.414 464.309C253.414 464.833 253.608 465.23 253.996 465.498C254.388 465.762 254.884 465.895 255.485 465.895ZM262.937 461.113V467.02H261.429V457.201H262.886V458.735H263.014C263.244 458.237 263.593 457.836 264.062 457.534C264.531 457.227 265.136 457.074 265.877 457.074C266.542 457.074 267.124 457.21 267.622 457.483C268.121 457.751 268.509 458.16 268.786 458.71C269.063 459.255 269.201 459.946 269.201 460.781V467.02H267.693V460.883C267.693 460.112 267.492 459.511 267.092 459.081C266.691 458.646 266.142 458.429 265.443 458.429C264.961 458.429 264.531 458.533 264.152 458.742C263.777 458.951 263.48 459.255 263.263 459.656C263.046 460.056 262.937 460.542 262.937 461.113ZM271.498 470.701C271.242 470.701 271.014 470.68 270.814 470.637C270.614 470.599 270.475 470.561 270.398 470.522L270.782 469.193C271.148 469.287 271.472 469.321 271.754 469.295C272.035 469.27 272.284 469.144 272.501 468.918C272.723 468.696 272.925 468.336 273.109 467.838L273.39 467.071L269.759 457.201H271.396L274.106 465.025H274.208L276.918 457.201H278.555L274.387 468.451C274.2 468.958 273.967 469.378 273.69 469.711C273.413 470.047 273.092 470.297 272.725 470.458C272.363 470.62 271.954 470.701 271.498 470.701ZM287.156 467.224C286.338 467.224 285.615 467.017 284.989 466.604C284.362 466.186 283.872 465.598 283.519 464.84C283.165 464.077 282.988 463.176 282.988 462.136C282.988 461.105 283.165 460.21 283.519 459.451C283.872 458.693 284.365 458.107 284.995 457.694C285.626 457.28 286.355 457.074 287.181 457.074C287.82 457.074 288.325 457.18 288.696 457.393C289.071 457.602 289.357 457.841 289.553 458.109C289.753 458.373 289.909 458.591 290.019 458.761H290.147V453.929H291.656V467.02H290.198V465.511H290.019C289.909 465.69 289.751 465.916 289.546 466.189C289.342 466.457 289.05 466.698 288.671 466.911C288.291 467.12 287.786 467.224 287.156 467.224ZM287.36 465.869C287.965 465.869 288.477 465.711 288.894 465.396C289.312 465.076 289.629 464.635 289.847 464.073C290.064 463.506 290.173 462.852 290.173 462.11C290.173 461.377 290.066 460.736 289.853 460.186C289.64 459.632 289.325 459.202 288.907 458.895C288.49 458.584 287.974 458.429 287.36 458.429C286.721 458.429 286.188 458.593 285.762 458.921C285.34 459.245 285.023 459.686 284.81 460.244C284.601 460.798 284.497 461.42 284.497 462.11C284.497 462.809 284.603 463.444 284.816 464.015C285.034 464.582 285.353 465.034 285.775 465.37C286.201 465.703 286.73 465.869 287.36 465.869ZM297.665 467.224C296.718 467.224 295.902 467.015 295.216 466.598C294.535 466.176 294.008 465.588 293.638 464.833C293.271 464.075 293.088 463.193 293.088 462.187C293.088 461.181 293.271 460.295 293.638 459.528C294.008 458.757 294.524 458.156 295.184 457.725C295.849 457.291 296.625 457.074 297.511 457.074C298.022 457.074 298.527 457.159 299.026 457.329C299.525 457.5 299.978 457.777 300.388 458.16C300.797 458.539 301.123 459.042 301.366 459.669C301.608 460.295 301.73 461.066 301.73 461.983V462.622H294.162V461.318H300.196C300.196 460.764 300.085 460.27 299.863 459.835C299.646 459.4 299.335 459.057 298.93 458.806C298.53 458.554 298.057 458.429 297.511 458.429C296.91 458.429 296.39 458.578 295.951 458.876C295.517 459.17 295.182 459.554 294.948 460.027C294.714 460.5 294.596 461.007 294.596 461.548V462.417C294.596 463.159 294.724 463.787 294.98 464.303C295.24 464.814 295.6 465.204 296.06 465.473C296.52 465.737 297.055 465.869 297.665 465.869C298.061 465.869 298.419 465.814 298.738 465.703C299.062 465.588 299.341 465.417 299.576 465.191C299.81 464.961 299.991 464.676 300.119 464.335L301.576 464.744C301.423 465.238 301.165 465.673 300.803 466.048C300.441 466.419 299.993 466.708 299.461 466.917C298.928 467.122 298.329 467.224 297.665 467.224ZM304.453 453.929V467.02H302.945V453.929H304.453ZM306.136 467.02V457.201H307.645V467.02H306.136ZM306.903 455.565C306.609 455.565 306.356 455.465 306.142 455.265C305.934 455.064 305.829 454.824 305.829 454.542C305.829 454.261 305.934 454.02 306.142 453.82C306.356 453.62 306.609 453.52 306.903 453.52C307.197 453.52 307.449 453.62 307.657 453.82C307.87 454.02 307.977 454.261 307.977 454.542C307.977 454.824 307.87 455.064 307.657 455.265C307.449 455.465 307.197 455.565 306.903 455.565ZM317.356 457.201L313.725 467.02H312.191L308.561 457.201H310.197L312.907 465.025H313.009L315.72 457.201H317.356ZM322.032 467.224C321.086 467.224 320.27 467.015 319.584 466.598C318.902 466.176 318.376 465.588 318.005 464.833C317.639 464.075 317.455 463.193 317.455 462.187C317.455 461.181 317.639 460.295 318.005 459.528C318.376 458.757 318.891 458.156 319.552 457.725C320.217 457.291 320.992 457.074 321.879 457.074C322.39 457.074 322.895 457.159 323.394 457.329C323.892 457.5 324.346 457.777 324.755 458.16C325.164 458.539 325.49 459.042 325.733 459.669C325.976 460.295 326.097 461.066 326.097 461.983V462.622H318.529V461.318H324.563C324.563 460.764 324.452 460.27 324.231 459.835C324.014 459.4 323.702 459.057 323.298 458.806C322.897 458.554 322.424 458.429 321.879 458.429C321.278 458.429 320.758 458.578 320.319 458.876C319.884 459.17 319.55 459.554 319.315 460.027C319.081 460.5 318.964 461.007 318.964 461.548V462.417C318.964 463.159 319.092 463.787 319.347 464.303C319.607 464.814 319.967 465.204 320.428 465.473C320.888 465.737 321.423 465.869 322.032 465.869C322.428 465.869 322.786 465.814 323.106 465.703C323.43 465.588 323.709 465.417 323.943 465.191C324.178 464.961 324.359 464.676 324.487 464.335L325.944 464.744C325.791 465.238 325.533 465.673 325.171 466.048C324.808 466.419 324.361 466.708 323.828 466.917C323.296 467.122 322.697 467.224 322.032 467.224ZM327.312 467.02V457.201H328.769V458.684H328.872C329.051 458.199 329.375 457.804 329.843 457.502C330.312 457.199 330.84 457.048 331.429 457.048C331.539 457.048 331.678 457.05 331.844 457.054C332.01 457.059 332.136 457.065 332.221 457.074V458.608C332.17 458.595 332.053 458.576 331.87 458.55C331.691 458.52 331.501 458.505 331.301 458.505C330.823 458.505 330.397 458.605 330.022 458.806C329.652 459.002 329.358 459.275 329.14 459.624C328.927 459.969 328.821 460.363 328.821 460.806V467.02H327.312ZM332.929 467.02V457.201H334.438V467.02H332.929ZM333.696 455.565C333.402 455.565 333.149 455.465 332.936 455.265C332.727 455.064 332.623 454.824 332.623 454.542C332.623 454.261 332.727 454.02 332.936 453.82C333.149 453.62 333.402 453.52 333.696 453.52C333.99 453.52 334.242 453.62 334.451 453.82C334.664 454.02 334.77 454.261 334.77 454.542C334.77 454.824 334.664 455.064 334.451 455.265C334.242 455.465 333.99 455.565 333.696 455.565ZM340.237 467.224C339.291 467.224 338.475 467.015 337.789 466.598C337.107 466.176 336.581 465.588 336.21 464.833C335.844 464.075 335.661 463.193 335.661 462.187C335.661 461.181 335.844 460.295 336.21 459.528C336.581 458.757 337.097 458.156 337.757 457.725C338.422 457.291 339.198 457.074 340.084 457.074C340.595 457.074 341.1 457.159 341.599 457.329C342.097 457.5 342.551 457.777 342.96 458.16C343.369 458.539 343.695 459.042 343.938 459.669C344.181 460.295 344.303 461.066 344.303 461.983V462.622H336.734V461.318H342.769C342.769 460.764 342.658 460.27 342.436 459.835C342.219 459.4 341.908 459.057 341.503 458.806C341.102 458.554 340.629 458.429 340.084 458.429C339.483 458.429 338.963 458.578 338.524 458.876C338.09 459.17 337.755 459.554 337.521 460.027C337.286 460.5 337.169 461.007 337.169 461.548V462.417C337.169 463.159 337.297 463.787 337.553 464.303C337.813 464.814 338.173 465.204 338.633 465.473C339.093 465.737 339.628 465.869 340.237 465.869C340.634 465.869 340.992 465.814 341.311 465.703C341.635 465.588 341.914 465.417 342.149 465.191C342.383 464.961 342.564 464.676 342.692 464.335L344.149 464.744C343.996 465.238 343.738 465.673 343.376 466.048C343.014 466.419 342.566 466.708 342.033 466.917C341.501 467.122 340.902 467.224 340.237 467.224ZM352.472 459.4L351.117 459.784C351.032 459.558 350.906 459.338 350.74 459.125C350.578 458.908 350.356 458.729 350.075 458.588C349.794 458.448 349.434 458.377 348.995 458.377C348.394 458.377 347.893 458.516 347.493 458.793C347.096 459.066 346.898 459.413 346.898 459.835C346.898 460.21 347.034 460.506 347.307 460.723C347.58 460.941 348.006 461.122 348.586 461.267L350.043 461.625C350.921 461.838 351.575 462.164 352.005 462.603C352.436 463.037 352.651 463.598 352.651 464.284C352.651 464.846 352.489 465.349 352.165 465.792C351.846 466.235 351.398 466.585 350.823 466.841C350.248 467.096 349.578 467.224 348.816 467.224C347.814 467.224 346.985 467.007 346.329 466.572C345.673 466.137 345.257 465.502 345.083 464.667L346.515 464.309C346.651 464.838 346.909 465.234 347.288 465.498C347.672 465.762 348.172 465.895 348.79 465.895C349.493 465.895 350.051 465.745 350.465 465.447C350.882 465.145 351.091 464.782 351.091 464.36C351.091 464.02 350.972 463.734 350.733 463.504C350.495 463.27 350.128 463.095 349.634 462.98L347.998 462.596C347.098 462.383 346.438 462.053 346.016 461.605C345.598 461.154 345.39 460.589 345.39 459.912C345.39 459.358 345.545 458.868 345.856 458.441C346.172 458.015 346.6 457.681 347.141 457.438C347.686 457.195 348.304 457.074 348.995 457.074C349.966 457.074 350.729 457.287 351.283 457.713C351.841 458.139 352.238 458.701 352.472 459.4ZM354.941 467.122C354.626 467.122 354.355 467.009 354.129 466.783C353.903 466.557 353.791 466.287 353.791 465.971C353.791 465.656 353.903 465.385 354.129 465.159C354.355 464.934 354.626 464.821 354.941 464.821C355.256 464.821 355.527 464.934 355.753 465.159C355.979 465.385 356.092 465.656 356.092 465.971C356.092 466.18 356.038 466.372 355.932 466.547C355.83 466.721 355.691 466.862 355.516 466.968C355.346 467.071 355.154 467.122 354.941 467.122ZM369.065 457.201C368.988 456.554 368.677 456.051 368.132 455.693C367.586 455.335 366.917 455.156 366.125 455.156C365.545 455.156 365.038 455.25 364.603 455.437C364.173 455.625 363.836 455.882 363.593 456.211C363.355 456.539 363.235 456.912 363.235 457.329C363.235 457.679 363.318 457.979 363.485 458.23C363.655 458.478 363.872 458.684 364.137 458.85C364.401 459.012 364.678 459.147 364.968 459.253C365.257 459.355 365.524 459.439 365.767 459.502L367.096 459.86C367.437 459.95 367.816 460.074 368.234 460.231C368.656 460.389 369.058 460.604 369.442 460.877C369.83 461.145 370.149 461.49 370.401 461.912C370.652 462.334 370.778 462.852 370.778 463.466C370.778 464.173 370.593 464.812 370.222 465.383C369.855 465.954 369.318 466.408 368.611 466.745C367.908 467.081 367.054 467.25 366.048 467.25C365.11 467.25 364.299 467.098 363.612 466.796C362.931 466.493 362.394 466.071 362.002 465.53C361.614 464.989 361.394 464.36 361.343 463.645H362.98C363.022 464.139 363.188 464.548 363.478 464.872C363.772 465.191 364.143 465.43 364.59 465.588C365.042 465.741 365.528 465.818 366.048 465.818C366.653 465.818 367.196 465.72 367.678 465.524C368.159 465.324 368.541 465.047 368.822 464.693C369.103 464.335 369.244 463.917 369.244 463.44C369.244 463.005 369.122 462.652 368.88 462.379C368.637 462.106 368.317 461.885 367.921 461.714C367.524 461.544 367.096 461.395 366.636 461.267L365.025 460.806C364.002 460.512 363.193 460.093 362.596 459.547C362 459.002 361.701 458.288 361.701 457.406C361.701 456.673 361.899 456.034 362.296 455.488C362.696 454.939 363.233 454.512 363.906 454.21C364.584 453.903 365.34 453.75 366.176 453.75C367.019 453.75 367.769 453.901 368.426 454.203C369.082 454.502 369.602 454.911 369.985 455.431C370.373 455.951 370.578 456.541 370.599 457.201H369.065ZM376.37 457.201V458.48H371.282V457.201H376.37ZM372.765 454.849H374.273V464.207C374.273 464.633 374.335 464.953 374.458 465.166C374.586 465.375 374.748 465.515 374.944 465.588C375.144 465.656 375.355 465.69 375.577 465.69C375.743 465.69 375.88 465.681 375.986 465.664C376.093 465.643 376.178 465.626 376.242 465.613L376.549 466.968C376.446 467.007 376.304 467.045 376.12 467.083C375.937 467.126 375.705 467.147 375.424 467.147C374.997 467.147 374.58 467.056 374.171 466.873C373.766 466.689 373.429 466.41 373.161 466.035C372.897 465.66 372.765 465.187 372.765 464.616V454.849ZM380.448 467.25C379.826 467.25 379.261 467.132 378.754 466.898C378.247 466.659 377.844 466.316 377.546 465.869C377.248 465.417 377.099 464.872 377.099 464.233C377.099 463.67 377.209 463.214 377.431 462.865C377.653 462.511 377.949 462.234 378.319 462.034C378.69 461.833 379.099 461.684 379.547 461.586C379.998 461.484 380.452 461.403 380.908 461.343C381.505 461.267 381.989 461.209 382.359 461.171C382.734 461.128 383.007 461.058 383.177 460.96C383.352 460.862 383.439 460.691 383.439 460.449V460.397C383.439 459.767 383.267 459.277 382.922 458.927C382.581 458.578 382.063 458.403 381.368 458.403C380.648 458.403 380.084 458.561 379.675 458.876C379.265 459.191 378.978 459.528 378.812 459.886L377.38 459.375C377.636 458.778 377.976 458.314 378.403 457.981C378.833 457.645 379.302 457.41 379.809 457.278C380.32 457.142 380.823 457.074 381.317 457.074C381.633 457.074 381.995 457.112 382.404 457.189C382.817 457.261 383.216 457.412 383.599 457.642C383.987 457.873 384.309 458.22 384.564 458.684C384.82 459.149 384.948 459.771 384.948 460.551V467.02H383.439V465.69H383.363C383.261 465.903 383.09 466.131 382.851 466.374C382.613 466.617 382.295 466.824 381.899 466.994C381.503 467.164 381.019 467.25 380.448 467.25ZM380.678 465.895C381.275 465.895 381.778 465.777 382.187 465.543C382.6 465.309 382.911 465.006 383.12 464.635C383.333 464.265 383.439 463.875 383.439 463.466V462.085C383.376 462.162 383.235 462.232 383.018 462.296C382.805 462.355 382.557 462.409 382.276 462.456C381.999 462.498 381.729 462.537 381.464 462.571C381.204 462.6 380.993 462.626 380.832 462.647C380.439 462.699 380.073 462.782 379.732 462.897C379.395 463.007 379.123 463.176 378.914 463.402C378.709 463.623 378.607 463.926 378.607 464.309C378.607 464.833 378.801 465.23 379.189 465.498C379.581 465.762 380.077 465.895 380.678 465.895ZM386.621 467.02V457.201H388.079V458.684H388.181C388.36 458.199 388.684 457.804 389.153 457.502C389.621 457.199 390.15 457.048 390.738 457.048C390.849 457.048 390.987 457.05 391.153 457.054C391.32 457.059 391.445 457.065 391.53 457.074V458.608C391.479 458.595 391.362 458.576 391.179 458.55C391 458.52 390.81 458.505 390.61 458.505C390.133 458.505 389.707 458.605 389.332 458.806C388.961 459.002 388.667 459.275 388.449 459.624C388.236 459.969 388.13 460.363 388.13 460.806V467.02H386.621ZM397.124 457.201V458.48H392.036V457.201H397.124ZM393.519 454.849H395.027V464.207C395.027 464.633 395.089 464.953 395.213 465.166C395.34 465.375 395.502 465.515 395.698 465.588C395.899 465.656 396.11 465.69 396.331 465.69C396.497 465.69 396.634 465.681 396.74 465.664C396.847 465.643 396.932 465.626 396.996 465.613L397.303 466.968C397.2 467.007 397.058 467.045 396.874 467.083C396.691 467.126 396.459 467.147 396.178 467.147C395.752 467.147 395.334 467.056 394.925 466.873C394.52 466.689 394.183 466.41 393.915 466.035C393.651 465.66 393.519 465.187 393.519 464.616V454.849ZM403.804 461.113V467.02H402.295V457.201H403.753V458.735H403.881C404.111 458.237 404.46 457.836 404.929 457.534C405.398 457.227 406.003 457.074 406.744 457.074C407.409 457.074 407.991 457.21 408.489 457.483C408.988 457.751 409.376 458.16 409.653 458.71C409.93 459.255 410.068 459.946 410.068 460.781V467.02H408.56V460.883C408.56 460.112 408.359 459.511 407.959 459.081C407.558 458.646 407.009 458.429 406.31 458.429C405.828 458.429 405.398 458.533 405.018 458.742C404.643 458.951 404.347 459.255 404.13 459.656C403.913 460.056 403.804 460.542 403.804 461.113ZM415.733 467.224C414.847 467.224 414.069 467.013 413.4 466.591C412.735 466.169 412.216 465.579 411.841 464.821C411.47 464.062 411.284 463.176 411.284 462.162C411.284 461.139 411.47 460.246 411.841 459.483C412.216 458.721 412.735 458.128 413.4 457.706C414.069 457.284 414.847 457.074 415.733 457.074C416.62 457.074 417.395 457.284 418.06 457.706C418.729 458.128 419.249 458.721 419.62 459.483C419.995 460.246 420.182 461.139 420.182 462.162C420.182 463.176 419.995 464.062 419.62 464.821C419.249 465.579 418.729 466.169 418.06 466.591C417.395 467.013 416.62 467.224 415.733 467.224ZM415.733 465.869C416.407 465.869 416.961 465.696 417.395 465.351C417.83 465.006 418.152 464.552 418.36 463.99C418.569 463.427 418.674 462.818 418.674 462.162C418.674 461.505 418.569 460.894 418.36 460.327C418.152 459.76 417.83 459.302 417.395 458.953C416.961 458.603 416.407 458.429 415.733 458.429C415.06 458.429 414.506 458.603 414.071 458.953C413.637 459.302 413.315 459.76 413.106 460.327C412.897 460.894 412.793 461.505 412.793 462.162C412.793 462.818 412.897 463.427 413.106 463.99C413.315 464.552 413.637 465.006 414.071 465.351C414.506 465.696 415.06 465.869 415.733 465.869ZM423.295 467.02L420.304 457.201H421.889L424.011 464.718H424.114L426.21 457.201H427.821L429.892 464.693H429.994L432.116 457.201H433.702L430.71 467.02H429.227L427.08 459.477H426.926L424.778 467.02H423.295ZM441.488 467.25C440.866 467.25 440.301 467.132 439.794 466.898C439.287 466.659 438.884 466.316 438.586 465.869C438.287 465.417 438.138 464.872 438.138 464.233C438.138 463.67 438.249 463.214 438.471 462.865C438.692 462.511 438.988 462.234 439.359 462.034C439.73 461.833 440.139 461.684 440.586 461.586C441.038 461.484 441.492 461.403 441.948 461.343C442.545 461.267 443.028 461.209 443.399 461.171C443.774 461.128 444.047 461.058 444.217 460.96C444.392 460.862 444.479 460.691 444.479 460.449V460.397C444.479 459.767 444.307 459.277 443.961 458.927C443.621 458.578 443.103 458.403 442.408 458.403C441.688 458.403 441.123 458.561 440.714 458.876C440.305 459.191 440.018 459.528 439.851 459.886L438.42 459.375C438.675 458.778 439.016 458.314 439.442 457.981C439.873 457.645 440.341 457.41 440.848 457.278C441.36 457.142 441.863 457.074 442.357 457.074C442.672 457.074 443.035 457.112 443.444 457.189C443.857 457.261 444.255 457.412 444.639 457.642C445.027 457.873 445.348 458.22 445.604 458.684C445.86 459.149 445.988 459.771 445.988 460.551V467.02H444.479V465.69H444.402C444.3 465.903 444.13 466.131 443.891 466.374C443.652 466.617 443.335 466.824 442.939 466.994C442.542 467.164 442.059 467.25 441.488 467.25ZM441.718 465.895C442.314 465.895 442.817 465.777 443.226 465.543C443.64 465.309 443.951 465.006 444.16 464.635C444.373 464.265 444.479 463.875 444.479 463.466V462.085C444.415 462.162 444.275 462.232 444.057 462.296C443.844 462.355 443.597 462.409 443.316 462.456C443.039 462.498 442.768 462.537 442.504 462.571C442.244 462.6 442.033 462.626 441.871 462.647C441.479 462.699 441.113 462.782 440.772 462.897C440.435 463.007 440.162 463.176 439.954 463.402C439.749 463.623 439.647 463.926 439.647 464.309C439.647 464.833 439.841 465.23 440.228 465.498C440.621 465.762 441.117 465.895 441.718 465.895ZM449.17 461.113V467.02H447.661V457.201H449.118V458.735H449.246C449.476 458.237 449.826 457.836 450.295 457.534C450.763 457.227 451.368 457.074 452.11 457.074C452.775 457.074 453.356 457.21 453.855 457.483C454.354 457.751 454.741 458.16 455.018 458.71C455.295 459.255 455.434 459.946 455.434 460.781V467.02H453.925V460.883C453.925 460.112 453.725 459.511 453.324 459.081C452.924 458.646 452.374 458.429 451.675 458.429C451.194 458.429 450.763 458.533 450.384 458.742C450.009 458.951 449.713 459.255 449.496 459.656C449.278 460.056 449.17 460.542 449.17 461.113ZM460.818 467.224C460 467.224 459.277 467.017 458.651 466.604C458.024 466.186 457.534 465.598 457.181 464.84C456.827 464.077 456.65 463.176 456.65 462.136C456.65 461.105 456.827 460.21 457.181 459.451C457.534 458.693 458.027 458.107 458.657 457.694C459.288 457.28 460.017 457.074 460.843 457.074C461.483 457.074 461.987 457.18 462.358 457.393C462.733 457.602 463.019 457.841 463.215 458.109C463.415 458.373 463.571 458.591 463.681 458.761H463.809V453.929H465.318V467.02H463.86V465.511H463.681C463.571 465.69 463.413 465.916 463.208 466.189C463.004 466.457 462.712 466.698 462.333 466.911C461.953 467.12 461.448 467.224 460.818 467.224ZM461.022 465.869C461.627 465.869 462.139 465.711 462.556 465.396C462.974 465.076 463.291 464.635 463.509 464.073C463.726 463.506 463.835 462.852 463.835 462.11C463.835 461.377 463.728 460.736 463.515 460.186C463.302 459.632 462.987 459.202 462.569 458.895C462.152 458.584 461.636 458.429 461.022 458.429C460.383 458.429 459.85 458.593 459.424 458.921C459.002 459.245 458.685 459.686 458.472 460.244C458.263 460.798 458.159 461.42 458.159 462.11C458.159 462.809 458.265 463.444 458.478 464.015C458.696 464.582 459.015 465.034 459.437 465.37C459.863 465.703 460.392 465.869 461.022 465.869ZM146.605 491.224C145.659 491.224 144.843 491.015 144.157 490.598C143.476 490.176 142.949 489.588 142.578 488.833C142.212 488.075 142.029 487.193 142.029 486.187C142.029 485.181 142.212 484.295 142.578 483.528C142.949 482.757 143.465 482.156 144.125 481.725C144.79 481.291 145.566 481.074 146.452 481.074C146.963 481.074 147.468 481.159 147.967 481.329C148.466 481.5 148.919 481.777 149.328 482.16C149.738 482.539 150.064 483.042 150.306 483.669C150.549 484.295 150.671 485.066 150.671 485.983V486.622H143.103V485.318H149.137C149.137 484.764 149.026 484.27 148.804 483.835C148.587 483.4 148.276 483.057 147.871 482.806C147.471 482.554 146.998 482.429 146.452 482.429C145.851 482.429 145.331 482.578 144.892 482.876C144.458 483.17 144.123 483.554 143.889 484.027C143.654 484.5 143.537 485.007 143.537 485.548V486.417C143.537 487.159 143.665 487.787 143.921 488.303C144.181 488.814 144.541 489.204 145.001 489.473C145.461 489.737 145.996 489.869 146.605 489.869C147.002 489.869 147.36 489.814 147.679 489.703C148.003 489.588 148.282 489.417 148.517 489.191C148.751 488.961 148.932 488.676 149.06 488.335L150.517 488.744C150.364 489.238 150.106 489.673 149.744 490.048C149.382 490.419 148.934 490.708 148.402 490.917C147.869 491.122 147.27 491.224 146.605 491.224ZM152.747 481.201L155.099 485.216L157.451 481.201H159.19L156.02 486.11L159.19 491.02H157.451L155.099 487.21L152.747 491.02H151.008L154.128 486.11L151.008 481.201H152.747ZM160.263 494.701V481.201H161.72V482.761H161.899C162.01 482.591 162.163 482.373 162.359 482.109C162.559 481.841 162.845 481.602 163.216 481.393C163.591 481.18 164.098 481.074 164.737 481.074C165.564 481.074 166.292 481.28 166.923 481.694C167.554 482.107 168.046 482.693 168.4 483.451C168.753 484.21 168.93 485.105 168.93 486.136C168.93 487.176 168.753 488.077 168.4 488.84C168.046 489.598 167.556 490.186 166.929 490.604C166.303 491.017 165.581 491.224 164.763 491.224C164.132 491.224 163.627 491.12 163.248 490.911C162.868 490.698 162.577 490.457 162.372 490.189C162.167 489.916 162.01 489.69 161.899 489.511H161.771V494.701H160.263ZM161.746 486.11C161.746 486.852 161.854 487.506 162.072 488.073C162.289 488.635 162.606 489.076 163.024 489.396C163.442 489.711 163.953 489.869 164.558 489.869C165.189 489.869 165.715 489.703 166.137 489.37C166.563 489.034 166.883 488.582 167.096 488.015C167.313 487.444 167.422 486.809 167.422 486.11C167.422 485.42 167.315 484.798 167.102 484.244C166.893 483.686 166.576 483.245 166.15 482.921C165.728 482.593 165.197 482.429 164.558 482.429C163.944 482.429 163.429 482.584 163.011 482.895C162.594 483.202 162.278 483.632 162.065 484.186C161.852 484.736 161.746 485.377 161.746 486.11ZM174.268 491.224C173.322 491.224 172.506 491.015 171.82 490.598C171.138 490.176 170.612 489.588 170.241 488.833C169.874 488.075 169.691 487.193 169.691 486.187C169.691 485.181 169.874 484.295 170.241 483.528C170.612 482.757 171.127 482.156 171.788 481.725C172.452 481.291 173.228 481.074 174.114 481.074C174.626 481.074 175.131 481.159 175.629 481.329C176.128 481.5 176.582 481.777 176.991 482.16C177.4 482.539 177.726 483.042 177.969 483.669C178.212 484.295 178.333 485.066 178.333 485.983V486.622H170.765V485.318H176.799C176.799 484.764 176.688 484.27 176.467 483.835C176.249 483.4 175.938 483.057 175.533 482.806C175.133 482.554 174.66 482.429 174.114 482.429C173.514 482.429 172.994 482.578 172.555 482.876C172.12 483.17 171.786 483.554 171.551 484.027C171.317 484.5 171.2 485.007 171.2 485.548V486.417C171.2 487.159 171.327 487.787 171.583 488.303C171.843 488.814 172.203 489.204 172.663 489.473C173.124 489.737 173.658 489.869 174.268 489.869C174.664 489.869 175.022 489.814 175.342 489.703C175.666 489.588 175.945 489.417 176.179 489.191C176.413 488.961 176.595 488.676 176.722 488.335L178.18 488.744C178.026 489.238 177.769 489.673 177.406 490.048C177.044 490.419 176.597 490.708 176.064 490.917C175.531 491.122 174.933 491.224 174.268 491.224ZM179.548 491.02V481.201H181.005V482.684H181.108C181.287 482.199 181.61 481.804 182.079 481.502C182.548 481.199 183.076 481.048 183.664 481.048C183.775 481.048 183.914 481.05 184.08 481.054C184.246 481.059 184.372 481.065 184.457 481.074V482.608C184.406 482.595 184.289 482.576 184.105 482.55C183.926 482.52 183.737 482.505 183.537 482.505C183.059 482.505 182.633 482.605 182.258 482.806C181.887 483.002 181.593 483.275 181.376 483.624C181.163 483.969 181.056 484.363 181.056 484.806V491.02H179.548ZM185.165 491.02V481.201H186.674V491.02H185.165ZM185.932 479.565C185.638 479.565 185.385 479.465 185.172 479.265C184.963 479.064 184.858 478.824 184.858 478.542C184.858 478.261 184.963 478.02 185.172 477.82C185.385 477.62 185.638 477.52 185.932 477.52C186.226 477.52 186.478 477.62 186.686 477.82C186.9 478.02 187.006 478.261 187.006 478.542C187.006 478.824 186.9 479.064 186.686 479.265C186.478 479.465 186.226 479.565 185.932 479.565ZM192.473 491.224C191.527 491.224 190.711 491.015 190.025 490.598C189.343 490.176 188.817 489.588 188.446 488.833C188.08 488.075 187.896 487.193 187.896 486.187C187.896 485.181 188.08 484.295 188.446 483.528C188.817 482.757 189.333 482.156 189.993 481.725C190.658 481.291 191.433 481.074 192.32 481.074C192.831 481.074 193.336 481.159 193.835 481.329C194.333 481.5 194.787 481.777 195.196 482.16C195.605 482.539 195.931 483.042 196.174 483.669C196.417 484.295 196.538 485.066 196.538 485.983V486.622H188.97V485.318H195.004C195.004 484.764 194.894 484.27 194.672 483.835C194.455 483.4 194.144 483.057 193.739 482.806C193.338 482.554 192.865 482.429 192.32 482.429C191.719 482.429 191.199 482.578 190.76 482.876C190.325 483.17 189.991 483.554 189.757 484.027C189.522 484.5 189.405 485.007 189.405 485.548V486.417C189.405 487.159 189.533 487.787 189.788 488.303C190.048 488.814 190.409 489.204 190.869 489.473C191.329 489.737 191.864 489.869 192.473 489.869C192.869 489.869 193.227 489.814 193.547 489.703C193.871 489.588 194.15 489.417 194.384 489.191C194.619 488.961 194.8 488.676 194.928 488.335L196.385 488.744C196.232 489.238 195.974 489.673 195.612 490.048C195.249 490.419 194.802 490.708 194.269 490.917C193.737 491.122 193.138 491.224 192.473 491.224ZM199.262 485.113V491.02H197.753V481.201H199.211V482.735H199.338C199.569 482.237 199.918 481.836 200.387 481.534C200.855 481.227 201.461 481.074 202.202 481.074C202.867 481.074 203.449 481.21 203.947 481.483C204.446 481.751 204.833 482.16 205.11 482.71C205.387 483.255 205.526 483.946 205.526 484.781V491.02H204.017V484.883C204.017 484.112 203.817 483.511 203.417 483.081C203.016 482.646 202.466 482.429 201.767 482.429C201.286 482.429 200.855 482.533 200.476 482.742C200.101 482.951 199.805 483.255 199.588 483.656C199.37 484.056 199.262 484.542 199.262 485.113ZM211.191 491.224C210.271 491.224 209.478 491.007 208.813 490.572C208.149 490.137 207.637 489.539 207.279 488.776C206.921 488.013 206.742 487.142 206.742 486.162C206.742 485.164 206.926 484.284 207.292 483.522C207.663 482.755 208.178 482.156 208.839 481.725C209.504 481.291 210.279 481.074 211.166 481.074C211.856 481.074 212.478 481.201 213.032 481.457C213.586 481.713 214.04 482.071 214.394 482.531C214.747 482.991 214.967 483.528 215.052 484.142H213.543C213.428 483.694 213.173 483.298 212.776 482.953C212.384 482.603 211.856 482.429 211.191 482.429C210.603 482.429 210.087 482.582 209.644 482.889C209.205 483.191 208.862 483.62 208.615 484.174C208.372 484.723 208.251 485.369 208.251 486.11C208.251 486.869 208.37 487.529 208.609 488.092C208.852 488.654 209.193 489.091 209.631 489.402C210.075 489.713 210.595 489.869 211.191 489.869C211.583 489.869 211.939 489.801 212.259 489.664C212.578 489.528 212.849 489.332 213.07 489.076C213.292 488.821 213.45 488.514 213.543 488.156H215.052C214.967 488.735 214.756 489.257 214.419 489.722C214.087 490.182 213.646 490.549 213.096 490.821C212.551 491.09 211.916 491.224 211.191 491.224ZM220.294 491.224C219.348 491.224 218.532 491.015 217.846 490.598C217.164 490.176 216.637 489.588 216.267 488.833C215.9 488.075 215.717 487.193 215.717 486.187C215.717 485.181 215.9 484.295 216.267 483.528C216.637 482.757 217.153 482.156 217.814 481.725C218.478 481.291 219.254 481.074 220.14 481.074C220.652 481.074 221.157 481.159 221.655 481.329C222.154 481.5 222.608 481.777 223.017 482.16C223.426 482.539 223.752 483.042 223.995 483.669C224.238 484.295 224.359 485.066 224.359 485.983V486.622H216.791V485.318H222.825C222.825 484.764 222.714 484.27 222.493 483.835C222.275 483.4 221.964 483.057 221.559 482.806C221.159 482.554 220.686 482.429 220.14 482.429C219.539 482.429 219.02 482.578 218.581 482.876C218.146 483.17 217.811 483.554 217.577 484.027C217.343 484.5 217.226 485.007 217.226 485.548V486.417C217.226 487.159 217.353 487.787 217.609 488.303C217.869 488.814 218.229 489.204 218.689 489.473C219.15 489.737 219.684 489.869 220.294 489.869C220.69 489.869 221.048 489.814 221.368 489.703C221.691 489.588 221.971 489.417 222.205 489.191C222.439 488.961 222.62 488.676 222.748 488.335L224.206 488.744C224.052 489.238 223.794 489.673 223.432 490.048C223.07 490.419 222.623 490.708 222.09 490.917C221.557 491.122 220.958 491.224 220.294 491.224ZM236.511 483.4L235.156 483.784C235.07 483.558 234.945 483.338 234.779 483.125C234.617 482.908 234.395 482.729 234.114 482.588C233.833 482.448 233.472 482.377 233.034 482.377C232.433 482.377 231.932 482.516 231.531 482.793C231.135 483.066 230.937 483.413 230.937 483.835C230.937 484.21 231.073 484.506 231.346 484.723C231.619 484.941 232.045 485.122 232.624 485.267L234.082 485.625C234.96 485.838 235.614 486.164 236.044 486.603C236.475 487.037 236.69 487.598 236.69 488.284C236.69 488.846 236.528 489.349 236.204 489.792C235.884 490.235 235.437 490.585 234.862 490.841C234.286 491.096 233.617 491.224 232.855 491.224C231.853 491.224 231.024 491.007 230.368 490.572C229.712 490.137 229.296 489.502 229.122 488.667L230.553 488.309C230.69 488.838 230.948 489.234 231.327 489.498C231.71 489.762 232.211 489.895 232.829 489.895C233.532 489.895 234.09 489.745 234.504 489.447C234.921 489.145 235.13 488.782 235.13 488.36C235.13 488.02 235.011 487.734 234.772 487.504C234.534 487.27 234.167 487.095 233.673 486.98L232.036 486.596C231.137 486.383 230.477 486.053 230.055 485.605C229.637 485.154 229.428 484.589 229.428 483.912C229.428 483.358 229.584 482.868 229.895 482.441C230.21 482.015 230.639 481.681 231.18 481.438C231.725 481.195 232.343 481.074 233.034 481.074C234.005 481.074 234.768 481.287 235.322 481.713C235.88 482.139 236.276 482.701 236.511 483.4ZM241.997 491.224C241.051 491.224 240.235 491.015 239.549 490.598C238.867 490.176 238.341 489.588 237.97 488.833C237.604 488.075 237.42 487.193 237.42 486.187C237.42 485.181 237.604 484.295 237.97 483.528C238.341 482.757 238.856 482.156 239.517 481.725C240.182 481.291 240.957 481.074 241.844 481.074C242.355 481.074 242.86 481.159 243.359 481.329C243.857 481.5 244.311 481.777 244.72 482.16C245.129 482.539 245.455 483.042 245.698 483.669C245.941 484.295 246.062 485.066 246.062 485.983V486.622H238.494V485.318H244.528C244.528 484.764 244.417 484.27 244.196 483.835C243.979 483.4 243.667 483.057 243.263 482.806C242.862 482.554 242.389 482.429 241.844 482.429C241.243 482.429 240.723 482.578 240.284 482.876C239.849 483.17 239.515 483.554 239.28 484.027C239.046 484.5 238.929 485.007 238.929 485.548V486.417C238.929 487.159 239.057 487.787 239.312 488.303C239.572 488.814 239.932 489.204 240.393 489.473C240.853 489.737 241.388 489.869 241.997 489.869C242.393 489.869 242.751 489.814 243.071 489.703C243.395 489.588 243.674 489.417 243.908 489.191C244.143 488.961 244.324 488.676 244.452 488.335L245.909 488.744C245.756 489.238 245.498 489.673 245.136 490.048C244.773 490.419 244.326 490.708 243.793 490.917C243.261 491.122 242.662 491.224 241.997 491.224ZM250.166 491.25C249.544 491.25 248.98 491.132 248.472 490.898C247.965 490.659 247.563 490.316 247.264 489.869C246.966 489.417 246.817 488.872 246.817 488.233C246.817 487.67 246.928 487.214 247.149 486.865C247.371 486.511 247.667 486.234 248.038 486.034C248.409 485.833 248.818 485.684 249.265 485.586C249.717 485.484 250.171 485.403 250.627 485.343C251.223 485.267 251.707 485.209 252.078 485.171C252.453 485.128 252.725 485.058 252.896 484.96C253.07 484.862 253.158 484.691 253.158 484.449V484.397C253.158 483.767 252.985 483.277 252.64 482.927C252.299 482.578 251.781 482.403 251.087 482.403C250.367 482.403 249.802 482.561 249.393 482.876C248.984 483.191 248.696 483.528 248.53 483.886L247.098 483.375C247.354 482.778 247.695 482.314 248.121 481.981C248.551 481.645 249.02 481.41 249.527 481.278C250.038 481.142 250.541 481.074 251.036 481.074C251.351 481.074 251.713 481.112 252.122 481.189C252.536 481.261 252.934 481.412 253.318 481.642C253.705 481.873 254.027 482.22 254.283 482.684C254.538 483.149 254.666 483.771 254.666 484.551V491.02H253.158V489.69H253.081C252.979 489.903 252.808 490.131 252.57 490.374C252.331 490.617 252.014 490.824 251.617 490.994C251.221 491.164 250.737 491.25 250.166 491.25ZM250.396 489.895C250.993 489.895 251.496 489.777 251.905 489.543C252.318 489.309 252.629 489.006 252.838 488.635C253.051 488.265 253.158 487.875 253.158 487.466V486.085C253.094 486.162 252.953 486.232 252.736 486.296C252.523 486.355 252.276 486.409 251.994 486.456C251.717 486.498 251.447 486.537 251.183 486.571C250.923 486.6 250.712 486.626 250.55 486.647C250.158 486.699 249.791 486.782 249.45 486.897C249.114 487.007 248.841 487.176 248.632 487.402C248.428 487.623 248.325 487.926 248.325 488.309C248.325 488.833 248.519 489.23 248.907 489.498C249.299 489.762 249.796 489.895 250.396 489.895ZM256.34 491.02V481.201H257.797V482.735H257.925C258.129 482.211 258.46 481.804 258.916 481.515C259.372 481.221 259.919 481.074 260.558 481.074C261.206 481.074 261.745 481.221 262.176 481.515C262.61 481.804 262.949 482.211 263.192 482.735H263.294C263.546 482.228 263.923 481.826 264.426 481.527C264.928 481.225 265.531 481.074 266.235 481.074C267.112 481.074 267.83 481.348 268.389 481.898C268.947 482.444 269.226 483.294 269.226 484.449V491.02H267.718V484.449C267.718 483.724 267.519 483.206 267.123 482.895C266.727 482.584 266.26 482.429 265.723 482.429C265.033 482.429 264.498 482.637 264.119 483.055C263.74 483.468 263.55 483.993 263.55 484.627V491.02H262.016V484.295C262.016 483.737 261.835 483.287 261.473 482.946C261.11 482.601 260.644 482.429 260.073 482.429C259.681 482.429 259.314 482.533 258.973 482.742C258.637 482.951 258.364 483.24 258.155 483.611C257.95 483.978 257.848 484.402 257.848 484.883V491.02H256.34ZM272.413 477.929V491.02H270.904V477.929H272.413ZM278.212 491.224C277.266 491.224 276.45 491.015 275.764 490.598C275.082 490.176 274.556 489.588 274.185 488.833C273.819 488.075 273.635 487.193 273.635 486.187C273.635 485.181 273.819 484.295 274.185 483.528C274.556 482.757 275.072 482.156 275.732 481.725C276.397 481.291 277.172 481.074 278.059 481.074C278.57 481.074 279.075 481.159 279.574 481.329C280.072 481.5 280.526 481.777 280.935 482.16C281.344 482.539 281.67 483.042 281.913 483.669C282.156 484.295 282.278 485.066 282.278 485.983V486.622H274.709V485.318H280.743C280.743 484.764 280.633 484.27 280.411 483.835C280.194 483.4 279.883 483.057 279.478 482.806C279.077 482.554 278.604 482.429 278.059 482.429C277.458 482.429 276.938 482.578 276.499 482.876C276.064 483.17 275.73 483.554 275.496 484.027C275.261 484.5 275.144 485.007 275.144 485.548V486.417C275.144 487.159 275.272 487.787 275.528 488.303C275.787 488.814 276.148 489.204 276.608 489.473C277.068 489.737 277.603 489.869 278.212 489.869C278.609 489.869 278.966 489.814 279.286 489.703C279.61 489.588 279.889 489.417 280.123 489.191C280.358 488.961 280.539 488.676 280.667 488.335L282.124 488.744C281.971 489.238 281.713 489.673 281.351 490.048C280.988 490.419 280.541 490.708 280.008 490.917C279.476 491.122 278.877 491.224 278.212 491.224ZM290.447 483.4L289.092 483.784C289.006 483.558 288.881 483.338 288.715 483.125C288.553 482.908 288.331 482.729 288.05 482.588C287.769 482.448 287.408 482.377 286.97 482.377C286.369 482.377 285.868 482.516 285.467 482.793C285.071 483.066 284.873 483.413 284.873 483.835C284.873 484.21 285.009 484.506 285.282 484.723C285.555 484.941 285.981 485.122 286.56 485.267L288.018 485.625C288.896 485.838 289.55 486.164 289.98 486.603C290.411 487.037 290.626 487.598 290.626 488.284C290.626 488.846 290.464 489.349 290.14 489.792C289.82 490.235 289.373 490.585 288.798 490.841C288.222 491.096 287.553 491.224 286.791 491.224C285.789 491.224 284.96 491.007 284.304 490.572C283.648 490.137 283.232 489.502 283.058 488.667L284.489 488.309C284.626 488.838 284.884 489.234 285.263 489.498C285.646 489.762 286.147 489.895 286.765 489.895C287.468 489.895 288.026 489.745 288.44 489.447C288.857 489.145 289.066 488.782 289.066 488.36C289.066 488.02 288.947 487.734 288.708 487.504C288.47 487.27 288.103 487.095 287.609 486.98L285.972 486.596C285.073 486.383 284.413 486.053 283.991 485.605C283.573 485.154 283.364 484.589 283.364 483.912C283.364 483.358 283.52 482.868 283.831 482.441C284.146 482.015 284.575 481.681 285.116 481.438C285.661 481.195 286.279 481.074 286.97 481.074C287.941 481.074 288.704 481.287 289.258 481.713C289.816 482.139 290.212 482.701 290.447 483.4ZM298.771 483.4L297.416 483.784C297.331 483.558 297.205 483.338 297.039 483.125C296.877 482.908 296.655 482.729 296.374 482.588C296.093 482.448 295.733 482.377 295.294 482.377C294.693 482.377 294.192 482.516 293.792 482.793C293.395 483.066 293.197 483.413 293.197 483.835C293.197 484.21 293.334 484.506 293.606 484.723C293.879 484.941 294.305 485.122 294.885 485.267L296.342 485.625C297.22 485.838 297.874 486.164 298.305 486.603C298.735 487.037 298.95 487.598 298.95 488.284C298.95 488.846 298.788 489.349 298.464 489.792C298.145 490.235 297.697 490.585 297.122 490.841C296.547 491.096 295.878 491.224 295.115 491.224C294.113 491.224 293.285 491.007 292.628 490.572C291.972 490.137 291.557 489.502 291.382 488.667L292.814 488.309C292.95 488.838 293.208 489.234 293.587 489.498C293.971 489.762 294.471 489.895 295.089 489.895C295.792 489.895 296.351 489.745 296.764 489.447C297.182 489.145 297.39 488.782 297.39 488.36C297.39 488.02 297.271 487.734 297.033 487.504C296.794 487.27 296.427 487.095 295.933 486.98L294.297 486.596C293.398 486.383 292.737 486.053 292.315 485.605C291.898 485.154 291.689 484.589 291.689 483.912C291.689 483.358 291.844 482.868 292.155 482.441C292.471 482.015 292.899 481.681 293.44 481.438C293.986 481.195 294.604 481.074 295.294 481.074C296.265 481.074 297.028 481.287 297.582 481.713C298.14 482.139 298.537 482.701 298.771 483.4ZM311.078 483.4L309.723 483.784C309.638 483.558 309.512 483.338 309.346 483.125C309.184 482.908 308.962 482.729 308.681 482.588C308.4 482.448 308.04 482.377 307.601 482.377C307 482.377 306.499 482.516 306.098 482.793C305.702 483.066 305.504 483.413 305.504 483.835C305.504 484.21 305.64 484.506 305.913 484.723C306.186 484.941 306.612 485.122 307.192 485.267L308.649 485.625C309.527 485.838 310.181 486.164 310.611 486.603C311.042 487.037 311.257 487.598 311.257 488.284C311.257 488.846 311.095 489.349 310.771 489.792C310.451 490.235 310.004 490.585 309.429 490.841C308.853 491.096 308.184 491.224 307.422 491.224C306.42 491.224 305.591 491.007 304.935 490.572C304.279 490.137 303.863 489.502 303.689 488.667L305.121 488.309C305.257 488.838 305.515 489.234 305.894 489.498C306.277 489.762 306.778 489.895 307.396 489.895C308.099 489.895 308.657 489.745 309.071 489.447C309.488 489.145 309.697 488.782 309.697 488.36C309.697 488.02 309.578 487.734 309.339 487.504C309.101 487.27 308.734 487.095 308.24 486.98L306.603 486.596C305.704 486.383 305.044 486.053 304.622 485.605C304.204 485.154 303.996 484.589 303.996 483.912C303.996 483.358 304.151 482.868 304.462 482.441C304.777 482.015 305.206 481.681 305.747 481.438C306.292 481.195 306.91 481.074 307.601 481.074C308.572 481.074 309.335 481.287 309.889 481.713C310.447 482.139 310.844 482.701 311.078 483.4ZM316.564 491.224C315.618 491.224 314.802 491.015 314.116 490.598C313.434 490.176 312.908 489.588 312.537 488.833C312.171 488.075 311.987 487.193 311.987 486.187C311.987 485.181 312.171 484.295 312.537 483.528C312.908 482.757 313.424 482.156 314.084 481.725C314.749 481.291 315.524 481.074 316.411 481.074C316.922 481.074 317.427 481.159 317.926 481.329C318.424 481.5 318.878 481.777 319.287 482.16C319.696 482.539 320.022 483.042 320.265 483.669C320.508 484.295 320.629 485.066 320.629 485.983V486.622H313.061V485.318H319.095C319.095 484.764 318.985 484.27 318.763 483.835C318.546 483.4 318.235 483.057 317.83 482.806C317.429 482.554 316.956 482.429 316.411 482.429C315.81 482.429 315.29 482.578 314.851 482.876C314.416 483.17 314.082 483.554 313.848 484.027C313.613 484.5 313.496 485.007 313.496 485.548V486.417C313.496 487.159 313.624 487.787 313.879 488.303C314.139 488.814 314.5 489.204 314.96 489.473C315.42 489.737 315.955 489.869 316.564 489.869C316.96 489.869 317.318 489.814 317.638 489.703C317.962 489.588 318.241 489.417 318.475 489.191C318.71 488.961 318.891 488.676 319.019 488.335L320.476 488.744C320.323 489.238 320.065 489.673 319.703 490.048C319.34 490.419 318.893 490.708 318.36 490.917C317.828 491.122 317.229 491.224 316.564 491.224ZM321.844 491.02V481.201H323.302V482.684H323.404C323.583 482.199 323.907 481.804 324.375 481.502C324.844 481.199 325.373 481.048 325.961 481.048C326.072 481.048 326.21 481.05 326.376 481.054C326.542 481.059 326.668 481.065 326.753 481.074V482.608C326.702 482.595 326.585 482.576 326.402 482.55C326.223 482.52 326.033 482.505 325.833 482.505C325.356 482.505 324.929 482.605 324.554 482.806C324.184 483.002 323.89 483.275 323.672 483.624C323.459 483.969 323.353 484.363 323.353 484.806V491.02H321.844ZM335.789 481.201L332.158 491.02H330.624L326.993 481.201H328.63L331.34 489.025H331.442L334.152 481.201H335.789ZM336.7 491.02V481.201H338.208V491.02H336.7ZM337.467 479.565C337.173 479.565 336.919 479.465 336.706 479.265C336.497 479.064 336.393 478.824 336.393 478.542C336.393 478.261 336.497 478.02 336.706 477.82C336.919 477.62 337.173 477.52 337.467 477.52C337.761 477.52 338.012 477.62 338.221 477.82C338.434 478.02 338.541 478.261 338.541 478.542C338.541 478.824 338.434 479.064 338.221 479.265C338.012 479.465 337.761 479.565 337.467 479.565ZM343.88 491.224C342.96 491.224 342.167 491.007 341.502 490.572C340.837 490.137 340.326 489.539 339.968 488.776C339.61 488.013 339.431 487.142 339.431 486.162C339.431 485.164 339.614 484.284 339.981 483.522C340.352 482.755 340.867 482.156 341.528 481.725C342.192 481.291 342.968 481.074 343.854 481.074C344.545 481.074 345.167 481.201 345.721 481.457C346.275 481.713 346.729 482.071 347.082 482.531C347.436 482.991 347.656 483.528 347.741 484.142H346.232C346.117 483.694 345.862 483.298 345.465 482.953C345.073 482.603 344.545 482.429 343.88 482.429C343.292 482.429 342.776 482.582 342.333 482.889C341.894 483.191 341.551 483.62 341.304 484.174C341.061 484.723 340.94 485.369 340.94 486.11C340.94 486.869 341.059 487.529 341.298 488.092C341.541 488.654 341.881 489.091 342.32 489.402C342.764 489.713 343.283 489.869 343.88 489.869C344.272 489.869 344.628 489.801 344.947 489.664C345.267 489.528 345.538 489.332 345.759 489.076C345.981 488.821 346.139 488.514 346.232 488.156H347.741C347.656 488.735 347.445 489.257 347.108 489.722C346.776 490.182 346.335 490.549 345.785 490.821C345.239 491.09 344.604 491.224 343.88 491.224ZM352.983 491.224C352.036 491.224 351.22 491.015 350.534 490.598C349.853 490.176 349.326 489.588 348.956 488.833C348.589 488.075 348.406 487.193 348.406 486.187C348.406 485.181 348.589 484.295 348.956 483.528C349.326 482.757 349.842 482.156 350.502 481.725C351.167 481.291 351.943 481.074 352.829 481.074C353.34 481.074 353.845 481.159 354.344 481.329C354.843 481.5 355.296 481.777 355.706 482.16C356.115 482.539 356.441 483.042 356.684 483.669C356.926 484.295 357.048 485.066 357.048 485.983V486.622H349.48V485.318H355.514C355.514 484.764 355.403 484.27 355.181 483.835C354.964 483.4 354.653 483.057 354.248 482.806C353.848 482.554 353.375 482.429 352.829 482.429C352.228 482.429 351.708 482.578 351.269 482.876C350.835 483.17 350.5 483.554 350.266 484.027C350.032 484.5 349.914 485.007 349.914 485.548V486.417C349.914 487.159 350.042 487.787 350.298 488.303C350.558 488.814 350.918 489.204 351.378 489.473C351.838 489.737 352.373 489.869 352.983 489.869C353.379 489.869 353.737 489.814 354.056 489.703C354.38 489.588 354.659 489.417 354.894 489.191C355.128 488.961 355.309 488.676 355.437 488.335L356.894 488.744C356.741 489.238 356.483 489.673 356.121 490.048C355.759 490.419 355.311 490.708 354.779 490.917C354.246 491.122 353.647 491.224 352.983 491.224ZM360.257 477.929L360.129 487.338H358.646L358.518 477.929H360.257ZM359.388 491.122C359.072 491.122 358.802 491.009 358.576 490.783C358.35 490.557 358.237 490.287 358.237 489.971C358.237 489.656 358.35 489.385 358.576 489.159C358.802 488.934 359.072 488.821 359.388 488.821C359.703 488.821 359.974 488.934 360.199 489.159C360.425 489.385 360.538 489.656 360.538 489.971C360.538 490.18 360.485 490.372 360.378 490.547C360.276 490.721 360.138 490.862 359.963 490.968C359.792 491.071 359.601 491.122 359.388 491.122Z" fill="#8A8A8C"/>
<rect y="546.02" width="503" height="51" rx="6" fill="#00ABFD"/>
<path d="M198.648 577.02V565.383H203.011C203.905 565.383 204.655 565.55 205.261 565.883C205.871 566.217 206.331 566.675 206.642 567.258C206.956 567.838 207.114 568.497 207.114 569.235C207.114 569.982 206.956 570.645 206.642 571.224C206.328 571.804 205.864 572.26 205.25 572.593C204.636 572.923 203.881 573.088 202.983 573.088H200.091V571.355H202.699C203.222 571.355 203.65 571.264 203.983 571.082C204.316 570.9 204.563 570.65 204.722 570.332C204.884 570.014 204.966 569.648 204.966 569.235C204.966 568.823 204.884 568.459 204.722 568.145C204.563 567.83 204.314 567.586 203.977 567.412C203.644 567.234 203.214 567.145 202.688 567.145H200.756V577.02H198.648ZM210.271 565.383V577.02H208.214V565.383H210.271ZM214.257 577.196C213.704 577.196 213.206 577.097 212.763 576.9C212.323 576.699 211.975 576.404 211.717 576.014C211.463 575.624 211.336 575.143 211.336 574.571C211.336 574.078 211.427 573.671 211.609 573.349C211.791 573.027 212.039 572.77 212.354 572.576C212.668 572.383 213.022 572.237 213.416 572.139C213.814 572.037 214.225 571.963 214.649 571.917C215.16 571.864 215.575 571.817 215.893 571.775C216.211 571.73 216.443 571.662 216.586 571.571C216.734 571.476 216.808 571.33 216.808 571.133V571.099C216.808 570.671 216.681 570.34 216.427 570.105C216.174 569.87 215.808 569.752 215.331 569.752C214.827 569.752 214.427 569.862 214.132 570.082C213.84 570.302 213.643 570.561 213.541 570.86L211.621 570.588C211.772 570.057 212.022 569.614 212.371 569.258C212.719 568.898 213.145 568.629 213.649 568.451C214.153 568.27 214.71 568.179 215.319 568.179C215.74 568.179 216.158 568.228 216.575 568.326C216.992 568.425 217.372 568.588 217.717 568.815C218.062 569.038 218.338 569.343 218.547 569.73C218.759 570.116 218.865 570.599 218.865 571.179V577.02H216.888V575.821H216.819C216.694 576.063 216.518 576.29 216.291 576.502C216.068 576.711 215.785 576.879 215.444 577.008C215.107 577.133 214.711 577.196 214.257 577.196ZM214.791 575.684C215.204 575.684 215.562 575.603 215.865 575.44C216.168 575.273 216.401 575.054 216.564 574.781C216.73 574.508 216.814 574.211 216.814 573.889V572.86C216.749 572.913 216.64 572.963 216.484 573.008C216.333 573.054 216.162 573.093 215.973 573.127C215.783 573.162 215.596 573.192 215.41 573.218C215.225 573.245 215.064 573.268 214.927 573.287C214.621 573.328 214.346 573.396 214.104 573.491C213.861 573.586 213.67 573.718 213.53 573.889C213.39 574.056 213.319 574.271 213.319 574.537C213.319 574.915 213.458 575.201 213.734 575.395C214.011 575.588 214.363 575.684 214.791 575.684ZM224.1 577.19C223.229 577.19 222.481 576.999 221.856 576.616C221.234 576.234 220.755 575.705 220.418 575.031C220.085 574.353 219.918 573.573 219.918 572.69C219.918 571.804 220.089 571.021 220.429 570.343C220.77 569.662 221.251 569.131 221.873 568.752C222.498 568.37 223.236 568.179 224.089 568.179C224.797 568.179 225.424 568.309 225.969 568.571C226.518 568.828 226.956 569.194 227.282 569.667C227.607 570.137 227.793 570.686 227.839 571.315H225.873C225.793 570.895 225.604 570.544 225.304 570.264C225.009 569.98 224.613 569.838 224.117 569.838C223.696 569.838 223.327 569.951 223.009 570.179C222.691 570.402 222.443 570.724 222.265 571.145C222.09 571.565 222.003 572.069 222.003 572.656C222.003 573.251 222.09 573.762 222.265 574.19C222.439 574.614 222.683 574.942 222.998 575.173C223.316 575.4 223.689 575.514 224.117 575.514C224.42 575.514 224.691 575.457 224.929 575.343C225.172 575.226 225.375 575.057 225.537 574.838C225.7 574.618 225.812 574.351 225.873 574.037H227.839C227.789 574.654 227.607 575.201 227.293 575.679C226.979 576.152 226.551 576.523 226.009 576.792C225.467 577.057 224.831 577.19 224.1 577.19ZM232.751 577.19C231.876 577.19 231.12 577.008 230.484 576.645C229.851 576.277 229.365 575.758 229.024 575.088C228.683 574.413 228.512 573.62 228.512 572.707C228.512 571.809 228.683 571.021 229.024 570.343C229.369 569.662 229.85 569.131 230.467 568.752C231.084 568.37 231.81 568.179 232.643 568.179C233.181 568.179 233.689 568.266 234.166 568.44C234.647 568.61 235.071 568.876 235.439 569.235C235.81 569.595 236.101 570.054 236.314 570.61C236.526 571.163 236.632 571.823 236.632 572.588V573.218H229.478V571.832H234.66C234.656 571.438 234.571 571.088 234.404 570.781C234.238 570.47 234.005 570.226 233.706 570.048C233.41 569.87 233.065 569.781 232.672 569.781C232.251 569.781 231.882 569.883 231.564 570.088C231.245 570.288 230.997 570.554 230.819 570.883C230.645 571.209 230.556 571.567 230.552 571.957V573.167C230.552 573.675 230.645 574.11 230.831 574.474C231.016 574.834 231.276 575.11 231.609 575.304C231.942 575.493 232.333 575.588 232.779 575.588C233.079 575.588 233.35 575.546 233.592 575.463C233.834 575.376 234.045 575.249 234.223 575.082C234.401 574.915 234.535 574.709 234.626 574.463L236.547 574.679C236.425 575.186 236.194 575.629 235.853 576.008C235.516 576.383 235.084 576.675 234.558 576.883C234.031 577.088 233.429 577.19 232.751 577.19ZM242.646 577.02H240.396L244.492 565.383H247.095L251.197 577.02H248.947L245.839 567.77H245.748L242.646 577.02ZM242.72 572.457H248.856V574.15H242.72V572.457ZM254.056 571.906V577.02H251.999V568.292H253.965V569.775H254.067C254.268 569.287 254.588 568.898 255.027 568.61C255.47 568.323 256.018 568.179 256.669 568.179C257.271 568.179 257.796 568.307 258.243 568.565C258.694 568.823 259.042 569.196 259.288 569.684C259.538 570.173 259.662 570.766 259.658 571.463V577.02H257.601V571.781C257.601 571.198 257.449 570.741 257.146 570.412C256.847 570.082 256.432 569.917 255.902 569.917C255.542 569.917 255.222 569.997 254.942 570.156C254.665 570.311 254.448 570.537 254.288 570.832C254.133 571.127 254.056 571.485 254.056 571.906ZM274.926 571.201C274.926 572.455 274.691 573.529 274.222 574.423C273.756 575.313 273.119 575.995 272.312 576.468C271.509 576.942 270.598 577.179 269.579 577.179C268.561 577.179 267.648 576.942 266.841 576.468C266.038 575.991 265.401 575.307 264.932 574.417C264.466 573.523 264.233 572.451 264.233 571.201C264.233 569.948 264.466 568.876 264.932 567.985C265.401 567.092 266.038 566.408 266.841 565.934C267.648 565.461 268.561 565.224 269.579 565.224C270.598 565.224 271.509 565.461 272.312 565.934C273.119 566.408 273.756 567.092 274.222 567.985C274.691 568.876 274.926 569.948 274.926 571.201ZM272.807 571.201C272.807 570.319 272.669 569.574 272.392 568.968C272.119 568.359 271.74 567.898 271.256 567.588C270.771 567.273 270.212 567.116 269.579 567.116C268.947 567.116 268.388 567.273 267.903 567.588C267.419 567.898 267.038 568.359 266.761 568.968C266.489 569.574 266.352 570.319 266.352 571.201C266.352 572.084 266.489 572.83 266.761 573.44C267.038 574.046 267.419 574.506 267.903 574.821C268.388 575.131 268.947 575.287 269.579 575.287C270.212 575.287 270.771 575.131 271.256 574.821C271.74 574.506 272.119 574.046 272.392 573.44C272.669 572.83 272.807 572.084 272.807 571.201ZM276.188 577.02V568.292H278.182V569.747H278.273C278.432 569.243 278.705 568.855 279.091 568.582C279.482 568.306 279.927 568.167 280.427 568.167C280.54 568.167 280.667 568.173 280.807 568.184C280.951 568.192 281.071 568.205 281.165 568.224V570.116C281.078 570.086 280.94 570.059 280.751 570.037C280.565 570.01 280.385 569.997 280.211 569.997C279.836 569.997 279.499 570.078 279.199 570.241C278.904 570.4 278.671 570.622 278.501 570.906C278.33 571.19 278.245 571.518 278.245 571.889V577.02H276.188ZM284.771 577.173C284.085 577.173 283.472 576.997 282.93 576.645C282.389 576.292 281.96 575.781 281.646 575.11C281.332 574.44 281.174 573.626 281.174 572.667C281.174 571.698 281.334 570.879 281.652 570.213C281.974 569.542 282.407 569.037 282.953 568.696C283.498 568.351 284.106 568.179 284.777 568.179C285.288 568.179 285.709 568.266 286.038 568.44C286.368 568.61 286.629 568.817 286.822 569.059C287.015 569.298 287.165 569.523 287.271 569.735H287.356V565.383H289.419V577.02H287.396V575.645H287.271C287.165 575.857 287.012 576.082 286.811 576.321C286.61 576.556 286.345 576.756 286.015 576.923C285.686 577.09 285.271 577.173 284.771 577.173ZM285.345 575.485C285.781 575.485 286.152 575.368 286.459 575.133C286.765 574.895 286.998 574.563 287.157 574.139C287.317 573.715 287.396 573.22 287.396 572.656C287.396 572.092 287.317 571.601 287.157 571.184C287.002 570.768 286.771 570.444 286.464 570.213C286.161 569.982 285.788 569.866 285.345 569.866C284.887 569.866 284.504 569.985 284.197 570.224C283.89 570.463 283.659 570.792 283.504 571.213C283.349 571.633 283.271 572.114 283.271 572.656C283.271 573.201 283.349 573.688 283.504 574.116C283.663 574.54 283.896 574.876 284.203 575.122C284.514 575.364 284.894 575.485 285.345 575.485ZM294.834 577.19C293.959 577.19 293.204 577.008 292.567 576.645C291.935 576.277 291.448 575.758 291.107 575.088C290.766 574.413 290.596 573.62 290.596 572.707C290.596 571.809 290.766 571.021 291.107 570.343C291.452 569.662 291.933 569.131 292.55 568.752C293.168 568.37 293.893 568.179 294.726 568.179C295.264 568.179 295.772 568.266 296.249 568.44C296.73 568.61 297.154 568.876 297.522 569.235C297.893 569.595 298.185 570.054 298.397 570.61C298.609 571.163 298.715 571.823 298.715 572.588V573.218H291.561V571.832H296.743C296.74 571.438 296.654 571.088 296.488 570.781C296.321 570.47 296.088 570.226 295.789 570.048C295.493 569.87 295.149 569.781 294.755 569.781C294.334 569.781 293.965 569.883 293.647 570.088C293.329 570.288 293.08 570.554 292.902 570.883C292.728 571.209 292.639 571.567 292.635 571.957V573.167C292.635 573.675 292.728 574.11 292.914 574.474C293.099 574.834 293.359 575.11 293.692 575.304C294.025 575.493 294.416 575.588 294.863 575.588C295.162 575.588 295.433 575.546 295.675 575.463C295.918 575.376 296.128 575.249 296.306 575.082C296.484 574.915 296.618 574.709 296.709 574.463L298.63 574.679C298.508 575.186 298.277 575.629 297.936 576.008C297.599 576.383 297.168 576.675 296.641 576.883C296.115 577.088 295.512 577.19 294.834 577.19ZM299.815 577.02V568.292H301.809V569.747H301.9C302.059 569.243 302.332 568.855 302.718 568.582C303.109 568.306 303.554 568.167 304.054 568.167C304.167 568.167 304.294 568.173 304.434 568.184C304.578 568.192 304.698 568.205 304.792 568.224V570.116C304.705 570.086 304.567 570.059 304.377 570.037C304.192 570.01 304.012 569.997 303.838 569.997C303.463 569.997 303.126 570.078 302.826 570.241C302.531 570.4 302.298 570.622 302.127 570.906C301.957 571.19 301.872 571.518 301.872 571.889V577.02H299.815Z" fill="white"/>
</svg>
