<svg width="26" height="26" viewBox="0 0 26 26" fill="none" xmlns="http://www.w3.org/2000/svg">
<path d="M5.98375 18.6698H19.2137V12.0841C19.2137 8.41466 16.2521 5.4398 12.5988 5.4398C8.94538 5.4398 5.98375 8.41466 5.98375 12.0841V18.6698ZM12.5988 3.5498C17.2954 3.5498 21.1038 7.37044 21.1038 12.0841V20.5598H4.09375V12.0841C4.09375 7.37044 7.9021 3.5498 12.5988 3.5498ZM10.2362 21.5048H14.9613C14.9613 22.1314 14.7123 22.7323 14.2693 23.1753C13.8262 23.6184 13.2253 23.8673 12.5988 23.8673C11.9722 23.8673 11.3713 23.6184 10.9282 23.1753C10.4852 22.7323 10.2362 22.1314 10.2362 21.5048Z" fill="#1D2939"/>
</svg>
