<svg width="59" height="54" viewBox="0 0 59 54" fill="none" xmlns="http://www.w3.org/2000/svg">
<path d="M31.9254 2.07918L58.6002 48.8144C58.846 49.245 58.9754 49.7334 58.9754 50.2306C58.9754 50.7278 58.846 51.2163 58.6003 51.6468C58.3545 52.0774 58.001 52.435 57.5753 52.6836C57.1497 52.9322 56.6668 53.0631 56.1752 53.0631H2.82554C2.334 53.0631 1.85113 52.9322 1.42545 52.6836C0.999776 52.435 0.646292 52.0774 0.400531 51.6468C0.154769 51.2163 0.0253875 50.7278 0.0253906 50.2306C0.0253937 49.7334 0.154781 49.245 0.400549 48.8144L27.0754 2.07918C27.3212 1.64863 27.6747 1.2911 28.1003 1.04252C28.526 0.793949 29.0089 0.663086 29.5004 0.663086C29.9919 0.663086 30.4748 0.793949 30.9004 1.04252C31.3261 1.2911 31.6796 1.64863 31.9254 2.07918V2.07918ZM26.7002 38.9009V44.5658H32.3006V38.9009H26.7002ZM26.7002 19.0738V33.236H32.3006V19.0738H26.7002Z" fill="#F27B2C"/>
</svg>
