<svg xmlns="http://www.w3.org/2000/svg" viewBox="0 0 426.82 98.8"><defs><style>.cls-1{fill:#01161e;}</style></defs><g id="Layer_2" data-name="Layer 2"><g id="Layer_1-2" data-name="Layer 1"><polygon class="cls-1" points="122.66 0 168.81 0 117.72 41.21 141.43 98.8 105.15 98.8 90.61 63.09 46.3 98.8 0 98.8 122.66 0"/><polygon class="cls-1" points="86.1 21.03 37.26 59.42 56.6 0 92.87 0 86.1 21.03"/><path class="cls-1" d="M204.66,45.31,163.87,98.8H127.59L202.83,0H239.1l4,98.8H206.78Z"/><path class="cls-1" d="M307.42,59,294.57,98.8H258.3L271.14,59,244.75,0H281l14.12,31.48L328.73,0h41.92Z"/><path class="cls-1" d="M388.43,45.31,347.64,98.8H311.37L386.6,0h36.27l3.95,98.8H390.55Z"/></g></g></svg>