<svg width="277" height="255" viewBox="0 0 277 255" fill="none" xmlns="http://www.w3.org/2000/svg">
<path opacity="0.4" d="M110.341 5.77188C110.341 5.77188 132.498 -7.21485 148.724 5.77188C148.724 5.77188 166.529 0.325177 172.071 15.4255H107.194C107.194 15.4255 105.591 10.3802 110.341 5.77188Z" fill="#CFDEF9"/>
<path opacity="0.4" d="M214.593 38.2396C214.593 38.2396 236.754 25.2529 252.976 38.2396C252.976 38.2396 270.786 32.793 276.322 47.8933H211.417C211.417 47.8933 209.848 42.848 214.593 38.2396Z" fill="#CFDEF9"/>
<path opacity="0.4" d="M4.22853 73.4152C4.22853 73.4152 26.3852 60.4234 42.6116 73.4152C42.6116 73.4152 60.4214 67.9635 65.9581 83.0689H1.06192C1.06192 83.0689 -0.52138 77.988 4.22853 73.4152Z" fill="#CFDEF9"/>
<path d="M139.407 254.11C193.309 254.11 237.006 207.836 237.006 150.755C237.006 93.6731 193.309 47.3994 139.407 47.3994C85.505 47.3994 41.8086 93.6731 41.8086 150.755C41.8086 207.836 85.505 254.11 139.407 254.11Z" fill="white"/>
<mask id="mask0_582_14727" style="mask-type:luminance" maskUnits="userSpaceOnUse" x="42" y="47" width="196" height="208">
<path d="M139.962 254.11C193.864 254.11 237.56 207.836 237.56 150.755C237.56 93.6731 193.864 47.3994 139.962 47.3994C86.0596 47.3994 42.3633 93.6731 42.3633 150.755C42.3633 207.836 86.0596 254.11 139.962 254.11Z" fill="white"/>
</mask>
<g mask="url(#mask0_582_14727)">
<path opacity="0.4" d="M250.12 63.877H204.204C218.843 77.636 210.835 107.349 199.118 121.377C186.227 136.803 180.623 161.135 192.401 193.775C204.18 226.414 180.632 223.442 141.971 237.684C103.309 251.925 92.6582 229.376 57.3554 233.533C22.0525 237.689 27.6565 196.742 13.0853 154.606C2.05014 122.663 -19.31 120.397 -28.9922 121.169V249.979C-28.9941 250.77 -28.8485 251.554 -28.5637 252.285C-28.279 253.016 -27.8607 253.68 -27.3329 254.239C-26.805 254.799 -26.1781 255.242 -25.488 255.544C-24.7979 255.847 -24.0582 256.002 -23.3115 256H250.12C250.866 256 251.604 255.843 252.292 255.54C252.98 255.237 253.606 254.793 254.132 254.234C254.658 253.675 255.075 253.011 255.359 252.281C255.643 251.551 255.788 250.769 255.786 249.979V69.8775C255.786 68.286 255.189 66.7598 254.127 65.6345C253.064 64.5091 251.623 63.877 250.12 63.877Z" fill="#CFDEF9"/>
</g>
<mask id="mask1_582_14727" style="mask-type:luminance" maskUnits="userSpaceOnUse" x="40" y="46" width="196" height="208">
<path d="M138.313 253.363C192.216 253.363 235.912 207.089 235.912 150.008C235.912 92.926 192.216 46.6523 138.313 46.6523C84.4112 46.6523 40.7148 92.926 40.7148 150.008C40.7148 207.089 84.4112 253.363 138.313 253.363Z" fill="white"/>
</mask>
<g mask="url(#mask1_582_14727)">
<path d="M109.866 205.872C109.866 205.872 95.5496 227.212 82.413 238.39L49.6914 202.788C56.2837 203.453 74.7699 204.378 86.2609 191.564C87.4317 190.255 88.4973 188.844 89.4467 187.347C89.4467 187.347 96.3652 166.998 99.0424 167.359C101.72 167.72 99.2296 176.357 99.1288 176.713C99.4215 176.332 109.099 163.797 111.258 164.59C113.417 165.382 108.062 177.912 107.899 178.308C108.154 177.942 116.603 165.758 118.594 166.622C120.585 167.486 114.386 180.452 114.218 180.803C114.41 180.518 120.902 171.012 123.147 171.977C125.392 172.943 118.052 184.624 117.85 184.944C118.056 184.7 122.758 179.197 124.423 179.904C126.088 180.61 109.866 205.872 109.866 205.872Z" fill="#703932"/>
<path d="M162.848 210.567L171.071 206.975L196.74 106.881L188.516 110.474L162.848 210.567Z" fill="#E3974B"/>
<path d="M121.453 91.2221L129.677 87.6299L196.742 106.881L188.518 110.474L121.453 91.2221Z" fill="#E9BE72"/>
<path d="M188.533 110.466L121.52 91.1978L95.8562 191.295L162.87 210.563L188.533 110.466Z" fill="#E9B14D"/>
<g style="mix-blend-mode:soft-light">
<path d="M106.297 144.795L174.964 164.239" stroke="white" stroke-width="13.7231" stroke-miterlimit="10"/>
</g>
<path d="M123.223 108.939L147.879 116.098" stroke="white" stroke-width="13.7231" stroke-miterlimit="10"/>
<path d="M155.062 116.261L169.845 120.107" stroke="#383138" stroke-width="3.04957" stroke-miterlimit="10"/>
<path d="M153.965 121.087L168.747 124.929" stroke="#383138" stroke-width="3.04957" stroke-miterlimit="10"/>
<path d="M130.856 222.095C130.856 222.095 117.336 242.241 104.511 253.658H88.0783C86.5755 253.658 85.1343 253.026 84.0716 251.9C83.009 250.775 82.412 249.249 82.412 247.657L69.9375 225.235C79.2165 224.829 88.2491 221.952 96.2011 216.872C101.647 213.355 106.469 208.857 110.451 203.581C110.451 203.581 117.374 183.257 120.047 183.593C122.719 183.928 120.239 192.596 120.138 192.952C120.43 192.57 130.108 180.036 132.262 180.829C134.416 181.621 129.071 194.151 128.904 194.547C129.158 194.181 137.607 181.992 139.598 182.861C141.589 183.73 135.39 196.686 135.222 197.037C135.414 196.752 141.906 187.246 144.146 188.211C146.387 189.176 139.041 200.842 138.859 201.162C139.065 200.918 143.767 195.421 145.432 196.127C147.097 196.833 130.856 222.095 130.856 222.095Z" fill="#7D4038"/>
<path d="M131.809 215.566C131.809 215.566 135.047 214.88 136.99 212.137" stroke="black" stroke-width="0.508261" stroke-miterlimit="10"/>
<path d="M108 97.5171H121.093" stroke="black" stroke-width="0.508261" stroke-miterlimit="10"/>
<path d="M102.113 105.758H115.212" stroke="black" stroke-width="0.508261" stroke-miterlimit="10"/>
<path d="M110.086 101.333H123.184" stroke="black" stroke-width="0.508261" stroke-miterlimit="10"/>
</g>
<path d="M212.675 67.8806C212.701 67.2039 212.533 66.5346 212.195 65.96C211.97 65.5836 211.679 65.2574 211.336 64.9997C211.646 64.9273 211.946 64.8129 212.228 64.6593C212.652 64.4271 213.03 64.1115 213.341 63.7295C213.468 64.1231 213.659 64.4896 213.908 64.8117C214.141 65.1122 214.418 65.3712 214.728 65.5789C214.315 65.714 213.934 65.9409 213.61 66.2445C213.153 66.6806 212.828 67.2497 212.675 67.8806Z" stroke="white" stroke-width="0.533674" stroke-miterlimit="10"/>
<path d="M33.4513 101.734C32.8146 101.759 32.1987 101.981 31.6809 102.374C31.3415 102.638 31.0559 102.972 30.8413 103.355C30.7452 103.035 30.6131 102.728 30.4479 102.441C30.1958 102.011 29.8704 101.636 29.4883 101.333C30.1914 101.017 30.7683 100.451 31.1196 99.7324C31.2796 100.158 31.5233 100.542 31.8344 100.86C32.2793 101.316 32.8423 101.62 33.4513 101.734Z" stroke="white" stroke-width="0.533674" stroke-miterlimit="10"/>
<path d="M81.0725 107.964C81.1288 106.486 80.7698 105.023 80.0409 103.762C79.5533 102.933 78.9138 102.216 78.1602 101.653C79.8671 101.24 81.406 100.263 82.555 98.8638C82.8299 99.7285 83.2492 100.534 83.7929 101.242C84.2984 101.903 84.9069 102.468 85.5921 102.913C84.6889 103.215 83.8554 103.713 83.1452 104.377C82.137 105.331 81.4162 106.579 81.0725 107.964Z" fill="white" stroke="#CFDEF9" stroke-width="1.17408" stroke-miterlimit="10"/>
</svg>
