<svg width="294" height="292" viewBox="0 0 294 292" fill="none" xmlns="http://www.w3.org/2000/svg">
<path opacity="0.4" d="M293.414 156.714C293.464 156.061 293.525 155.408 293.605 154.705C294.521 147.673 298.779 95.0815 232.547 28.898C161.373 -42.198 83.5455 37.6682 70.1381 58.554C56.7307 79.4398 52.795 111.507 42.4173 90.41C36.0055 77.3502 52.7245 61.0253 29.0502 67.8466C13.8611 72.2267 -14.3529 110.964 8.76789 177.53C31.8887 244.095 96.8523 294.868 159.279 291.161C239.563 286.399 286.871 228.292 283.067 224.023C279.262 219.753 249.417 232.592 255.99 223.621C262.563 214.65 291.532 181.367 293.414 156.714Z" fill="#C9DEF9" fill-opacity="0.6"/>
<g clip-path="url(#clip0_557_15171)">
<path d="M95.5378 226.701L201.233 247.472C203.878 234.016 208.772 194.538 165.603 148.822C115.467 172.363 97.9439 214.458 95.5378 226.701Z" fill="#FFFCEE"/>
<path d="M85.3139 229.017L209.816 253.484C212.634 239.145 217.425 196.984 165.92 147.195C107.37 171.289 87.8771 215.974 85.3139 229.017Z" fill="#E5DFC6"/>
<path d="M245.998 67.9604L121.496 43.4932C116.977 66.4909 113.713 100.876 165.132 151.249C228.652 125.039 241.164 92.5574 245.998 67.9604Z" fill="#E5DFC6"/>
<path d="M181.995 71.5075C205.241 76.0758 225.007 84.8003 236.956 94.6809C241.266 86.2668 244.309 77.2623 245.988 67.9589L121.486 43.4917C119.346 53.2009 118.718 63.1822 119.623 73.0831C134.441 67.6323 157.288 66.652 181.995 71.5075Z" fill="#C6C0A7"/>
<path d="M241.469 67.0706L126.039 44.3862C121.552 67.2185 118.073 101.39 165.294 150.68C224.623 123.79 236.667 91.5022 241.469 67.0706Z" fill="#F9F1E1"/>
<path d="M210.671 61.0176L156.816 50.4341C152.416 72.8251 147.413 106.009 165.523 148.806C196.998 117.186 205.962 84.9804 210.671 61.0176Z" fill="#FFFCEE"/>
<path d="M242.41 67.2553L120.969 43.3896L118.481 56.0466L239.922 79.9123L242.41 67.2553Z" fill="#C6C0A7"/>
<path d="M165.57 148.816C182.218 141.08 197.385 130.49 210.383 117.526C198.752 111.087 186.164 106.553 173.097 104.099C160.635 101.56 147.859 100.923 135.206 102.208C140.647 115.908 150.002 131.408 165.57 148.816Z" fill="#E8B152"/>
<path d="M165.464 148.796C180.743 137.793 195.825 125.463 203.741 114.331C191.513 104.997 156.619 97.9108 143.211 101.72C146.458 115.074 155.081 132.406 165.464 148.796Z" fill="#F7C96B"/>
<path d="M254.621 64.2714L110.762 36C110.241 38.6474 110.794 41.3931 112.298 43.6331C113.802 45.873 116.135 47.4236 118.782 47.9439L242.65 72.2865C243.962 72.5482 245.314 72.5484 246.626 72.287C247.939 72.0256 249.187 71.5077 250.299 70.7632C251.411 70.0186 252.365 69.062 253.107 67.948C253.849 66.834 254.363 65.5846 254.621 64.2714Z" fill="#00ABFD"/>
<path d="M175.845 48.7897L146.891 43.0996L147.929 53.7001L176.883 59.3901L175.845 48.7897Z" fill="#00ABFD"/>
<path d="M220.897 57.644L143.797 42.4922L149.373 50.4044L215.857 63.4699L220.897 57.644Z" fill="#00ABFD"/>
<path d="M202.694 54.0662L223.541 58.1631L219.423 67.7502L198.576 63.6533L202.694 54.0662Z" fill="#00ABFD"/>
<g style="mix-blend-mode:overlay" opacity="0.6">
<path d="M159.219 71.4419C159.219 71.4419 153.146 109.629 168.532 136.996C168.532 136.996 188.403 116.185 195.563 78.5843L159.219 71.4419Z" fill="#FFFCEE"/>
</g>
<path d="M91.4011 225.888L205.369 248.285C208.014 234.828 212.605 195.291 165.602 148.822C111.882 171.659 93.8072 213.645 91.4011 225.888Z" fill="#F9F1E1"/>
<path d="M113.46 230.223L183.308 243.949C189.724 211.153 183.413 177.143 165.656 148.832C130.273 175.273 115.866 217.98 113.46 230.223Z" fill="#FFFCEE"/>
<path d="M167.016 146.006L162.688 150.397L162.927 167.399L167.016 146.006Z" fill="#F7C96B"/>
<path d="M184.709 214.525C174.947 211.934 165.666 207.789 157.221 202.25C146.43 208.111 134.243 210.915 121.975 210.359C115.588 210.142 109.258 209.071 103.154 207.176C99.7599 213.317 97.1982 219.883 95.5368 226.701L201.232 247.472C203.158 237.63 203.379 227.531 201.888 217.615C196.082 217.088 190.334 216.054 184.709 214.525Z" fill="#F7C96B"/>
<path d="M202.239 220.491C197.521 231.822 174.754 236.914 149.219 231.895C128.4 227.804 111.822 218.159 106.415 208.075C105.312 207.858 104.208 207.498 103.155 207.177C99.76 213.318 97.1983 219.884 95.537 226.702L201.233 247.473C202.951 238.584 203.291 229.483 202.239 220.491Z" fill="#E8B152"/>
<path d="M219.155 256.866C219.676 254.218 219.123 251.473 217.619 249.233C216.115 246.993 213.782 245.442 211.135 244.922L87.3223 220.59C84.6723 220.069 81.9239 220.621 79.6798 222.123C77.4356 223.626 75.8789 225.957 75.3508 228.605L219.155 256.866Z" fill="#00ABFD"/>
<path d="M84.1365 223.773L214.87 249.465C216.25 249.734 217.565 250.265 218.745 251.029C218.103 249.488 217.093 248.129 215.802 247.072C214.512 246.014 212.981 245.29 211.344 244.963L87.3114 220.588C85.3582 220.198 83.3334 220.392 81.4894 221.145C79.6455 221.898 78.064 223.177 76.9421 224.823C79.1503 223.662 81.6889 223.292 84.1365 223.773Z" fill="#00ABFD"/>
<path d="M160.323 174.173L159.012 175.142L159.579 175.91L160.891 174.942L160.323 174.173Z" fill="#F7C96B"/>
<path d="M162.562 160.053L161.404 159.825L160.929 161.221L162.087 161.449L162.562 160.053Z" fill="#F7C96B"/>
<path d="M161.151 168.826L160.315 167.688L158.781 168.79L159.617 169.928L161.151 168.826Z" fill="#F7C96B"/>
<path d="M166.129 163.075L165.229 162.554L164.191 163.754L165.092 164.274L166.129 163.075Z" fill="#F7C96B"/>
<path d="M164.057 184.519L162.795 184.529L162.629 186.1L163.897 186.063L164.057 184.519Z" fill="#F7C96B"/>
<path d="M163.91 199.24L163.235 200.052L164.254 201.427L164.935 200.587L163.91 199.24Z" fill="#F7C96B"/>
<path d="M154.817 195.39L153.792 195.504L153.709 197.091L154.734 196.977L154.817 195.39Z" fill="#F7C96B"/>
<path d="M161.032 192.946L160.714 191.939L159.282 192.373L159.595 193.409L161.032 192.946Z" fill="#F7C96B"/>
<path d="M160 179.941L158.976 180.054L158.893 181.642L159.917 181.528L160 179.941Z" fill="#F7C96B"/>
<path d="M164.231 172.41L163.201 172.551L163.118 174.139L164.148 173.997L164.231 172.41Z" fill="#F7C96B"/>
<path d="M125.768 232.011C125.871 231.487 117.211 229.356 106.456 227.242C95.702 225.129 86.907 223.83 86.804 224.354C86.7011 224.878 95.3281 227.032 106.082 229.145C116.837 231.259 125.659 232.563 125.768 232.011Z" fill="#00ABFD"/>
<path d="M214.522 249.827C214.696 248.944 197.74 244.867 176.617 240.716C155.495 236.565 138.285 233.928 138.111 234.81C137.938 235.693 154.894 239.77 175.989 243.915C197.084 248.061 214.349 250.709 214.522 249.827Z" fill="#00ABFD"/>
<path d="M175.085 223.69L174.899 222.451L173.34 222.517L173.52 223.784L175.085 223.69Z" fill="#E8B152"/>
<path d="M182.283 229.943L182.075 228.671L180.537 228.77L180.723 230.009L182.283 229.943Z" fill="#E8B152"/>
<path d="M188.581 223.391L188.395 222.152L186.836 222.218L187.044 223.49L188.581 223.391Z" fill="#E8B152"/>
<path d="M188.893 228.78L190.054 228.264L189.575 226.766L188.414 227.283L188.893 228.78Z" fill="#E8B152"/>
<path d="M160.516 225.725L159.621 225.176L158.435 226.404L159.335 226.924L160.516 225.725Z" fill="#E8B152"/>
<path d="M162.994 216.186L162.731 215.189L161.134 215.305L161.424 216.307L162.994 216.186Z" fill="#E8B152"/>
<path d="M166.318 221.966L167.27 221.494L166.62 220.135L165.641 220.602L166.318 221.966Z" fill="#E8B152"/>
<path d="M179.049 219.027L178.759 218.025L177.183 218.173L177.445 219.17L179.049 219.027Z" fill="#E8B152"/>
</g>
<defs>
<clipPath id="clip0_557_15171">
<rect width="149" height="195.819" fill="white" transform="translate(110.762 36) rotate(11.1181)"/>
</clipPath>
</defs>
</svg>
