<svg width="26" height="26" viewBox="0 0 26 26" fill="none" xmlns="http://www.w3.org/2000/svg">
<path d="M8.15919 19.6151L3.94922 22.9226V5.44012C3.94922 5.18949 4.04878 4.94912 4.226 4.7719C4.40322 4.59468 4.64359 4.49512 4.89422 4.49512H21.9042C22.1548 4.49512 22.3952 4.59468 22.5724 4.7719C22.7497 4.94912 22.8492 5.18949 22.8492 5.44012V18.6701C22.8492 18.9207 22.7497 19.1611 22.5724 19.3383C22.3952 19.5156 22.1548 19.6151 21.9042 19.6151H8.15919ZM7.50525 17.7251H20.9592V6.38512H5.83922V19.0339L7.50525 17.7251ZM12.4542 11.1101H14.3442V13.0001H12.4542V11.1101ZM8.67422 11.1101H10.5642V13.0001H8.67422V11.1101ZM16.2342 11.1101H18.1242V13.0001H16.2342V11.1101Z" fill="#1D2939"/>
</svg>
