<svg width="567" height="363" viewBox="0 0 567 363" fill="none" xmlns="http://www.w3.org/2000/svg">
<g opacity="0.11">
<path d="M438.66 289.442C371.47 360.365 270.608 383.517 183.753 343.32C153.851 329.482 86.8055 257.257 88.2314 203.225C88.2595 202.2 88.2945 201.165 88.3367 200.12C92.6024 95.0591 157.169 40.5851 189.974 21.9518C235.005 -3.61854 300.583 8.7455 323.371 49.5197C338.186 76.0287 355.983 75.2826 372.222 76.2934C388.461 77.3042 473.857 91.6988 487.924 152.659C500.995 209.283 474.789 251.306 438.66 289.442Z" fill="#C3DDFB"/>
</g>
<path d="M403.625 161.5H280.032C273.341 161.5 266.923 164.158 262.192 168.89C257.46 173.621 254.802 180.039 254.802 186.73C254.802 193.422 257.46 199.839 262.192 204.571C266.923 209.302 273.341 211.961 280.032 211.961H403.625C410.316 211.961 416.734 209.302 421.465 204.571C426.197 199.839 428.855 193.422 428.855 186.73C428.855 180.039 426.197 173.621 421.465 168.89C416.734 164.158 410.316 161.5 403.625 161.5Z" fill="#DCF4FF"/>
<g style="mix-blend-mode:multiply">
<path d="M301.08 186.73C301.087 191.819 299.164 196.722 295.7 200.45L295.557 200.598L295.405 200.758C293.468 202.763 291.137 204.345 288.558 205.405C285.979 206.464 283.209 206.977 280.422 206.912C277.634 206.847 274.891 206.205 272.364 205.026C269.838 203.848 267.583 202.158 265.742 200.065C265.324 199.589 264.929 199.094 264.557 198.58C262.688 196.002 261.456 193.019 260.961 189.874C260.465 186.729 260.721 183.511 261.707 180.484C262.693 177.456 264.382 174.705 266.634 172.455C268.887 170.205 271.64 168.52 274.669 167.537C277.697 166.554 280.915 166.302 284.06 166.801C287.204 167.3 290.186 168.536 292.762 170.407C295.338 172.279 297.434 174.734 298.88 177.571C300.325 180.407 301.079 183.546 301.08 186.73Z" fill="#CDECE7"/>
</g>
<path d="M276.81 196.14L276.4 196.936L276.064 197.575L274.386 200.79L274.21 201.126L272.221 204.948C269.763 203.771 267.566 202.11 265.763 200.064C265.345 199.589 264.95 199.094 264.578 198.58C264.823 198.338 265.099 198.13 265.398 197.961C268.379 196.272 274.009 196.124 276.059 196.128C276.523 196.128 276.81 196.14 276.81 196.14Z" fill="#7FCFFC"/>
<path d="M265.755 200.064C266.706 198.686 267.879 197.735 269.326 197.534C270.913 197.317 273.427 197.124 276.023 196.96L276.392 196.935C280.082 196.714 283.772 196.566 284.933 196.525H285.314L285.404 196.55C285.724 196.632 286.778 196.894 286.36 196.702C290.518 197.436 293.474 198.932 295.57 200.618L295.418 200.778C293.481 202.783 291.15 204.365 288.571 205.425C285.992 206.484 283.222 206.997 280.434 206.932C277.647 206.867 274.904 206.225 272.377 205.046C269.851 203.868 267.596 202.178 265.755 200.085V200.064Z" fill="#00AAFC"/>
<path d="M281.2 204.546C281.369 204.567 281.533 204.579 281.705 204.592C281.728 204.593 281.751 204.59 281.773 204.583C281.795 204.576 281.816 204.564 281.833 204.549C281.851 204.533 281.865 204.515 281.875 204.494C281.886 204.473 281.892 204.451 281.893 204.428C281.896 204.404 281.893 204.381 281.886 204.358C281.879 204.336 281.867 204.316 281.852 204.298C281.837 204.28 281.818 204.266 281.797 204.256C281.776 204.246 281.753 204.24 281.729 204.239C274.402 203.726 273.045 198.359 273.032 198.305C273.028 198.283 273.02 198.261 273.007 198.241C272.995 198.221 272.979 198.204 272.96 198.191C272.941 198.178 272.919 198.168 272.896 198.163C272.874 198.158 272.85 198.158 272.827 198.162C272.805 198.165 272.783 198.173 272.764 198.185C272.745 198.197 272.728 198.212 272.715 198.231C272.701 198.249 272.692 198.27 272.686 198.292C272.681 198.314 272.68 198.336 272.684 198.359C272.692 198.416 274.041 203.808 281.2 204.546Z" fill="#0D060E"/>
<path d="M285.371 196.313C290.181 196.986 293.478 198.659 295.713 200.45L295.569 200.598L295.418 200.758C293.257 199.032 290.087 197.42 285.437 196.752L285.113 196.707C285.067 196.701 285.024 196.679 284.991 196.646C284.958 196.612 284.938 196.569 284.933 196.522C284.929 196.505 284.929 196.486 284.933 196.469C284.936 196.441 284.944 196.414 284.958 196.389C284.972 196.365 284.99 196.343 285.012 196.326C285.035 196.309 285.06 196.296 285.087 196.289C285.114 196.282 285.143 196.28 285.171 196.284L285.371 196.313Z" fill="#0D060E"/>
<path d="M287.065 180.551L287.303 189.81C287.303 189.81 287.504 192.782 284.913 193.221L285.499 197.178C285.608 197.894 285.462 198.626 285.088 199.246C284.713 199.867 284.133 200.336 283.449 200.573C282.656 200.847 281.826 200.997 280.988 201.016C278.011 201.094 276.343 198.904 276.068 197.793C275.793 196.682 276.396 191.331 276.396 191.331L276.236 188.715L276.31 178.554L287.065 180.551Z" fill="#973830"/>
<path d="M278.806 190.851C278.806 190.851 279.109 195.824 285.366 196.14L284.911 193.204C284.911 193.204 280.897 194.135 278.806 190.851Z" fill="#89302A"/>
<path d="M280.004 185.594C279.972 185.594 279.942 185.582 279.918 185.561C279.906 185.55 279.897 185.536 279.891 185.521C279.884 185.506 279.881 185.49 279.881 185.473C279.881 185.457 279.884 185.441 279.891 185.425C279.897 185.41 279.906 185.397 279.918 185.385C279.918 185.385 281.595 183.577 283.198 184.795C283.225 184.814 283.242 184.843 283.246 184.876C283.251 184.908 283.243 184.941 283.223 184.967C283.202 184.992 283.172 185.009 283.14 185.014C283.107 185.018 283.074 185.01 283.047 184.991C281.636 183.913 280.176 185.483 280.115 185.553C280.1 185.567 280.083 185.578 280.064 185.585C280.045 185.592 280.024 185.595 280.004 185.594Z" fill="#2D0F28"/>
<path d="M275.698 184.4L278.388 184.888L278.884 185.376C278.884 185.376 278.536 180.898 278.007 180.046C277.478 179.193 275.698 184.4 275.698 184.4Z" fill="#2F0E1B"/>
<path d="M285.089 184.716C285.071 184.716 285.053 184.713 285.037 184.706C285.02 184.699 285.006 184.688 284.994 184.675C284.982 184.663 284.973 184.65 284.967 184.635C284.96 184.619 284.957 184.603 284.957 184.587C284.957 184.57 284.96 184.554 284.967 184.539C284.973 184.524 284.982 184.51 284.994 184.499C285.043 184.453 286.2 183.412 286.962 184.035C286.985 184.058 286.998 184.089 286.998 184.121C286.998 184.153 286.985 184.184 286.962 184.207C286.942 184.233 286.911 184.25 286.879 184.253C286.846 184.257 286.812 184.248 286.786 184.228C286.188 183.74 285.146 184.675 285.146 184.683C285.13 184.699 285.11 184.71 285.089 184.716Z" fill="#2D0F28"/>
<path d="M282.525 186.029C282.528 186.103 282.508 186.176 282.469 186.239C282.43 186.301 282.373 186.351 282.306 186.381C282.238 186.412 282.163 186.421 282.09 186.409C282.017 186.397 281.95 186.363 281.896 186.312C281.842 186.261 281.805 186.196 281.789 186.124C281.772 186.051 281.778 185.976 281.804 185.907C281.831 185.838 281.877 185.778 281.938 185.736C281.998 185.693 282.07 185.67 282.144 185.668C282.242 185.666 282.338 185.703 282.409 185.77C282.48 185.838 282.522 185.931 282.525 186.029Z" fill="#010103"/>
<path d="M286.47 185.553C286.472 185.627 286.453 185.7 286.413 185.763C286.374 185.826 286.317 185.875 286.25 185.906C286.182 185.936 286.108 185.946 286.035 185.933C285.962 185.921 285.894 185.887 285.84 185.837C285.787 185.786 285.749 185.72 285.733 185.648C285.717 185.576 285.722 185.5 285.749 185.431C285.775 185.362 285.822 185.303 285.882 185.26C285.943 185.218 286.014 185.194 286.088 185.192C286.187 185.19 286.282 185.227 286.353 185.294C286.425 185.362 286.467 185.455 286.47 185.553Z" fill="#010103"/>
<path d="M279.45 185.98C279.462 186.422 279.343 186.857 279.107 187.231C278.872 187.606 278.53 187.901 278.127 188.081C277.723 188.262 277.275 188.318 276.839 188.243C276.403 188.169 275.999 187.966 275.679 187.662C275.358 187.358 275.134 186.966 275.037 186.534C274.939 186.103 274.971 185.653 275.13 185.24C275.288 184.827 275.565 184.471 275.926 184.216C276.287 183.96 276.716 183.818 277.158 183.807C277.451 183.798 277.743 183.848 278.017 183.953C278.291 184.058 278.542 184.216 278.755 184.418C278.968 184.619 279.139 184.861 279.258 185.129C279.377 185.397 279.443 185.686 279.45 185.98Z" fill="#973830"/>
<path d="M276.858 187.287C276.656 187.287 276.46 187.22 276.298 187.098C276.137 186.976 276.02 186.805 275.965 186.61C275.896 186.427 275.891 186.227 275.95 186.04C276.008 185.854 276.128 185.692 276.289 185.581C276.462 185.464 276.666 185.402 276.875 185.402C277.084 185.402 277.288 185.464 277.461 185.581C277.377 185.352 277.212 185.161 276.998 185.044C276.683 184.912 276.331 184.897 276.006 185.003C275.998 185.006 275.99 185.008 275.982 185.008C275.974 185.008 275.966 185.006 275.958 185.002C275.951 184.999 275.944 184.994 275.939 184.987C275.934 184.981 275.93 184.974 275.928 184.966C275.922 184.951 275.923 184.934 275.93 184.92C275.937 184.905 275.949 184.894 275.965 184.888C276.321 184.767 276.71 184.783 277.055 184.933C277.204 185.018 277.333 185.133 277.435 185.271C277.537 185.408 277.608 185.566 277.646 185.733L277.703 185.946L277.543 185.794C277.387 185.645 277.186 185.553 276.971 185.531C276.756 185.509 276.541 185.56 276.358 185.675C276.22 185.771 276.118 185.911 276.069 186.071C276.019 186.232 276.024 186.404 276.083 186.561C276.13 186.73 276.23 186.879 276.369 186.985C276.509 187.091 276.679 187.148 276.854 187.148C276.864 187.145 276.874 187.145 276.884 187.147C276.894 187.149 276.903 187.153 276.911 187.159C276.919 187.165 276.925 187.173 276.93 187.182C276.934 187.191 276.936 187.201 276.936 187.211C276.936 187.221 276.934 187.231 276.93 187.24C276.925 187.249 276.919 187.257 276.911 187.263C276.903 187.269 276.894 187.273 276.884 187.275C276.874 187.277 276.864 187.277 276.854 187.275L276.858 187.287Z" fill="#FB554B"/>
<path d="M283.903 188.505C283.889 188.504 283.876 188.498 283.865 188.489C283.855 188.479 283.848 188.467 283.845 188.453C283.842 188.439 283.844 188.425 283.85 188.412C283.856 188.4 283.866 188.389 283.878 188.382L285.108 187.94L284.637 185.024C284.635 185.008 284.64 184.992 284.65 184.979C284.66 184.966 284.674 184.957 284.69 184.954C284.698 184.953 284.707 184.953 284.715 184.954C284.723 184.956 284.731 184.96 284.737 184.965C284.744 184.97 284.749 184.976 284.753 184.984C284.757 184.991 284.759 184.999 284.76 185.008L285.248 188.022L283.915 188.501L283.903 188.505Z" fill="#FB554B"/>
<path d="M282.968 189.736C283.009 189.736 285.428 189.608 285.428 189.608C285.428 189.608 285.149 190.617 284.251 190.662C283.353 190.707 282.968 189.736 282.968 189.736Z" fill="#FBFDFA"/>
<path d="M275.698 184.4C275.698 184.4 274.836 180.082 276.116 178.442C277.395 176.802 284.969 173.751 285.916 174.539C286.863 175.326 285.965 176.335 285.965 176.335C285.965 176.335 289.004 175.269 289.77 177.975C290.537 180.681 283.968 182.006 280.003 180.845C278.22 181.531 276.708 182.779 275.698 184.4Z" fill="#2F0E1B"/>
<g opacity="0.13">
<g style="mix-blend-mode:multiply">
<path d="M415.39 175.491H307.929V177.541H415.39V175.491Z" fill="#223749"/>
</g>
<g style="mix-blend-mode:multiply">
<path d="M415.39 182.113H307.929V184.164H415.39V182.113Z" fill="#223749"/>
</g>
<g style="mix-blend-mode:multiply">
<path d="M415.39 188.735H307.929V190.786H415.39V188.735Z" fill="#223749"/>
</g>
<g style="mix-blend-mode:multiply">
<path d="M415.39 195.361H307.929V197.412H415.39V195.361Z" fill="#223749"/>
</g>
</g>
<path d="M280.938 84.2588H157.346C150.654 84.2588 144.237 86.917 139.505 91.6486C134.773 96.3802 132.115 102.798 132.115 109.489C132.115 116.181 134.773 122.598 139.505 127.33C144.237 132.061 150.654 134.719 157.346 134.719H280.938C287.63 134.719 294.047 132.061 298.779 127.33C303.51 122.598 306.168 116.181 306.168 109.489C306.168 102.798 303.51 96.3802 298.779 91.6486C294.047 86.917 287.63 84.2588 280.938 84.2588Z" fill="#DCF4FF"/>
<g opacity="0.13">
<g style="mix-blend-mode:multiply">
<path d="M292.703 98.251H185.241V100.301H292.703V98.251Z" fill="#223749"/>
</g>
<g style="mix-blend-mode:multiply">
<path d="M292.703 104.871H185.241V106.921H292.703V104.871Z" fill="#223749"/>
</g>
<path d="M292.703 111.499H185.241V113.549H292.703V111.499Z" fill="#223749"/>
<path d="M292.703 118.121H185.241V120.171H292.703V118.121Z" fill="#223749"/>
</g>
<path d="M138.324 110.116C138.32 112.743 138.831 115.346 139.829 117.776C139.849 117.833 139.874 117.887 139.895 117.944C139.897 117.955 139.897 117.966 139.895 117.977C140.808 120.137 142.092 122.121 143.687 123.84L143.827 123.988L143.983 124.148C146.924 127.189 150.746 129.23 154.91 129.982C159.073 130.734 163.368 130.159 167.187 128.339C167.679 128.101 168.159 127.847 168.631 127.572L168.869 127.433C169.082 127.305 169.279 127.174 169.5 127.022L169.717 126.883C171.167 125.908 172.486 124.75 173.641 123.439C174.06 122.963 174.456 122.47 174.831 121.958C176.702 119.38 177.937 116.396 178.434 113.25C178.931 110.103 178.676 106.884 177.691 103.855C176.705 100.826 175.017 98.0725 172.764 95.8208C170.51 93.5691 167.756 91.8826 164.726 90.8992C161.696 89.9157 158.477 89.6633 155.331 90.1625C152.185 90.6617 149.201 91.8984 146.625 93.7714C144.048 95.6445 141.951 98.1007 140.506 100.939C139.06 103.778 138.307 106.918 138.308 110.104L138.324 110.116Z" fill="#76C68B"/>
<path d="M164.907 100.816C164.907 100.816 166.453 97.2652 162.385 94.3252C158.318 91.3851 157.69 96.4287 156.124 96.9044C154.557 97.38 151.72 96.8388 150.695 99.7747C149.67 102.711 150.285 104.859 148.645 105.335C147.004 105.811 141.62 110.055 143.076 115.541C144.532 121.028 149.887 120.667 149.887 120.667C149.887 120.667 170.922 121.319 172.28 115.836C173.637 110.354 171.574 108.008 168.889 106.192C167.216 105.081 163.911 104.179 164.907 100.816Z" fill="#010103"/>
<path d="M162.751 102.556C162.751 102.556 164.608 110.014 163.497 111.815C163.268 112.143 162.966 112.415 162.616 112.61C162.266 112.805 161.876 112.917 161.475 112.938L161.935 117.674L155.251 118.318L153.75 102.781L162.751 102.556Z" fill="#973830"/>
<path d="M161.143 108.705C161.129 108.708 161.114 108.705 161.102 108.698C161.09 108.69 161.081 108.678 161.077 108.664C161.075 108.657 161.074 108.648 161.074 108.64C161.075 108.632 161.077 108.624 161.081 108.617C161.085 108.61 161.09 108.603 161.097 108.598C161.103 108.593 161.11 108.589 161.118 108.587C161.499 108.468 161.7 107.959 161.758 107.795C161.505 107.711 161.274 107.573 161.08 107.391C160.887 107.209 160.734 106.988 160.634 106.741C160.493 106.236 160.556 105.695 160.811 105.236C160.819 105.223 160.832 105.214 160.847 105.21C160.863 105.206 160.879 105.208 160.893 105.216C160.907 105.224 160.917 105.237 160.921 105.252C160.926 105.267 160.925 105.284 160.917 105.298C160.684 105.728 160.625 106.232 160.753 106.704C160.852 106.942 161.002 107.154 161.193 107.326C161.384 107.498 161.61 107.626 161.856 107.701H161.905V107.754C161.905 107.787 161.688 108.521 161.167 108.685L161.143 108.705Z" fill="#FB554B"/>
<path d="M161.664 114.844L161.479 112.938C161.479 112.938 158.244 113.061 156.148 112.007C156.144 112.015 159.072 114.324 161.664 114.844Z" fill="#89302A"/>
<path d="M157.101 105.864C157.085 105.867 157.07 105.866 157.055 105.861C157.04 105.857 157.026 105.85 157.014 105.84C156.989 105.82 156.972 105.79 156.969 105.758C156.965 105.726 156.974 105.693 156.994 105.668C156.994 105.668 158.413 103.904 159.95 104.917C159.964 104.926 159.976 104.937 159.985 104.95C159.995 104.963 160.001 104.978 160.005 104.993C160.008 105.009 160.008 105.025 160.005 105.041C160.002 105.057 159.996 105.072 159.987 105.085C159.969 105.113 159.941 105.132 159.909 105.139C159.876 105.145 159.843 105.14 159.815 105.122C158.466 104.233 157.236 105.754 157.187 105.819C157.176 105.833 157.163 105.844 157.149 105.852C157.134 105.859 157.117 105.864 157.101 105.864Z" fill="#2F0E1B"/>
<path d="M161.307 105.183C161.289 105.185 161.271 105.183 161.254 105.177C161.237 105.171 161.222 105.162 161.208 105.15C161.187 105.127 161.175 105.096 161.175 105.064C161.175 105.032 161.187 105.002 161.208 104.978C161.254 104.933 162.246 103.9 162.992 104.425C163.018 104.444 163.035 104.472 163.04 104.503C163.046 104.534 163.039 104.567 163.021 104.593C163.012 104.606 163 104.618 162.986 104.627C162.973 104.636 162.958 104.642 162.942 104.645C162.926 104.648 162.909 104.648 162.893 104.645C162.877 104.641 162.862 104.635 162.849 104.626C162.279 104.216 161.397 105.138 161.389 105.146C161.366 105.167 161.337 105.18 161.307 105.183Z" fill="#2F0E1B"/>
<path d="M162.791 105.992C162.798 106.038 162.795 106.084 162.784 106.129C162.772 106.174 162.751 106.215 162.723 106.252C162.694 106.288 162.659 106.319 162.618 106.341C162.578 106.363 162.533 106.377 162.487 106.381C162.441 106.386 162.395 106.381 162.351 106.367C162.307 106.353 162.266 106.33 162.232 106.3C162.197 106.269 162.168 106.232 162.148 106.191C162.128 106.149 162.117 106.104 162.115 106.058C162.111 105.971 162.14 105.885 162.198 105.819C162.255 105.754 162.335 105.712 162.422 105.704C162.509 105.695 162.595 105.721 162.664 105.774C162.733 105.828 162.778 105.906 162.791 105.992Z" fill="#010103"/>
<path d="M159.413 106.274C159.419 106.341 159.405 106.408 159.373 106.467C159.341 106.527 159.292 106.575 159.232 106.606C159.173 106.638 159.105 106.651 159.038 106.644C158.971 106.637 158.908 106.61 158.856 106.567C158.804 106.524 158.766 106.466 158.747 106.401C158.728 106.337 158.729 106.268 158.749 106.204C158.769 106.139 158.808 106.082 158.86 106.04C158.913 105.998 158.976 105.972 159.044 105.966C159.133 105.958 159.222 105.986 159.292 106.044C159.361 106.101 159.404 106.184 159.413 106.274Z" fill="#010103"/>
<path d="M155.616 108.153C155.652 108.529 155.576 108.907 155.397 109.24C155.218 109.573 154.945 109.846 154.611 110.023C154.278 110.201 153.899 110.276 153.523 110.238C153.147 110.2 152.791 110.052 152.499 109.812C152.207 109.572 151.993 109.25 151.884 108.889C151.775 108.527 151.776 108.141 151.886 107.78C151.996 107.418 152.211 107.097 152.503 106.858C152.796 106.619 153.152 106.471 153.528 106.435C153.778 106.41 154.03 106.436 154.271 106.509C154.511 106.582 154.734 106.702 154.928 106.861C155.122 107.021 155.282 107.217 155.4 107.439C155.518 107.66 155.591 107.903 155.616 108.153Z" fill="#89302A"/>
<path d="M153.684 109.522C153.508 109.533 153.334 109.488 153.186 109.393C153.039 109.297 152.925 109.157 152.863 108.993C152.794 108.839 152.778 108.666 152.818 108.502C152.859 108.337 152.952 108.191 153.085 108.087C153.224 107.979 153.392 107.915 153.568 107.902C153.744 107.889 153.919 107.927 154.073 108.013C153.987 107.834 153.842 107.689 153.663 107.603C153.387 107.51 153.087 107.52 152.818 107.631C152.803 107.637 152.786 107.637 152.771 107.631C152.756 107.625 152.743 107.613 152.736 107.599C152.731 107.584 152.731 107.568 152.737 107.553C152.743 107.539 152.755 107.527 152.769 107.521C153.068 107.394 153.403 107.384 153.708 107.492C153.842 107.555 153.961 107.646 154.057 107.758C154.153 107.871 154.224 108.002 154.266 108.144L154.34 108.349L154.167 108.21C154.027 108.094 153.852 108.029 153.67 108.023C153.488 108.018 153.31 108.074 153.163 108.181C153.052 108.27 152.974 108.393 152.941 108.531C152.908 108.669 152.923 108.815 152.982 108.944C153.032 109.086 153.127 109.207 153.254 109.289C153.38 109.37 153.53 109.408 153.679 109.395C153.695 109.393 153.711 109.398 153.723 109.408C153.735 109.418 153.743 109.432 153.745 109.448C153.746 109.464 153.742 109.48 153.732 109.493C153.722 109.506 153.708 109.515 153.692 109.518L153.684 109.522Z" fill="#FB554B"/>
<path d="M162.751 102.554C162.751 102.554 161.889 99.6838 157.941 99.7371C153.992 99.7904 153.75 102.78 153.75 102.78L158.31 103.255L162.459 102.583L162.751 102.554Z" fill="#973830"/>
<path d="M162.512 100.075C162.512 100.075 160.306 102.695 157.091 102.461C157.091 102.461 156.411 106.422 154.106 106.463C151.802 106.504 152.532 101.038 152.532 101.038C152.532 101.038 156.632 98.8857 156.907 98.857C157.182 98.8283 161.688 98.123 161.688 98.123L162.512 100.075Z" fill="#010103"/>
<path d="M161.824 109.493C161.787 109.493 159.503 109.247 159.503 109.247C159.503 109.247 159.716 110.215 160.565 110.305C161.414 110.395 161.824 109.493 161.824 109.493Z" fill="#FBFDFA"/>
<path d="M142.944 116.784C141.872 117.007 140.843 117.399 139.894 117.945C139.896 117.955 139.896 117.967 139.894 117.977C140.808 120.137 142.091 122.122 143.687 123.841L143.826 123.989L143.982 124.149C146.923 127.19 150.745 129.23 154.909 129.982C159.072 130.734 163.367 130.16 167.186 128.339C167.678 128.101 168.158 127.847 168.63 127.573L168.868 127.433C169.081 127.306 169.278 127.175 169.499 127.023L169.716 126.884C171.166 125.908 172.485 124.751 173.641 123.439C174.059 122.964 174.455 122.47 174.83 121.959C175.642 120.839 176.338 119.638 176.905 118.375C175.908 117.711 173.952 117.219 171.717 116.85C169.987 116.567 168.088 116.362 166.342 116.214C164.525 116.058 162.873 115.964 161.749 115.915C160.818 115.87 160.252 115.857 160.252 115.857C160.252 115.857 157.968 115.857 155.004 115.939C153.667 115.976 152.191 116.021 150.723 116.087C149.599 116.136 148.476 116.194 147.443 116.267C145.893 116.374 144.494 116.509 143.465 116.678L143.227 116.719H143.211L143.03 116.751L142.944 116.784Z" fill="#FA2C3C"/>
<path d="M139.828 117.776C139.849 117.834 139.873 117.887 139.894 117.945C139.896 117.955 139.896 117.967 139.894 117.977C140.264 117.782 140.649 117.617 141.046 117.485C141.858 117.23 142.687 117.031 143.527 116.891C144.613 116.698 145.88 116.538 147.32 116.411C147.348 116.407 147.374 116.393 147.392 116.371C147.41 116.349 147.419 116.321 147.418 116.292C147.414 116.266 147.4 116.242 147.378 116.226C147.357 116.209 147.33 116.202 147.303 116.206C145.835 116.337 144.544 116.501 143.441 116.702L143.203 116.743H143.211L142.965 116.792C142.305 116.919 141.653 117.085 141.013 117.288C140.605 117.416 140.208 117.58 139.828 117.776Z" fill="#010103"/>
<path d="M166.359 116.222C166.359 116.222 158.682 123.878 150.728 116.099C150.728 116.115 159.818 115.078 166.359 116.222Z" fill="#973830"/>
<path d="M288.09 138.836C291.215 138.836 293.749 136.302 293.749 133.177C293.749 130.052 291.215 127.519 288.09 127.519C284.965 127.519 282.432 130.052 282.432 133.177C282.432 136.302 284.965 138.836 288.09 138.836Z" fill="white"/>
<path d="M287.039 136.06L284.903 133.092C284.855 133.024 284.835 132.94 284.848 132.858C284.861 132.776 284.906 132.702 284.973 132.653C285.041 132.606 285.125 132.587 285.207 132.601C285.289 132.615 285.362 132.66 285.411 132.727L287.052 135.019L291.177 129.791C291.228 129.725 291.303 129.683 291.385 129.673C291.467 129.663 291.55 129.686 291.616 129.737C291.681 129.789 291.723 129.863 291.733 129.946C291.743 130.028 291.72 130.111 291.669 130.176L287.039 136.06Z" fill="#00AAFC"/>
<path d="M280.938 239.561H157.346C150.654 239.561 144.237 242.219 139.505 246.95C134.773 251.682 132.115 258.099 132.115 264.791C132.115 271.482 134.773 277.9 139.505 282.631C144.237 287.363 150.654 290.021 157.346 290.021H280.938C287.63 290.021 294.047 287.363 298.779 282.631C303.51 277.9 306.168 271.482 306.168 264.791C306.168 258.099 303.51 251.682 298.779 246.95C294.047 242.219 287.63 239.561 280.938 239.561Z" fill="#DCF4FF"/>
<g opacity="0.13">
<g style="mix-blend-mode:multiply">
<path d="M292.703 253.55H185.241V255.6H292.703V253.55Z" fill="#223749"/>
</g>
<g style="mix-blend-mode:multiply">
<path d="M292.703 260.172H185.241V262.222H292.703V260.172Z" fill="#223749"/>
</g>
<path d="M292.703 266.8H185.241V268.85H292.703V266.8Z" fill="#223749"/>
<path d="M292.703 273.422H185.241V275.472H292.703V273.422Z" fill="#223749"/>
</g>
<path d="M138.324 265.418C138.32 268.045 138.831 270.647 139.829 273.078C139.849 273.135 139.874 273.188 139.895 273.246C139.897 273.257 139.897 273.268 139.895 273.279C140.808 275.439 142.092 277.423 143.687 279.142L143.827 279.29L143.983 279.45C146.924 282.491 150.746 284.532 154.91 285.284C159.073 286.035 163.368 285.461 167.187 283.64C167.679 283.403 168.159 283.148 168.631 282.874L168.869 282.734C169.082 282.607 169.279 282.476 169.5 282.324L169.717 282.185C171.167 281.209 172.486 280.052 173.641 278.74C174.06 278.265 174.456 277.771 174.831 277.26C176.702 274.682 177.937 271.698 178.434 268.552C178.931 265.405 178.676 262.186 177.691 259.156C176.705 256.127 175.017 253.374 172.764 251.123C170.51 248.871 167.756 247.184 164.726 246.201C161.696 245.217 158.477 244.965 155.331 245.464C152.185 245.963 149.201 247.2 146.625 249.073C144.048 250.946 141.951 253.402 140.506 256.241C139.06 259.08 138.307 262.22 138.308 265.406L138.324 265.418Z" fill="#76C68B"/>
<path d="M164.907 256.119C164.907 256.119 166.453 252.568 162.385 249.628C158.318 246.688 157.69 251.731 156.124 252.207C154.558 252.683 151.72 252.142 150.695 255.077C149.67 258.013 150.285 260.162 148.645 260.638C147.005 261.113 141.604 265.374 143.06 270.848C144.516 276.322 149.871 275.974 149.871 275.974C149.871 275.974 170.906 276.626 172.264 271.143C173.621 265.661 171.558 263.315 168.872 261.499C167.216 260.383 163.911 259.481 164.907 256.119Z" fill="#010103"/>
<path d="M162.751 257.857C162.751 257.857 164.608 265.316 163.497 267.116C163.268 267.445 162.966 267.717 162.616 267.912C162.266 268.107 161.876 268.219 161.475 268.24L161.935 272.976L155.251 273.62L153.75 258.083L162.751 257.857Z" fill="#973830"/>
<path d="M161.143 264.007C161.129 264.01 161.114 264.007 161.102 263.999C161.09 263.992 161.081 263.98 161.077 263.966C161.075 263.958 161.074 263.95 161.074 263.942C161.075 263.934 161.077 263.926 161.081 263.919C161.085 263.911 161.09 263.905 161.097 263.9C161.103 263.895 161.11 263.891 161.118 263.888C161.499 263.769 161.7 263.261 161.758 263.097C161.505 263.013 161.274 262.875 161.08 262.693C160.887 262.511 160.734 262.289 160.634 262.043C160.493 261.538 160.556 260.997 160.811 260.538C160.819 260.525 160.832 260.515 160.847 260.512C160.863 260.508 160.879 260.51 160.893 260.518C160.907 260.525 160.917 260.538 160.921 260.554C160.926 260.569 160.925 260.585 160.917 260.6C160.684 261.03 160.625 261.534 160.753 262.006C160.852 262.243 161.002 262.456 161.193 262.628C161.384 262.8 161.61 262.928 161.856 263.003H161.905V263.056C161.905 263.089 161.688 263.823 161.167 263.987L161.143 264.007Z" fill="#FB554B"/>
<path d="M161.664 270.146L161.479 268.239C161.479 268.239 158.244 268.362 156.148 267.309C156.144 267.309 159.072 269.625 161.664 270.146Z" fill="#89302A"/>
<path d="M157.101 261.157C157.085 261.16 157.07 261.158 157.055 261.154C157.04 261.15 157.026 261.143 157.014 261.133C156.989 261.113 156.972 261.083 156.969 261.051C156.965 261.019 156.974 260.986 156.994 260.961C156.994 260.961 158.413 259.197 159.95 260.21C159.964 260.219 159.976 260.23 159.985 260.243C159.995 260.256 160.001 260.271 160.005 260.286C160.008 260.302 160.008 260.318 160.005 260.334C160.002 260.35 159.996 260.365 159.987 260.378C159.969 260.406 159.941 260.425 159.909 260.431C159.876 260.438 159.843 260.433 159.815 260.415C158.466 259.525 157.236 261.047 157.187 261.112C157.176 261.126 157.163 261.137 157.149 261.144C157.134 261.152 157.117 261.157 157.101 261.157Z" fill="#2F0E1B"/>
<path d="M161.307 260.485C161.289 260.487 161.271 260.484 161.254 260.479C161.237 260.473 161.222 260.464 161.208 260.452C161.187 260.429 161.175 260.398 161.175 260.366C161.175 260.334 161.187 260.303 161.208 260.28C161.254 260.235 162.246 259.202 162.992 259.726C163.018 259.745 163.035 259.773 163.04 259.805C163.046 259.836 163.039 259.868 163.021 259.895C163.012 259.908 163 259.92 162.986 259.929C162.973 259.938 162.958 259.944 162.942 259.947C162.926 259.95 162.909 259.95 162.893 259.947C162.877 259.943 162.862 259.937 162.849 259.927C162.279 259.517 161.397 260.44 161.389 260.448C161.366 260.469 161.337 260.482 161.307 260.485Z" fill="#2F0E1B"/>
<path d="M162.791 261.294C162.798 261.339 162.795 261.386 162.784 261.431C162.772 261.475 162.751 261.517 162.723 261.554C162.694 261.59 162.659 261.62 162.618 261.643C162.578 261.665 162.533 261.679 162.487 261.683C162.441 261.687 162.395 261.682 162.351 261.668C162.307 261.654 162.266 261.632 162.232 261.601C162.197 261.571 162.168 261.534 162.148 261.492C162.128 261.451 162.117 261.406 162.115 261.359C162.111 261.272 162.14 261.187 162.198 261.121C162.255 261.055 162.335 261.014 162.422 261.005C162.509 260.997 162.595 261.022 162.664 261.076C162.733 261.13 162.778 261.208 162.791 261.294Z" fill="#010103"/>
<path d="M159.413 261.569C159.419 261.636 159.405 261.703 159.373 261.762C159.341 261.822 159.292 261.87 159.232 261.901C159.173 261.933 159.105 261.946 159.038 261.939C158.971 261.931 158.908 261.905 158.856 261.862C158.804 261.818 158.766 261.761 158.747 261.696C158.728 261.632 158.729 261.563 158.749 261.499C158.769 261.434 158.808 261.377 158.86 261.335C158.913 261.293 158.976 261.267 159.044 261.261C159.133 261.253 159.222 261.281 159.292 261.339C159.361 261.396 159.404 261.479 159.413 261.569Z" fill="#010103"/>
<path d="M155.616 263.454C155.652 263.83 155.576 264.208 155.397 264.541C155.218 264.874 154.945 265.147 154.611 265.324C154.278 265.502 153.899 265.576 153.523 265.539C153.147 265.501 152.791 265.353 152.499 265.113C152.207 264.872 151.993 264.551 151.884 264.19C151.775 263.828 151.776 263.442 151.886 263.08C151.996 262.719 152.211 262.398 152.503 262.159C152.796 261.919 153.152 261.772 153.528 261.736C153.778 261.711 154.03 261.736 154.271 261.81C154.511 261.883 154.734 262.003 154.928 262.162C155.122 262.322 155.282 262.518 155.4 262.739C155.518 262.961 155.591 263.204 155.616 263.454Z" fill="#89302A"/>
<path d="M153.684 264.823C153.508 264.835 153.334 264.79 153.186 264.694C153.039 264.599 152.925 264.459 152.863 264.295C152.794 264.14 152.778 263.968 152.818 263.803C152.859 263.639 152.952 263.493 153.085 263.388C153.224 263.281 153.392 263.217 153.568 263.204C153.744 263.19 153.919 263.229 154.073 263.315C153.987 263.136 153.842 262.991 153.663 262.904C153.387 262.812 153.087 262.822 152.818 262.933C152.803 262.939 152.786 262.939 152.771 262.933C152.756 262.927 152.743 262.915 152.736 262.9C152.731 262.886 152.731 262.869 152.737 262.855C152.743 262.84 152.755 262.829 152.769 262.822C153.068 262.696 153.403 262.686 153.708 262.794C153.842 262.857 153.961 262.948 154.057 263.06C154.153 263.172 154.224 263.304 154.266 263.446L154.34 263.651L154.167 263.511C154.027 263.396 153.852 263.33 153.67 263.325C153.488 263.32 153.31 263.375 153.163 263.483C153.052 263.571 152.974 263.695 152.941 263.833C152.908 263.971 152.923 264.116 152.982 264.245C153.032 264.387 153.127 264.509 153.254 264.59C153.38 264.672 153.53 264.709 153.679 264.696C153.695 264.695 153.711 264.7 153.723 264.71C153.735 264.72 153.743 264.734 153.745 264.75C153.746 264.766 153.742 264.782 153.732 264.795C153.722 264.808 153.708 264.816 153.692 264.819L153.684 264.823Z" fill="#FB554B"/>
<path d="M162.751 257.857C162.751 257.857 161.889 254.986 157.941 255.04C153.992 255.093 153.75 258.082 153.75 258.082L158.31 258.558L162.459 257.865L162.751 257.857Z" fill="#973830"/>
<path d="M162.512 255.376C162.512 255.376 160.306 257.996 157.091 257.763C157.091 257.763 156.411 261.724 154.106 261.765C151.802 261.806 152.532 256.352 152.532 256.352C152.532 256.352 156.632 254.199 156.907 254.171C157.182 254.142 161.688 253.437 161.688 253.437L162.512 255.376Z" fill="#010103"/>
<path d="M161.824 264.795C161.787 264.795 159.503 264.549 159.503 264.549C159.503 264.549 159.716 265.517 160.565 265.607C161.414 265.697 161.824 264.795 161.824 264.795Z" fill="#FBFDFA"/>
<path d="M142.944 272.086C141.872 272.309 140.843 272.7 139.894 273.246C139.896 273.257 139.896 273.268 139.894 273.279C140.808 275.439 142.091 277.424 143.687 279.143L143.826 279.29L143.982 279.45C146.923 282.492 150.745 284.532 154.909 285.284C159.072 286.036 163.367 285.461 167.186 283.641C167.678 283.403 168.158 283.149 168.63 282.874L168.868 282.735C169.081 282.608 169.278 282.477 169.499 282.325L169.716 282.185C171.166 281.21 172.485 280.052 173.641 278.741C174.059 278.265 174.455 277.772 174.83 277.261C175.642 276.14 176.338 274.939 176.905 273.677C175.908 273.013 173.952 272.521 171.717 272.152C169.987 271.869 168.088 271.664 166.342 271.516C164.525 271.36 162.873 271.266 161.749 271.217C160.818 271.171 160.252 271.159 160.252 271.159C160.252 271.159 157.968 271.159 155.004 271.241C153.667 271.278 152.191 271.323 150.723 271.389C149.599 271.438 148.476 271.495 147.443 271.569C145.893 271.676 144.494 271.811 143.465 271.979L143.227 272.02H143.211L143.03 272.053L142.944 272.086Z" fill="#FA2C3C"/>
<path d="M139.828 273.078C139.849 273.136 139.873 273.189 139.894 273.246C139.896 273.257 139.896 273.268 139.894 273.279C140.264 273.084 140.649 272.919 141.046 272.787C141.858 272.532 142.687 272.333 143.527 272.193C144.613 272 145.88 271.84 147.32 271.713C147.348 271.709 147.374 271.694 147.392 271.672C147.41 271.65 147.419 271.622 147.418 271.594C147.414 271.567 147.4 271.543 147.378 271.527C147.357 271.511 147.33 271.504 147.303 271.508C145.835 271.639 144.544 271.803 143.441 272.004L143.203 272.045H143.211L142.965 272.094C142.305 272.221 141.653 272.386 141.013 272.59C140.605 272.718 140.208 272.881 139.828 273.078Z" fill="#010103"/>
<path d="M166.359 271.523C166.359 271.523 158.682 279.179 150.728 271.4C150.728 271.4 159.818 270.379 166.359 271.523Z" fill="#973830"/>
<path d="M288.09 294.138C291.215 294.138 293.749 291.604 293.749 288.479C293.749 285.354 291.215 282.82 288.09 282.82C284.965 282.82 282.432 285.354 282.432 288.479C282.432 291.604 284.965 294.138 288.09 294.138Z" fill="white"/>
<path d="M287.039 291.362L284.903 288.393C284.855 288.326 284.835 288.242 284.848 288.16C284.861 288.077 284.906 288.004 284.973 287.955C285.041 287.908 285.125 287.889 285.207 287.903C285.289 287.916 285.362 287.962 285.411 288.028L287.052 290.321L291.177 285.092C291.202 285.06 291.234 285.033 291.269 285.013C291.305 284.993 291.344 284.98 291.385 284.975C291.426 284.97 291.467 284.973 291.507 284.984C291.546 284.995 291.583 285.014 291.616 285.039C291.648 285.064 291.675 285.096 291.695 285.132C291.715 285.167 291.728 285.207 291.733 285.247C291.738 285.288 291.735 285.33 291.724 285.369C291.713 285.409 291.694 285.446 291.669 285.478L287.039 291.362Z" fill="#00AAFC"/>
<g opacity="0.4">
<path d="M447.45 34.6036C437.301 34.0213 413.506 33.0085 392.823 34.7512C390.8 34.9253 388.762 34.6728 386.843 34.0099C384.923 33.3471 383.164 32.2886 381.679 30.903C380.194 29.5174 379.016 27.8355 378.222 25.9662C377.428 24.0968 377.036 22.0816 377.069 20.0509C377.151 16.5368 378.41 12.4486 381.67 7.8192C394.23 -10.0179 416.061 6.9991 415.852 16.0694C415.852 16.0694 420.264 2.43527 433.668 4.82175C447.073 7.20823 442.333 27.0546 442.333 27.0546C442.333 27.0546 446.655 26.1402 449.656 28.1863C452.658 30.2324 451.013 34.8086 447.45 34.6036Z" fill="#C3DDFB" fill-opacity="0.6"/>
</g>
<g opacity="0.4">
<path d="M70.3828 51.9082C60.2341 51.326 36.4431 50.3132 15.7603 52.0559C13.7363 52.2313 11.698 51.9797 9.77751 51.3173C7.85697 50.6549 6.09695 49.5966 4.61143 48.2108C3.1259 46.825 1.94799 45.1427 1.15397 43.2727C0.359953 41.4028 -0.0324747 39.3869 0.00210153 37.3556C0.0841112 33.8415 1.34296 29.7533 4.60694 25.1239C17.1667 7.28679 38.9936 24.3038 38.7845 33.3741C38.7845 33.3741 43.1966 19.74 56.6011 22.1264C70.0055 24.5129 65.2654 44.3388 65.2654 44.3388C65.2654 44.3388 69.5914 43.4284 72.5889 45.4746C75.5863 47.5207 73.9502 52.1133 70.3828 51.9082Z" fill="#C3DDFB" fill-opacity="0.7"/>
</g>
<g opacity="0.4">
<path d="M564.408 51.225C559.447 50.9379 547.814 50.4418 537.702 51.2947C536.713 51.3804 535.717 51.2574 534.778 50.9337C533.839 50.61 532.979 50.0927 532.253 49.4155C531.527 48.7383 530.952 47.9161 530.564 47.0023C530.176 46.0884 529.984 45.1033 530.001 44.1106C530.038 42.3925 530.653 40.3915 532.248 38.128C538.399 29.4104 549.06 37.718 548.958 42.1629C548.958 42.1629 551.114 35.4955 557.667 36.6642C564.22 37.8328 561.903 47.5222 561.903 47.5222C561.903 47.5222 564.019 47.0753 565.483 48.0758C565.794 48.2887 566.028 48.5979 566.147 48.9561C566.266 49.3142 566.265 49.7017 566.143 50.059C566.021 50.4163 565.786 50.7239 565.472 50.9344C565.159 51.145 564.785 51.2471 564.408 51.225Z" fill="#C3DDFB" fill-opacity="0.7"/>
</g>
<path d="M385.083 255.199C386.903 255.97 388.773 256.704 390.643 257.381L391.156 257.565L390.787 258.586L390.274 258.402C388.384 257.721 386.497 256.979 384.66 256.2L384.16 255.99L384.57 254.99L385.083 255.199ZM396.31 259.263C398.229 259.841 400.168 260.366 402.051 260.821L402.58 260.948L402.325 262.006L401.796 261.879C399.873 261.415 397.913 260.886 395.978 260.3L395.457 260.144L395.769 259.103L396.31 259.263ZM440.263 196.251L440.648 195.869L441.415 196.644L441.03 197.026C440.27 197.778 439.613 198.628 439.074 199.551C438.646 200.285 438.287 201.057 438 201.856L437.815 202.368L436.79 201.995L436.979 201.487C437.288 200.625 437.675 199.794 438.135 199.002C438.721 197.996 439.437 197.071 440.263 196.251ZM436.983 206.965L437.015 207.506C437.178 209.394 437.984 211.169 439.299 212.534L439.664 212.944L438.844 213.669L438.483 213.259C437.001 211.714 436.096 209.706 435.921 207.572L435.888 207.031L436.983 206.965ZM445.553 193.023C447.512 192.375 449.566 192.062 451.63 192.097H452.175V193.183H451.63C449.689 193.148 447.756 193.442 445.913 194.053L445.401 194.229L445.048 193.2L445.553 193.023ZM407.91 262.035C409.895 262.379 411.884 262.658 413.811 262.855L414.352 262.912L414.241 263.99L413.7 263.937C411.744 263.736 409.735 263.457 407.722 263.117L407.188 263.023L407.373 261.953L407.91 262.035ZM443.933 215.949C445.689 216.82 447.536 217.494 449.44 217.958L449.965 218.09L449.702 219.144L449.173 219.012C447.188 218.527 445.263 217.825 443.433 216.917L442.949 216.671L443.441 215.703L443.933 215.949ZM457.678 192.941C459.648 193.466 461.557 194.197 463.373 195.123L463.857 195.369L463.365 196.337L462.881 196.091C461.133 195.198 459.296 194.494 457.399 193.991L456.874 193.856L457.153 192.802L457.678 192.941ZM419.748 263.24C421.762 263.289 423.763 263.24 425.698 263.138L426.239 263.101L426.305 264.187L425.764 264.22C423.8 264.343 421.766 264.38 419.724 264.327H419.178L419.207 263.24H419.748ZM455.258 218.91C457.227 219.068 459.204 219.094 461.175 218.988L461.717 218.959L461.774 220.046L461.233 220.074C459.212 220.183 457.186 220.156 455.168 219.992L454.627 219.947L454.717 218.865L455.258 218.91ZM468.068 198.092L468.478 198.432C469.106 198.936 469.709 199.469 470.279 200.011C471.174 200.874 471.997 201.809 472.739 202.807L473.063 203.242L472.189 203.89L471.865 203.455C471.158 202.505 470.372 201.616 469.516 200.798C468.97 200.273 468.388 199.761 467.785 199.277L467.375 198.936L468.068 198.092ZM431.574 262.469C433.528 262.161 435.465 261.751 437.376 261.239L437.901 261.1L438.184 262.145L437.663 262.289C435.714 262.813 433.739 263.236 431.746 263.556L431.209 263.642L431.041 262.568L431.574 262.469ZM467.043 218.299C468.991 217.957 470.919 217.507 472.817 216.95L473.342 216.798L473.645 217.844L473.124 217.995C471.186 218.563 469.217 219.021 467.228 219.369L466.695 219.463L466.506 218.393L467.043 218.299ZM443.002 259.357C444.839 258.627 446.631 257.789 448.37 256.847L448.845 256.589L449.366 257.545L448.886 257.803C447.11 258.763 445.28 259.619 443.404 260.366L442.9 260.567L442.49 259.558L443.002 259.357ZM475.466 207.691L475.654 208.199C476.353 210.124 476.8 212.131 476.987 214.17L477.036 214.711L475.954 214.809L475.904 214.272C475.729 212.327 475.301 210.412 474.633 208.577L474.445 208.064L475.466 207.691ZM453.405 253.743C455.021 252.612 456.599 251.386 458.096 250.102L458.506 249.745L459.211 250.566L458.801 250.918C457.276 252.226 455.668 253.473 454.024 254.609L453.581 254.92L452.954 254.03L453.405 253.743ZM478.418 215.006C480.226 214.264 482.035 213.411 483.79 212.476L484.269 212.222L484.782 213.181L484.302 213.436C482.514 214.387 480.673 215.256 478.832 216.011L478.328 216.216L477.918 215.211L478.418 215.006ZM476.991 219.722L476.925 220.263C476.676 222.278 476.256 224.268 475.671 226.213L475.515 226.734L474.473 226.422L474.629 225.901C475.203 224.017 475.614 222.086 475.859 220.132L475.921 219.595L476.991 219.722ZM462.451 246.014C463.821 244.577 465.117 243.072 466.334 241.503L466.67 241.073L467.527 241.741L467.195 242.172C465.965 243.742 464.636 245.284 463.238 246.748L462.861 247.158L462.078 246.404L462.451 246.014ZM473.711 231.388L473.485 231.884C472.637 233.717 471.679 235.497 470.615 237.214L470.328 237.678L469.405 237.108L469.688 236.644C470.728 234.963 471.665 233.22 472.493 231.424L472.722 230.932L473.711 231.388ZM488.882 209.421C490.51 208.301 492.068 207.081 493.545 205.768L493.955 205.407L494.676 206.227L494.266 206.588C492.756 207.931 491.163 209.178 489.497 210.323L489.051 210.631L488.435 209.737L488.882 209.421ZM517.479 164.386L517.34 164.915C516.831 166.846 516.261 168.79 515.654 170.696L515.49 171.213L514.453 170.885L514.621 170.364C515.224 168.478 515.786 166.551 516.29 164.623L516.429 164.099L517.479 164.386ZM513.867 175.867L513.674 176.371C512.956 178.274 512.185 180.148 511.386 181.948L511.164 182.444L510.172 182.001L510.394 181.505C511.185 179.726 511.948 177.872 512.657 175.99L512.85 175.482L513.867 175.867ZM497.756 201.573C499.043 200.142 500.31 198.596 501.516 196.972L501.84 196.538L502.709 197.185L502.385 197.62C501.155 199.26 499.876 200.847 498.56 202.303L498.199 202.713L497.379 201.983L497.756 201.573ZM509.016 186.897L508.762 187.377C507.814 189.185 506.826 190.924 505.776 192.622L505.489 193.081L504.567 192.511L504.85 192.048C505.891 190.37 506.867 188.656 507.798 186.873L508.052 186.393L509.016 186.897Z" fill="#6095AB"/>
<path d="M522.769 158.559L519.861 148.862C519.861 148.862 534.43 119.002 534.48 118.485C534.529 117.969 536.366 99.0654 536.366 99.0654L523.945 116.46L509.594 148.653L522.769 158.559Z" fill="#F99A35"/>
<path d="M490.953 146.241L536.366 99.0654L509.61 148.653L490.953 146.241Z" fill="#FEC369"/>
<path d="M519.865 148.862L539.662 151.531L536.366 99.0654L519.865 148.862Z" fill="#FEC369"/>
</svg>
