<svg width="370" height="280" viewBox="0 0 370 280" fill="none" xmlns="http://www.w3.org/2000/svg">
<g clip-path="url(#clip0_2258_21913)">
<g clip-path="url(#clip1_2258_21913)">
<path d="M386.869 -7.18848H-14.1582V415.321H386.869V-7.18848Z" fill="#F9F9F9"/>
<path d="M276.797 47.7432L281.481 80.1536L311.513 100.618L318.401 99.0514L340.168 82.014C340.168 82.014 379.017 27.3766 378.466 26.7891C377.915 26.2995 347.745 -7.77539 347.745 -7.77539L282.996 38.9307L276.797 47.7432Z" fill="#F9F9F9"/>
<path d="M303.723 269.281L295.573 280.175L339.73 296.863L347.88 285.969L303.723 269.281Z" fill="#F9F9F9"/>
<path d="M244.283 -6.60049L241.804 10.0453L244.697 13.5703L257.095 12.0036L282.444 -8.65674L244.283 -6.60049Z" fill="#F9F9F9"/>
<path d="M358.627 -6.20898C363.724 -1.99858 369.923 8.08681 369.923 8.08681L387.282 10.241C387.282 10.241 391.828 -5.22982 391.69 -5.42565C391.552 -5.7194 358.627 -6.20898 358.627 -6.20898Z" fill="#F9F9F9"/>
<path d="M240.565 266.88L236.019 274.713L248.279 277.944L261.367 271.286L268.393 274.517L278.587 272.461L286.853 265.313L284.511 262.082L240.565 266.88Z" fill="#F9F9F9"/>
<path d="M264.811 244.359L258.611 241.52L316.334 157.018L320.88 156.528L326.804 161.914L317.298 167.985L264.811 244.359Z" fill="#F9F9F9"/>
<g opacity="0.5">
<g opacity="0.5">
<path opacity="0.5" d="M296.497 27.6694L293.19 29.7257" stroke="#4D2161" stroke-width="0.546797" stroke-miterlimit="10" stroke-linecap="round" stroke-linejoin="round"/>
<path opacity="0.5" d="M298.425 29.04L295.119 31.1942" stroke="#4D2161" stroke-width="0.546797" stroke-miterlimit="10" stroke-linecap="round" stroke-linejoin="round"/>
<path opacity="0.5" d="M300.216 30.5093L296.91 32.5655" stroke="#4D2161" stroke-width="0.546797" stroke-miterlimit="10" stroke-linecap="round" stroke-linejoin="round"/>
<path opacity="0.5" d="M302.145 31.8799L298.839 34.034" stroke="#4D2161" stroke-width="0.546797" stroke-miterlimit="10" stroke-linecap="round" stroke-linejoin="round"/>
<path opacity="0.5" d="M304.074 33.3486L300.768 35.4049" stroke="#4D2161" stroke-width="0.546797" stroke-miterlimit="10" stroke-linecap="round" stroke-linejoin="round"/>
<path opacity="0.5" d="M305.864 34.7197L302.558 36.8739" stroke="#4D2161" stroke-width="0.546797" stroke-miterlimit="10" stroke-linecap="round" stroke-linejoin="round"/>
</g>
<g opacity="0.5">
<path opacity="0.5" d="M329.146 3.87598L325.84 5.93222" stroke="#4D2161" stroke-width="0.546797" stroke-miterlimit="10" stroke-linecap="round" stroke-linejoin="round"/>
<path opacity="0.5" d="M331.074 5.24707L327.768 7.40123" stroke="#4D2161" stroke-width="0.546797" stroke-miterlimit="10" stroke-linecap="round" stroke-linejoin="round"/>
<path opacity="0.5" d="M333.003 6.71582L329.696 8.77207" stroke="#4D2161" stroke-width="0.546797" stroke-miterlimit="10" stroke-linecap="round" stroke-linejoin="round"/>
<path opacity="0.5" d="M334.795 8.08594L331.488 10.2401" stroke="#4D2161" stroke-width="0.546797" stroke-miterlimit="10" stroke-linecap="round" stroke-linejoin="round"/>
<path opacity="0.5" d="M336.722 9.55518L333.416 11.6114" stroke="#4D2161" stroke-width="0.546797" stroke-miterlimit="10" stroke-linecap="round" stroke-linejoin="round"/>
<path opacity="0.5" d="M338.652 10.9263L335.346 13.0804" stroke="#4D2161" stroke-width="0.546797" stroke-miterlimit="10" stroke-linecap="round" stroke-linejoin="round"/>
</g>
<path opacity="0.5" d="M345.127 78.6839C344.438 78.2922 311.65 64.9756 311.65 64.9756" stroke="#4D2161" stroke-width="0.546797" stroke-miterlimit="10" stroke-linecap="round" stroke-linejoin="round" stroke-dasharray="2.19 2.19"/>
<path opacity="0.5" d="M339.34 12.5908L374.607 32.272" stroke="#4D2161" stroke-width="0.546797" stroke-miterlimit="10" stroke-linecap="round" stroke-linejoin="round" stroke-dasharray="2.19 2.19"/>
<g opacity="0.5">
<g opacity="0.5">
<g opacity="0.5">
<path opacity="0.5" d="M47.2832 62.5278L48.5231 63.0174" stroke="#4D2161" stroke-width="0.546797" stroke-linecap="round" stroke-linejoin="round"/>
<path opacity="0.5" d="M51.0039 63.9966L78.0054 74.8653L106.247 93.3715L120.85 100.226L123.467 101.89" stroke="#4D2161" stroke-width="0.546797" stroke-linecap="round" stroke-linejoin="round" stroke-dasharray="2.19 2.19"/>
<path opacity="0.5" d="M124.43 102.576L125.532 103.359" stroke="#4D2161" stroke-width="0.546797" stroke-linecap="round" stroke-linejoin="round"/>
</g>
</g>
<path opacity="0.5" d="M121.676 100.52L175.954 96.0156L213.012 121.768L206.262 126.957" stroke="#4D2161" stroke-width="0.546797" stroke-miterlimit="10" stroke-linecap="round" stroke-linejoin="round" stroke-dasharray="2.19 2.19"/>
<path opacity="0.5" d="M315.508 136.748L304.901 130.09L289.058 124.998L244.974 121.277L212.462 121.669" stroke="#4D2161" stroke-width="0.546797" stroke-miterlimit="10" stroke-linecap="round" stroke-linejoin="round" stroke-dasharray="2.19 2.19"/>
<path opacity="0.5" d="M288.645 92.9795L290.711 153.884" stroke="#4D2161" stroke-width="0.546797" stroke-miterlimit="10" stroke-linecap="round" stroke-linejoin="round" stroke-dasharray="2.19 2.19"/>
<path opacity="0.5" d="M315.783 109.625L283.547 167.102" stroke="#4D2161" stroke-width="0.546797" stroke-miterlimit="10" stroke-linecap="round" stroke-linejoin="round" stroke-dasharray="2.19 2.19"/>
<path opacity="0.5" d="M278.174 176.405L186.699 312.802" stroke="#4D2161" stroke-width="0.546797" stroke-miterlimit="10" stroke-linecap="round" stroke-linejoin="round" stroke-dasharray="2.19 2.19"/>
<path opacity="0.5" d="M-13.3314 262.669C-13.3314 261.592 137.794 168.474 137.794 168.474C137.794 168.474 88.4751 112.465 30.8904 88.1821L-20.6328 109.136" stroke="#4D2161" stroke-width="0.546797" stroke-miterlimit="10" stroke-linecap="round" stroke-linejoin="round" stroke-dasharray="2.19 2.19"/>
<path opacity="0.5" d="M238.913 29.53L245.25 24.1446L195.931 -6.40527" stroke="#4D2161" stroke-width="0.546797" stroke-miterlimit="10" stroke-linecap="round" stroke-linejoin="round" stroke-dasharray="2.19 2.19"/>
<path opacity="0.5" d="M236.708 29.1389C236.019 29.0409 191.246 1.03683 191.246 1.03683L188.629 2.50558L174.577 -6.20898" stroke="#4D2161" stroke-width="0.546797" stroke-miterlimit="10" stroke-linecap="round" stroke-linejoin="round" stroke-dasharray="2.19 2.19"/>
<path opacity="0.5" d="M170.168 1.82003L159.423 -5.42578" stroke="#4D2161" stroke-width="0.546797" stroke-miterlimit="10" stroke-linecap="round" stroke-linejoin="round" stroke-dasharray="2.19 2.19"/>
<path opacity="0.5" d="M219.763 41.8674C219.625 41.5736 207.915 34.6216 207.915 34.6216L179.123 56.2611L204.609 74.6694L145.784 116.578" stroke="#4D2161" stroke-width="0.546797" stroke-miterlimit="10" stroke-linecap="round" stroke-linejoin="round" stroke-dasharray="2.19 2.19"/>
<g opacity="0.5">
<path opacity="0.5" d="M275.281 63.8008L276.108 66.9341" stroke="#4D2161" stroke-width="0.546797" stroke-miterlimit="10" stroke-linecap="round" stroke-linejoin="round"/>
<path opacity="0.5" d="M278.036 63.4092L278.725 66.5425" stroke="#4D2161" stroke-width="0.546797" stroke-miterlimit="10" stroke-linecap="round" stroke-linejoin="round"/>
<path opacity="0.5" d="M280.654 63.0176L281.481 66.053" stroke="#4D2161" stroke-width="0.546797" stroke-miterlimit="10" stroke-linecap="round" stroke-linejoin="round"/>
<path opacity="0.5" d="M283.409 62.6255L284.236 65.6609" stroke="#4D2161" stroke-width="0.546797" stroke-miterlimit="10" stroke-linecap="round" stroke-linejoin="round"/>
<path opacity="0.5" d="M286.026 62.2339L286.853 65.2693" stroke="#4D2161" stroke-width="0.546797" stroke-miterlimit="10" stroke-linecap="round" stroke-linejoin="round"/>
<path opacity="0.5" d="M288.781 61.8423L289.608 64.8777" stroke="#4D2161" stroke-width="0.546797" stroke-miterlimit="10" stroke-linecap="round" stroke-linejoin="round"/>
</g>
<path opacity="0.5" d="M387.696 47.742C387.282 47.742 279.139 38.4399 279.139 38.4399" stroke="#4D2161" stroke-width="0.546797" stroke-miterlimit="10" stroke-linecap="round" stroke-linejoin="round" stroke-dasharray="2.19 2.19"/>
<path opacity="0.5" d="M384.802 64.584L338.789 43.4341" stroke="#4D2161" stroke-width="0.546797" stroke-miterlimit="10" stroke-linecap="round" stroke-linejoin="round" stroke-dasharray="2.19 2.19"/>
<path opacity="0.5" d="M289.057 63.1152L328.732 97.2881" stroke="#4D2161" stroke-width="0.546797" stroke-miterlimit="10" stroke-linecap="round" stroke-linejoin="round" stroke-dasharray="2.19 2.19"/>
<path opacity="0.5" d="M294.293 44.1194C294.706 43.7277 359.455 -2.09717 359.455 -2.09717L378.19 27.3757L388.109 35.6007" stroke="#4D2161" stroke-width="0.546797" stroke-miterlimit="10" stroke-linecap="round" stroke-linejoin="round" stroke-dasharray="2.19 2.19"/>
<path opacity="0.5" d="M393.757 5.73635C393.343 5.54052 362.209 2.60303 362.209 2.60303" stroke="#4D2161" stroke-width="0.546797" stroke-miterlimit="10" stroke-linecap="round" stroke-linejoin="round" stroke-dasharray="2.19 2.19"/>
<path opacity="0.5" d="M387.007 10.1426L353.393 70.0674" stroke="#4D2161" stroke-width="0.546797" stroke-miterlimit="10" stroke-linecap="round" stroke-linejoin="round" stroke-dasharray="2.19 2.19"/>
<path opacity="0.5" d="M349.122 134.497L374.608 125.782L388.66 114.62" stroke="#4D2161" stroke-width="0.546797" stroke-miterlimit="10" stroke-linecap="round" stroke-linejoin="round" stroke-dasharray="2.19 2.19"/>
<path opacity="0.5" d="M319.503 138.805L322.671 141.546L310.41 166.613L214.528 302.325L167.964 369.692L282.169 417.181" stroke="#4D2161" stroke-width="0.546797" stroke-miterlimit="10" stroke-linecap="round" stroke-linejoin="round" stroke-dasharray="2.19 2.19"/>
<path opacity="0.5" d="M296.634 259.046L390.312 296.059" stroke="#4D2161" stroke-width="0.546797" stroke-miterlimit="10" stroke-linecap="round" stroke-linejoin="round" stroke-dasharray="2.19 2.19"/>
<path opacity="0.5" d="M51.8301 237.7L73.1833 249.94L139.585 274.125" stroke="#4D2161" stroke-width="0.546797" stroke-miterlimit="10" stroke-linecap="round" stroke-linejoin="round" stroke-dasharray="2.19 2.19"/>
<path opacity="0.5" d="M177.332 251.311L145.233 260.907L137.519 282.155" stroke="#4D2161" stroke-width="0.546797" stroke-miterlimit="10" stroke-linecap="round" stroke-linejoin="round" stroke-dasharray="2.19 2.19"/>
<path opacity="0.5" d="M51.0036 285.386C50.0393 284.994 -6.44336 275.007 -6.44336 275.007" stroke="#4D2161" stroke-width="0.546797" stroke-miterlimit="10" stroke-linecap="round" stroke-linejoin="round" stroke-dasharray="2.19 2.19"/>
<path opacity="0.5" d="M70.5653 224.09L-13.1943 278.238" stroke="#4D2161" stroke-width="0.546797" stroke-miterlimit="10" stroke-linecap="round" stroke-linejoin="round" stroke-dasharray="2.19 2.19"/>
<path opacity="0.5" d="M192.21 188.645V193.932L157.908 230.651C157.908 230.651 131.182 223.209 130.08 222.328C128.977 221.447 107.762 202.842 107.762 202.842L93.1592 203.626" stroke="#4D2161" stroke-width="0.546797" stroke-miterlimit="10" stroke-linecap="round" stroke-linejoin="round" stroke-dasharray="2.19 2.19"/>
<path opacity="0.5" d="M170.031 229.867L165.484 241.225" stroke="#4D2161" stroke-width="0.546797" stroke-miterlimit="10" stroke-linecap="round" stroke-linejoin="round" stroke-dasharray="2.19 2.19"/>
<path opacity="0.5" d="M157.907 230.65L168.102 233.294" stroke="#4D2161" stroke-width="0.546797" stroke-miterlimit="10" stroke-linecap="round" stroke-linejoin="round" stroke-dasharray="2.19 2.19"/>
<path opacity="0.5" d="M209.293 244.75L229.682 247.884" stroke="#4D2161" stroke-width="0.546797" stroke-miterlimit="10" stroke-linecap="round" stroke-linejoin="round" stroke-dasharray="2.19 2.19"/>
<path opacity="0.5" d="M239.601 198.044L197.032 191.875L191.659 208.913" stroke="#4D2161" stroke-width="0.546797" stroke-miterlimit="10" stroke-linecap="round" stroke-linejoin="round" stroke-dasharray="2.19 2.19"/>
<path opacity="0.5" d="M140.962 225.069C140.962 225.069 186.01 197.75 185.597 197.358C185.184 196.967 149.503 169.256 149.503 169.256" stroke="#4D2161" stroke-width="0.546797" stroke-miterlimit="10" stroke-linecap="round" stroke-linejoin="round" stroke-dasharray="2.19 2.19"/>
<path opacity="0.5" d="M145.509 178.362L154.326 173.173" stroke="#4D2161" stroke-width="0.546797" stroke-miterlimit="10" stroke-linecap="round" stroke-linejoin="round" stroke-dasharray="2.19 2.19"/>
<path opacity="0.5" d="M74.8367 120.103L-10.7139 171.313" stroke="#4D2161" stroke-width="0.546797" stroke-miterlimit="10" stroke-linecap="round" stroke-linejoin="round" stroke-dasharray="2.19 2.19"/>
<path opacity="0.5" d="M7.4707 159.857L15.1854 167.299L24.14 162.011L76.0765 206.367" stroke="#4D2161" stroke-width="0.546797" stroke-miterlimit="10" stroke-linecap="round" stroke-linejoin="round" stroke-dasharray="2.19 2.19"/>
<path opacity="0.5" d="M314.681 218.215L282.169 206.856" stroke="#4D2161" stroke-width="0.546797" stroke-miterlimit="10" stroke-linecap="round" stroke-linejoin="round" stroke-dasharray="2.19 2.19"/>
<path opacity="0.5" d="M328.595 172.88L342.784 164.459L340.718 160.934L353.116 153.492L346.779 149.576L359.729 141.84" stroke="#4D2161" stroke-width="0.546797" stroke-miterlimit="10" stroke-linecap="round" stroke-linejoin="round" stroke-dasharray="2.19 2.19"/>
<g opacity="0.5">
<path opacity="0.5" d="M290.572 278.238L294.43 279.609" stroke="#4D2161" stroke-width="0.546797" stroke-miterlimit="10" stroke-linecap="round" stroke-linejoin="round"/>
<path opacity="0.5" d="M291.675 276.475L295.67 277.845" stroke="#4D2161" stroke-width="0.546797" stroke-miterlimit="10" stroke-linecap="round" stroke-linejoin="round"/>
<path opacity="0.5" d="M292.777 274.614L296.772 276.083" stroke="#4D2161" stroke-width="0.546797" stroke-miterlimit="10" stroke-linecap="round" stroke-linejoin="round"/>
<path opacity="0.5" d="M294.017 272.852L297.874 274.321" stroke="#4D2161" stroke-width="0.546797" stroke-miterlimit="10" stroke-linecap="round" stroke-linejoin="round"/>
<path opacity="0.5" d="M295.118 271.089L299.113 272.558" stroke="#4D2161" stroke-width="0.546797" stroke-miterlimit="10" stroke-linecap="round" stroke-linejoin="round"/>
<path opacity="0.5" d="M296.221 269.327L300.216 270.698" stroke="#4D2161" stroke-width="0.546797" stroke-miterlimit="10" stroke-linecap="round" stroke-linejoin="round"/>
</g>
<g opacity="0.5">
<path opacity="0.5" d="M276.107 175.621L280.103 177.09" stroke="#4D2161" stroke-width="0.546797" stroke-miterlimit="10" stroke-linecap="round" stroke-linejoin="round"/>
<path opacity="0.5" d="M277.21 173.859L281.205 175.328" stroke="#4D2161" stroke-width="0.546797" stroke-miterlimit="10" stroke-linecap="round" stroke-linejoin="round"/>
<path opacity="0.5" d="M278.449 172.096L282.444 173.467" stroke="#4D2161" stroke-width="0.546797" stroke-miterlimit="10" stroke-linecap="round" stroke-linejoin="round"/>
<path opacity="0.5" d="M279.552 170.334L283.547 171.705" stroke="#4D2161" stroke-width="0.546797" stroke-miterlimit="10" stroke-linecap="round" stroke-linejoin="round"/>
<path opacity="0.5" d="M280.653 168.571L284.648 169.942" stroke="#4D2161" stroke-width="0.546797" stroke-miterlimit="10" stroke-linecap="round" stroke-linejoin="round"/>
<path opacity="0.5" d="M281.894 166.809L285.889 168.179" stroke="#4D2161" stroke-width="0.546797" stroke-miterlimit="10" stroke-linecap="round" stroke-linejoin="round"/>
</g>
<path opacity="0.5" d="M-13.0557 15.0386L42.4626 51.4635L36.5389 56.0656" stroke="#4D2161" stroke-width="0.546797" stroke-miterlimit="10" stroke-linecap="round" stroke-linejoin="round" stroke-dasharray="2.19 2.19"/>
<path opacity="0.5" d="M241.116 265.998L281.894 261.298L302.421 265.313L389.349 297.723" stroke="#4D2161" stroke-width="0.546797" stroke-miterlimit="10" stroke-linecap="round" stroke-linejoin="round" stroke-dasharray="2.19 2.19"/>
</g>
</g>
<path d="M203.644 74.7676C202.817 75.3551 202.817 76.3343 203.782 76.9218L239.049 100.618L244.008 128.622L233.952 160.64L198.684 134.399L207.088 128.524C207.915 127.936 207.915 126.957 207.088 126.37C206.261 125.782 204.884 125.782 204.057 126.37L181.189 142.33L131.456 105.22C130.63 104.632 129.252 104.632 128.426 105.122C127.599 105.709 127.599 106.688 128.288 107.276L178.571 144.778L174.714 150.653L135.451 175.524L101.7 147.128C101.562 147.03 101.562 146.932 101.424 146.736C101.286 146.638 101.149 146.54 100.873 146.442L76.0757 125.586C75.6625 125.293 75.1114 125.097 74.5604 124.999C74.0093 124.999 73.4583 125.097 73.045 125.39L29.9253 151.828C26.8945 153.688 26.4812 156.822 28.961 158.976L45.4925 173.859C47.9722 176.111 52.3806 176.503 55.6869 174.74L99.3576 149.772L132.145 177.482L34.1959 239.463L23.0372 229.574L54.7225 210.284C59.5442 207.346 60.233 202.255 56.2379 198.632L24.4148 170.432C24.0015 170.138 23.5882 169.942 23.0372 169.844L3.61264 168.18C2.51054 168.082 1.40843 168.669 1.27067 169.551C1.13291 170.432 1.95948 171.117 3.19935 171.215L21.7973 172.782L31.1651 181.007L-4.92864 203.528C-7.13284 204.899 -7.40837 207.346 -5.61745 209.011L31.4407 241.715L-13.6077 270.209C-14.4343 270.796 -14.572 271.775 -13.7454 272.363C-13.3322 272.657 -12.7811 272.853 -12.0923 272.853C-11.5412 272.853 -11.128 272.755 -10.7147 272.461L66.2946 223.699L176.78 252.094L173.749 262.669C173.474 263.453 174.3 264.334 175.403 264.432C175.54 264.432 175.678 264.432 175.816 264.432C176.78 264.432 177.744 263.942 177.882 263.257L193.449 209.794C193.725 209.011 192.898 208.13 191.796 208.032C190.694 207.836 189.454 208.424 189.317 209.207L177.607 249.059L69.8764 221.349L81.173 214.201C82.8261 215.963 86.8212 219.292 93.7094 219.292C93.9849 219.292 94.1226 219.292 94.3982 219.292C94.8115 219.292 95.3625 219.194 95.638 218.901L103.215 214.494C104.179 214.005 104.317 213.026 103.49 212.34C102.802 211.655 101.424 211.557 100.46 212.144L93.4338 216.257C88.0611 216.159 85.1681 213.221 84.3415 212.242L154.876 167.592L179.535 187.567C181.602 189.232 184.633 190.113 187.663 190.113C190.143 190.113 192.623 189.526 194.689 188.253L204.057 182.476C206.261 181.105 207.639 179.244 207.777 177.188C207.915 175.132 206.95 173.076 205.021 171.607L179.26 151.534L183.117 145.561L195.791 136.749L232.987 164.459L224.17 192.659C223.895 193.442 224.584 194.324 225.824 194.519C225.961 194.519 226.099 194.519 226.237 194.519C227.201 194.519 228.166 194.03 228.303 193.344L248.279 129.307C248.279 129.111 248.279 128.915 248.279 128.818L243.182 100.03C243.182 99.6384 242.906 99.3447 242.493 99.1488L206.537 75.0614C205.848 74.0822 204.47 74.1801 203.644 74.7676ZM53.2072 172.586C51.8295 173.272 50.0386 173.076 49.0743 172.194L32.5428 157.311C31.5784 156.43 31.7162 155.059 32.9561 154.374L74.4226 128.915L96.7401 147.715L53.2072 172.586ZM-2.44892 207.053C-2.8622 206.661 -2.86221 206.171 -2.31116 205.78L33.6449 183.357L53.2072 200.786C55.6869 203.038 55.2736 206.269 52.2428 208.13L20.5574 227.321L-2.44892 207.053ZM201.853 173.565C203.093 174.447 203.644 175.719 203.506 176.894C203.368 178.167 202.542 179.244 201.302 180.126L191.934 185.903C189.317 187.567 185.184 187.372 182.842 185.413L158.182 165.438L176.642 153.786L201.853 173.565Z" fill="white" stroke="#BBB4B5" stroke-width="0.546797" stroke-miterlimit="10"/>
<path d="M395.547 234.273L373.643 233.882L374.056 212.536L389.072 216.942C390.174 217.236 391.414 216.844 391.965 216.159C392.378 215.376 391.827 214.494 390.863 214.201L373.643 209.109C373.367 209.011 373.229 209.011 372.954 209.011C372.954 209.011 372.954 209.011 372.816 209.011H371.301L323.221 207.836C322.395 207.836 321.706 208.13 321.293 208.619L305.175 229.476C305.037 229.671 304.899 229.867 304.899 230.161L303.108 256.598L293.327 257.284L249.932 241.617L324.737 129.013L353.254 138.609L369.647 151.142L332.314 172.782C331.349 173.272 331.212 174.251 332.038 174.936C332.452 175.328 333.14 175.524 333.691 175.524C334.105 175.524 334.656 175.426 335.069 175.132L345.814 168.963L371.163 184.042C371.576 184.238 371.989 184.434 372.54 184.434C373.091 184.434 373.78 184.238 374.194 183.847C375.02 183.161 374.882 182.28 373.918 181.692L349.121 166.907L358.351 161.522L386.041 182.574C386.454 182.867 387.005 183.063 387.557 183.063C388.108 183.063 388.659 182.965 389.072 182.672C389.899 182.084 390.036 181.105 389.21 180.517L361.657 159.661L389.485 143.505C390.45 143.015 390.587 142.036 389.761 141.351C389.072 140.665 387.694 140.567 386.73 141.155L372.816 149.184L356.009 136.357C355.871 136.259 355.596 136.063 355.32 136.063L326.39 126.37L328.043 123.824C330.798 119.613 329.283 114.62 324.324 111.584L321.844 110.018L353.254 72.9072C353.805 72.2218 353.529 71.2427 352.565 70.851C351.601 70.4593 350.223 70.6552 349.672 71.3406L318.675 107.961L278.724 83.678C277.209 82.7968 275.005 82.8947 273.627 83.9718C272.387 85.0489 272.525 86.6155 274.04 87.5947L319.777 115.403C322.257 116.97 323.084 119.418 321.568 121.572L243.181 239.463L241.528 242.009L155.427 371.454L141.513 361.271C141.237 361.075 140.962 360.977 140.686 360.781L112.72 349.717C113.271 349.619 113.685 349.325 113.96 348.934L118.644 342.373C118.782 342.275 118.782 342.177 118.782 342.079L139.033 284.113C139.171 283.721 139.033 283.33 138.757 282.938C138.482 282.546 137.931 282.35 137.38 282.253L72.2181 271.482C71.116 271.286 69.8761 271.775 69.6006 272.657C69.3251 273.44 70.0139 274.321 71.2537 274.517L134.349 284.896L114.649 341.198L110.103 347.661C109.827 348.052 109.827 348.346 109.965 348.738L59.5439 328.861L78.8307 302.227C80.3461 300.269 80.4838 297.919 79.5195 295.765C78.4174 293.611 76.3509 291.946 73.4579 290.967L54.0334 284.7C52.9313 284.309 51.6915 284.7 51.1404 285.484C50.5893 286.267 51.1404 287.148 52.2425 287.54L71.667 293.807C73.4579 294.394 74.8356 295.471 75.5244 296.744C76.2132 298.115 76.0754 299.486 75.1111 300.759L55.8243 327.392L-12.9192 300.171C-14.7101 299.486 -16.7765 299.975 -17.7409 301.15C-18.7052 302.423 -18.0164 303.892 -16.3632 304.577L136.691 365.09L151.983 376.252L152.12 376.35L126.359 415.125C125.532 416.398 126.221 417.965 128.012 418.552C128.563 418.748 128.976 418.846 129.527 418.846C130.905 418.846 132.145 418.258 132.834 417.377L156.115 382.421L253.238 420.706C253.789 420.902 254.34 421 255.029 421C256.269 421 257.509 420.511 258.198 419.727C259.162 418.454 258.473 416.986 256.82 416.3L159.284 377.819L225.823 277.65L252.274 287.148L214.389 333.463C213.838 334.148 214.113 335.127 215.216 335.519C215.491 335.617 215.904 335.715 216.318 335.715C217.007 335.715 217.833 335.421 218.246 334.932L235.329 314.075L262.606 325.238L243.732 349.619C241.528 352.459 242.906 355.984 246.763 357.648L294.154 378.504C295.531 379.092 297.047 379.386 298.7 379.386C299.389 379.386 300.215 379.288 300.904 379.19C303.108 378.798 305.037 377.623 306.139 376.252L325.426 350.794L347.743 359.9C349.947 360.781 351.463 362.25 352.014 363.915C352.565 365.677 352.289 367.44 350.912 368.909L329.283 393.486C329.145 393.583 329.145 393.681 329.007 393.779L318.951 414.44C318.538 415.223 319.226 416.104 320.328 416.398C320.604 416.496 320.742 416.496 321.017 416.496C321.844 416.496 322.808 416.104 323.084 415.419L333.003 394.954L354.494 370.573C356.422 368.321 356.973 365.775 356.147 363.229C355.32 360.684 352.978 358.627 349.81 357.257L268.392 323.965L282.168 306.144C282.719 305.361 282.306 304.48 281.342 304.088C280.24 303.696 279 303.99 278.449 304.675L264.672 322.398L237.395 311.236L257.233 287.05C257.509 286.659 257.646 286.267 257.371 285.875C257.233 285.484 256.82 285.092 256.269 284.896L227.752 274.713L247.865 244.359L291.674 260.123C291.949 260.221 292.363 260.319 292.638 260.319C292.776 260.319 292.776 260.319 292.914 260.319L305.175 259.438L386.454 261.494H386.592C387.694 261.494 388.659 260.809 388.796 260.026C388.796 259.144 387.97 258.459 386.73 258.459L307.379 256.403L309.032 230.553L324.324 210.871L369.785 211.949L369.372 233.784L355.182 233.588C354.08 233.588 352.978 234.273 352.978 235.057C352.978 235.938 353.942 236.623 355.045 236.623L370.474 236.917H372.127L395.271 237.309C396.373 237.309 397.338 236.623 397.475 235.84C397.613 234.959 396.649 234.273 395.547 234.273ZM266.463 326.609L321.706 349.227L302.419 374.784C301.868 375.567 300.904 376.056 299.802 376.252C298.7 376.448 297.46 376.35 296.496 375.861L249.105 355.004C247.177 354.123 246.488 352.459 247.59 350.99L266.463 326.609Z" fill="white" stroke="#BBB4B5" stroke-width="0.546797" stroke-miterlimit="10"/>
<path d="M270.871 83.3842C271.284 83.6779 271.836 83.7758 272.387 83.7758C272.938 83.7758 273.489 83.58 273.902 83.2862C274.729 82.6987 274.729 81.7196 273.764 81.1321L219.486 44.3155L236.844 31.0968L265.636 47.7426C266.463 48.2322 267.703 48.2322 268.529 47.6447L341.957 -6.40522C342.783 -6.99271 342.783 -7.97188 341.957 -8.55938C341.13 -9.14687 339.752 -9.14687 338.926 -8.55938L267.014 44.6092L238.084 27.9635C237.257 27.4739 235.879 27.4739 235.191 28.0614L215.077 43.4343C214.251 44.0218 214.251 45.0009 215.215 45.5884L270.871 83.3842Z" fill="white" stroke="#BBB4B5" stroke-width="0.546797" stroke-miterlimit="10"/>
<path d="M172.923 -0.921681L52.7936 91.4135C51.967 92.001 52.1048 92.9802 52.9314 93.5677C53.3447 93.8614 53.8957 93.9593 54.4468 93.9593C54.9978 93.9593 55.5489 93.7635 55.9622 93.4697L176.091 1.13456L199.097 15.822C202.679 18.172 203.093 22.0887 200.062 24.8303L192.072 31.6845C191.383 32.3699 191.383 33.2511 192.347 33.8386C192.76 34.0345 193.174 34.2303 193.725 34.2303C194.276 34.2303 194.965 34.0345 195.378 33.6428L203.368 26.7887C207.914 22.872 207.363 16.997 201.99 13.5699L167.55 -8.46125C166.723 -9.04874 165.346 -8.95083 164.519 -8.36333C163.692 -7.77583 163.83 -6.79667 164.657 -6.20917L172.923 -0.921681Z" fill="white" stroke="#BBB4B5" stroke-width="0.546797" stroke-miterlimit="10"/>
<path d="M30.476 40.8886C31.027 40.8886 31.5781 40.6928 32.1291 40.399L92.6069 -6.30708C93.4335 -6.89458 93.2957 -7.87375 92.4691 -8.46125C91.6426 -9.04874 90.2649 -8.95083 89.4384 -8.36333L28.9606 38.3428C28.134 38.9303 28.2718 39.9095 29.0984 40.497C29.5117 40.7907 29.9249 40.8886 30.476 40.8886Z" fill="white" stroke="#BBB4B5" stroke-width="0.546797" stroke-miterlimit="10"/>
<path d="M3.33683 87.007L-14.159 95.0361C-15.1233 95.5257 -15.3989 96.407 -14.8478 97.1903C-14.4345 97.6799 -13.7457 97.8757 -13.0569 97.8757C-12.6436 97.8757 -12.2303 97.7778 -11.9548 97.6799L7.19419 88.8674L23.5879 86.9091L44.3901 110.997C46.181 113.151 45.2167 116.088 42.1859 117.459L-12.5059 141.644C-13.4702 142.134 -13.8835 143.015 -13.1947 143.799C-12.7814 144.288 -12.0926 144.484 -11.4038 144.484C-10.9905 144.484 -10.5772 144.386 -10.3017 144.288L44.3901 120.103C49.4873 117.851 51.0027 113.151 47.9719 109.528L27.583 85.2445L52.7936 67.5216C53.6202 66.9341 53.6202 65.955 52.7936 65.3675L38.053 54.4987C37.2264 53.9112 35.8488 53.9112 35.0222 54.4987C34.1956 55.0862 34.1956 56.0654 35.0222 56.6529L48.3852 66.5425L24.5523 83.2862C24.2767 83.2862 23.8635 83.3841 23.5879 83.482C23.3124 83.5799 23.0369 83.7757 22.8991 83.9716L7.60748 85.7341L-14.0212 69.0883C-14.8478 68.5008 -16.2254 68.4029 -17.052 68.9904C-17.8786 69.5779 -18.0164 70.557 -17.1898 71.1445L3.33683 87.007Z" fill="white" stroke="#BBB4B5" stroke-width="0.546797" stroke-miterlimit="10"/>
<path d="M267.153 46.6655L275.006 79.9571" stroke="white" stroke-width="3.28078" stroke-miterlimit="10" stroke-linecap="round" stroke-linejoin="round"/>
<path d="M66.6856 182.666L58.4424 187.411L65.4646 193.574L73.7079 188.83L66.6856 182.666Z" fill="#E2E0E1"/>
<path d="M86.8289 184.4L78.9463 189.444L86.4126 195.338L94.2952 190.293L86.8289 184.4Z" fill="#E2E0E1"/>
<path d="M108.328 161L98.3984 167.355L103.56 171.43L113.49 165.075L108.328 161Z" fill="#E2E0E1"/>
<path fill-rule="evenodd" clip-rule="evenodd" d="M34.05 235.973C36.8293 235.697 39 233.352 39 230.5C39 227.462 36.5376 225 33.5 225C30.4624 225 28 227.462 28 230.5C28 233.352 30.1707 235.697 32.95 235.973V241.5C32.95 241.804 33.1962 242.05 33.5 242.05C33.8037 242.05 34.05 241.804 34.05 241.5V235.973Z" fill="#C91C1C"/>
<circle cx="33.5" cy="230.5" r="2.75" fill="white"/>
<path opacity="0.2" d="M279 79.5C279 84.1944 275.194 88 270.5 88C265.806 88 262 84.1944 262 79.5C262 74.8056 265.806 71 270.5 71C275.194 71 279 74.8056 279 79.5Z" fill="#C91C1C"/>
<path d="M276.733 79.4999C276.733 82.9425 273.943 85.7333 270.5 85.7333C267.057 85.7333 264.267 82.9425 264.267 79.4999C264.267 76.0574 267.057 73.2666 270.5 73.2666C273.943 73.2666 276.733 76.0574 276.733 79.4999Z" fill="#AC0E0E"/>
<circle cx="270.5" cy="79.5" r="3.11667" fill="white"/>
<path d="M302.558 258.752L387.557 292.827V260.221L307.655 257.871L302.558 258.752Z" fill="#E2E0E1"/>
<path d="M340.58 179.146L344.575 175.523L373.368 188.546C373.368 188.546 375.434 185.217 375.985 185.315C376.536 185.413 394.721 192.756 394.721 192.756L391.828 200.785L340.58 179.146Z" fill="#E2E0E1"/>
<path d="M360.143 136.16L364.826 132.733L372.266 138.021L367.444 141.448L360.143 136.16Z" fill="#E2E0E1"/>
<path d="M331.213 212.927L330.799 227.32L344.438 227.908L343.749 240.833L310.824 240.539L309.722 254.345L391.002 256.989L388.109 241.812L354.908 241.225L355.597 228.006L370.337 228.398L370.475 213.416L331.213 212.927Z" fill="#E2E0E1"/>
<path d="M256.545 275.985L263.02 278.825L267.428 273.831L261.091 271.285L256.545 275.985Z" fill="#E2E0E1"/>
<path d="M284.925 265.41L279.414 272.558L284.925 274.908L290.297 267.76L284.925 265.41Z" fill="#E2E0E1"/>
<path d="M61.8867 256.5L71.5301 264.529L77.1784 260.808L67.6728 253.171L61.8867 256.5Z" fill="#E2E0E1"/>
<path d="M205.711 183.944L209.844 186.294L218.661 180.419L214.114 177.579L205.711 183.944Z" fill="#E2E0E1"/>
<path d="M315.646 169.746L345.954 150.848L350.638 153.785L339.204 160.639L341.133 163.773L326.116 172.977L315.646 169.746Z" fill="#E2E0E1"/>
<path d="M312.681 189.535V183.598H313.529V188.797H316.743V189.535H312.681ZM320.289 189.603C319.836 189.603 319.415 189.527 319.025 189.374C318.641 189.221 318.307 189.009 318.024 188.738C317.742 188.461 317.521 188.139 317.363 187.771C317.204 187.404 317.125 187.002 317.125 186.567C317.125 186.131 317.204 185.73 317.363 185.362C317.521 184.995 317.742 184.675 318.024 184.404C318.307 184.127 318.641 183.912 319.025 183.759C319.41 183.607 319.831 183.53 320.289 183.53C320.741 183.53 321.157 183.607 321.536 183.759C321.92 183.906 322.254 184.118 322.536 184.395C322.825 184.667 323.045 184.986 323.198 185.354C323.356 185.721 323.435 186.126 323.435 186.567C323.435 187.008 323.356 187.412 323.198 187.78C323.045 188.147 322.825 188.469 322.536 188.746C322.254 189.018 321.92 189.23 321.536 189.382C321.157 189.53 320.741 189.603 320.289 189.603ZM320.289 188.848C320.617 188.848 320.919 188.792 321.196 188.679C321.479 188.565 321.722 188.407 321.926 188.204C322.135 187.994 322.296 187.751 322.409 187.474C322.528 187.197 322.587 186.895 322.587 186.567C322.587 186.239 322.528 185.936 322.409 185.659C322.296 185.382 322.135 185.142 321.926 184.938C321.722 184.729 321.479 184.568 321.196 184.455C320.919 184.342 320.617 184.285 320.289 184.285C319.955 184.285 319.647 184.342 319.364 184.455C319.087 184.568 318.844 184.729 318.635 184.938C318.426 185.142 318.262 185.382 318.143 185.659C318.03 185.936 317.973 186.239 317.973 186.567C317.973 186.895 318.03 187.197 318.143 187.474C318.262 187.751 318.426 187.994 318.635 188.204C318.844 188.407 319.087 188.565 319.364 188.679C319.647 188.792 319.955 188.848 320.289 188.848ZM325.915 189.535L323.93 183.598H324.804L326.627 189.077H326.186L328.078 183.598H328.858L330.707 189.077H330.283L332.132 183.598H332.938L330.953 189.535H330.062L328.332 184.455H328.561L326.822 189.535H325.915ZM334.747 186.16H337.8V186.88H334.747V186.16ZM334.823 188.797H338.284V189.535H333.975V183.598H338.165V184.336H334.823V188.797ZM339.657 189.535V183.598H341.972C342.492 183.598 342.936 183.68 343.304 183.844C343.671 184.008 343.954 184.246 344.152 184.557C344.35 184.868 344.449 185.238 344.449 185.668C344.449 186.097 344.35 186.468 344.152 186.779C343.954 187.084 343.671 187.319 343.304 187.483C342.936 187.647 342.492 187.729 341.972 187.729H340.123L340.505 187.338V189.535H339.657ZM343.626 189.535L342.116 187.381H343.024L344.551 189.535H343.626ZM340.505 187.423L340.123 187.008H341.947C342.49 187.008 342.9 186.892 343.177 186.66C343.459 186.423 343.601 186.092 343.601 185.668C343.601 185.244 343.459 184.916 343.177 184.684C342.9 184.452 342.49 184.336 341.947 184.336H340.123L340.505 183.912V187.423ZM347.532 189.535L344.92 183.598H345.836L348.236 189.077H347.71L350.128 183.598H350.976L348.372 189.535H347.532ZM350.643 189.535L353.332 183.598H354.172L356.869 189.535H355.978L353.578 184.073H353.917L351.517 189.535H350.643ZM351.788 188.051L352.017 187.372H355.359L355.605 188.051H351.788ZM357.754 189.535V183.598H358.602V189.535H357.754ZM360.38 189.535V183.598H361.228V188.797H364.442V189.535H360.38ZM367.088 189.603C366.635 189.603 366.203 189.535 365.79 189.399C365.377 189.258 365.052 189.077 364.815 188.857L365.129 188.195C365.355 188.393 365.643 188.557 365.994 188.687C366.344 188.817 366.709 188.882 367.088 188.882C367.433 188.882 367.713 188.843 367.927 188.763C368.142 188.684 368.301 188.577 368.402 188.441C368.504 188.3 368.555 188.141 368.555 187.966C368.555 187.763 368.487 187.599 368.352 187.474C368.221 187.35 368.049 187.251 367.834 187.177C367.625 187.098 367.393 187.03 367.139 186.974C366.884 186.917 366.627 186.852 366.367 186.779C366.112 186.7 365.878 186.601 365.663 186.482C365.454 186.363 365.284 186.205 365.154 186.007C365.024 185.803 364.959 185.543 364.959 185.227C364.959 184.921 365.038 184.641 365.196 184.387C365.36 184.127 365.609 183.921 365.943 183.768C366.282 183.61 366.712 183.53 367.232 183.53C367.577 183.53 367.919 183.576 368.258 183.666C368.597 183.757 368.891 183.887 369.14 184.056L368.86 184.735C368.606 184.565 368.337 184.444 368.055 184.37C367.772 184.291 367.498 184.251 367.232 184.251C366.898 184.251 366.624 184.294 366.409 184.379C366.194 184.463 366.036 184.576 365.934 184.718C365.838 184.859 365.79 185.017 365.79 185.193C365.79 185.402 365.855 185.569 365.985 185.693C366.121 185.818 366.293 185.916 366.503 185.99C366.717 186.063 366.952 186.131 367.207 186.194C367.461 186.25 367.715 186.315 367.97 186.389C368.23 186.462 368.465 186.558 368.674 186.677C368.889 186.796 369.061 186.954 369.191 187.152C369.321 187.35 369.386 187.604 369.386 187.915C369.386 188.215 369.304 188.495 369.14 188.755C368.976 189.009 368.722 189.216 368.377 189.374C368.038 189.527 367.608 189.603 367.088 189.603ZM370.625 189.535V183.598H373.288C373.973 183.598 374.498 183.737 374.866 184.014C375.233 184.285 375.417 184.658 375.417 185.133C375.417 185.456 375.344 185.727 375.197 185.948C375.055 186.168 374.863 186.338 374.62 186.456C374.377 186.575 374.114 186.635 373.831 186.635L373.984 186.38C374.323 186.38 374.623 186.439 374.883 186.558C375.143 186.677 375.349 186.852 375.502 187.084C375.655 187.31 375.731 187.593 375.731 187.932C375.731 188.441 375.539 188.837 375.154 189.12C374.775 189.397 374.21 189.535 373.458 189.535H370.625ZM371.473 188.848H373.424C373.893 188.848 374.252 188.769 374.501 188.611C374.75 188.452 374.874 188.204 374.874 187.864C374.874 187.519 374.75 187.268 374.501 187.109C374.252 186.951 373.893 186.872 373.424 186.872H371.397V186.185H373.212C373.642 186.185 373.975 186.106 374.213 185.948C374.45 185.789 374.569 185.552 374.569 185.235C374.569 184.918 374.45 184.681 374.213 184.523C373.975 184.364 373.642 184.285 373.212 184.285H371.473V188.848ZM379.504 189.603C378.724 189.603 378.11 189.38 377.663 188.933C377.217 188.486 376.993 187.833 376.993 186.974V183.598H377.842V186.94C377.842 187.601 377.986 188.085 378.274 188.39C378.568 188.696 378.981 188.848 379.512 188.848C380.049 188.848 380.462 188.696 380.751 188.39C381.045 188.085 381.192 187.601 381.192 186.94V183.598H382.014V186.974C382.014 187.833 381.791 188.486 381.344 188.933C380.903 189.38 380.29 189.603 379.504 189.603ZM383.753 189.535V183.598H386.069C386.589 183.598 387.033 183.68 387.4 183.844C387.768 184.008 388.05 184.246 388.248 184.557C388.446 184.868 388.545 185.238 388.545 185.668C388.545 186.097 388.446 186.468 388.248 186.779C388.05 187.084 387.768 187.319 387.4 187.483C387.033 187.647 386.589 187.729 386.069 187.729H384.22L384.601 187.338V189.535H383.753ZM387.722 189.535L386.213 187.381H387.12L388.647 189.535H387.722ZM384.601 187.423L384.22 187.008H386.043C386.586 187.008 386.996 186.892 387.273 186.66C387.556 186.423 387.697 186.092 387.697 185.668C387.697 185.244 387.556 184.916 387.273 184.684C386.996 184.452 386.586 184.336 386.043 184.336H384.22L384.601 183.912V187.423ZM392.595 189.603C392.137 189.603 391.716 189.53 391.332 189.382C390.947 189.23 390.614 189.018 390.331 188.746C390.048 188.469 389.828 188.147 389.669 187.78C389.511 187.412 389.432 187.008 389.432 186.567C389.432 186.126 389.511 185.721 389.669 185.354C389.828 184.986 390.048 184.667 390.331 184.395C390.619 184.118 390.956 183.906 391.34 183.759C391.725 183.607 392.149 183.53 392.612 183.53C393.082 183.53 393.511 183.607 393.902 183.759C394.292 183.912 394.622 184.141 394.894 184.446L394.368 184.972C394.125 184.735 393.859 184.562 393.571 184.455C393.288 184.342 392.98 184.285 392.646 184.285C392.307 184.285 391.99 184.342 391.696 184.455C391.408 184.568 391.156 184.726 390.942 184.93C390.732 185.133 390.568 185.376 390.45 185.659C390.337 185.936 390.28 186.239 390.28 186.567C390.28 186.889 390.337 187.191 390.45 187.474C390.568 187.751 390.732 187.994 390.942 188.204C391.156 188.407 391.408 188.565 391.696 188.679C391.985 188.792 392.299 188.848 392.638 188.848C392.955 188.848 393.257 188.8 393.545 188.704C393.839 188.602 394.111 188.435 394.36 188.204L394.843 188.848C394.549 189.097 394.204 189.286 393.808 189.416C393.418 189.541 393.014 189.603 392.595 189.603ZM394.029 188.738V186.533H394.843V188.848L394.029 188.738Z" fill="#606161"/>
<path d="M147.225 285.795C146.773 285.795 146.34 285.728 145.928 285.592C145.515 285.45 145.19 285.27 144.952 285.049L145.266 284.387C145.492 284.585 145.781 284.749 146.131 284.879C146.482 285.009 146.846 285.074 147.225 285.074C147.57 285.074 147.85 285.035 148.065 284.956C148.28 284.877 148.438 284.769 148.54 284.633C148.642 284.492 148.692 284.334 148.692 284.158C148.692 283.955 148.625 283.791 148.489 283.667C148.359 283.542 148.186 283.443 147.972 283.37C147.762 283.291 147.531 283.223 147.276 283.166C147.022 283.11 146.764 283.045 146.504 282.971C146.25 282.892 146.015 282.793 145.8 282.674C145.591 282.556 145.422 282.397 145.291 282.199C145.161 281.996 145.096 281.736 145.096 281.419C145.096 281.114 145.176 280.834 145.334 280.579C145.498 280.319 145.747 280.113 146.08 279.96C146.419 279.802 146.849 279.723 147.369 279.723C147.714 279.723 148.056 279.768 148.396 279.858C148.735 279.949 149.029 280.079 149.278 280.249L148.998 280.927C148.743 280.757 148.475 280.636 148.192 280.562C147.909 280.483 147.635 280.444 147.369 280.444C147.036 280.444 146.762 280.486 146.547 280.571C146.332 280.656 146.174 280.769 146.072 280.91C145.976 281.051 145.928 281.21 145.928 281.385C145.928 281.594 145.993 281.761 146.123 281.885C146.258 282.01 146.431 282.109 146.64 282.182C146.855 282.256 147.09 282.324 147.344 282.386C147.598 282.442 147.853 282.507 148.107 282.581C148.367 282.654 148.602 282.751 148.811 282.869C149.026 282.988 149.199 283.146 149.329 283.344C149.459 283.542 149.524 283.797 149.524 284.108C149.524 284.407 149.442 284.687 149.278 284.947C149.114 285.202 148.859 285.408 148.514 285.566C148.175 285.719 147.745 285.795 147.225 285.795ZM151.859 285.728V280.528H149.823V279.791H154.734V280.528H152.698V285.728H151.859ZM155.658 285.728V279.791H157.973C158.493 279.791 158.937 279.873 159.305 280.037C159.672 280.201 159.955 280.438 160.153 280.749C160.351 281.06 160.45 281.43 160.45 281.86C160.45 282.29 160.351 282.66 160.153 282.971C159.955 283.276 159.672 283.511 159.305 283.675C158.937 283.839 158.493 283.921 157.973 283.921H156.124L156.506 283.531V285.728H155.658ZM159.627 285.728L158.117 283.573H159.025L160.551 285.728H159.627ZM156.506 283.616L156.124 283.2H157.948C158.49 283.2 158.9 283.084 159.177 282.852C159.46 282.615 159.602 282.284 159.602 281.86C159.602 281.436 159.46 281.108 159.177 280.876C158.9 280.644 158.49 280.528 157.948 280.528H156.124L156.506 280.104V283.616ZM162.592 282.352H165.645V283.073H162.592V282.352ZM162.668 284.99H166.128V285.728H161.82V279.791H166.01V280.528H162.668V284.99ZM168.274 282.352H171.327V283.073H168.274V282.352ZM168.35 284.99H171.81V285.728H167.502V279.791H171.692V280.528H168.35V284.99ZM174.363 285.728V280.528H172.327V279.791H177.238V280.528H175.202V285.728H174.363Z" fill="#606161"/>
<path d="M127.696 76.8872C126.916 76.8872 126.302 76.6638 125.855 76.2172C125.409 75.7705 125.185 75.1174 125.185 74.258V70.8824H126.033V74.224C126.033 74.8856 126.178 75.369 126.466 75.6744C126.76 75.9797 127.173 76.1323 127.704 76.1323C128.241 76.1323 128.654 75.9797 128.943 75.6744C129.237 75.369 129.384 74.8856 129.384 74.224V70.8824H130.206V74.258C130.206 75.1174 129.983 75.7705 129.536 76.2172C129.095 76.6638 128.482 76.8872 127.696 76.8872ZM131.945 76.8193V70.8824H132.641L136.567 75.7592H136.203V70.8824H137.051V76.8193H136.355L132.429 71.9426H132.793V76.8193H131.945ZM138.828 76.8193V70.8824H139.676V76.8193H138.828ZM144.134 76.8872C143.681 76.8872 143.26 76.8109 142.87 76.6582C142.485 76.5055 142.152 76.2935 141.869 76.0221C141.586 75.745 141.366 75.4227 141.208 75.0552C141.049 74.6877 140.97 74.2862 140.97 73.8509C140.97 73.4155 141.049 73.014 141.208 72.6465C141.366 72.279 141.586 71.9595 141.869 71.6881C142.152 71.4111 142.485 71.1962 142.87 71.0435C143.254 70.8909 143.676 70.8146 144.134 70.8146C144.586 70.8146 145.001 70.8909 145.38 71.0435C145.765 71.1906 146.098 71.4026 146.381 71.6796C146.669 71.9511 146.89 72.2705 147.043 72.638C147.201 73.0056 147.28 73.4098 147.28 73.8509C147.28 74.2919 147.201 74.6962 147.043 75.0637C146.89 75.4312 146.669 75.7535 146.381 76.0306C146.098 76.302 145.765 76.514 145.38 76.6667C145.001 76.8137 144.586 76.8872 144.134 76.8872ZM144.134 76.1323C144.462 76.1323 144.764 76.0758 145.041 75.9627C145.324 75.8496 145.567 75.6913 145.77 75.4878C145.98 75.2786 146.141 75.0354 146.254 74.7584C146.373 74.4813 146.432 74.1788 146.432 73.8509C146.432 73.5229 146.373 73.2204 146.254 72.9434C146.141 72.6663 145.98 72.426 145.77 72.2225C145.567 72.0132 145.324 71.8521 145.041 71.739C144.764 71.6259 144.462 71.5694 144.134 71.5694C143.8 71.5694 143.492 71.6259 143.209 71.739C142.932 71.8521 142.689 72.0132 142.48 72.2225C142.271 72.426 142.107 72.6663 141.988 72.9434C141.875 73.2204 141.818 73.5229 141.818 73.8509C141.818 74.1788 141.875 74.4813 141.988 74.7584C142.107 75.0354 142.271 75.2786 142.48 75.4878C142.689 75.6913 142.932 75.8496 143.209 75.9627C143.492 76.0758 143.8 76.1323 144.134 76.1323ZM148.576 76.8193V70.8824H149.272L153.199 75.7592H152.834V70.8824H153.682V76.8193H152.987L149.06 71.9426H149.425V76.8193H148.576Z" fill="#606161"/>
<path d="M231.069 154.352C231.002 154.573 230.908 154.779 230.785 154.971C230.663 155.159 230.54 155.304 230.415 155.404L230.081 155.143C230.195 155.041 230.305 154.911 230.411 154.751C230.517 154.592 230.596 154.425 230.648 154.251C230.716 154.026 230.732 153.86 230.695 153.753C230.66 153.643 230.583 153.578 230.465 153.561C230.379 153.547 230.302 153.567 230.236 153.62C230.169 153.673 230.108 153.748 230.054 153.845C230 153.939 229.947 154.044 229.893 154.162C229.836 154.28 229.776 154.397 229.712 154.514C229.644 154.629 229.569 154.734 229.487 154.826C229.401 154.919 229.303 154.988 229.191 155.034C229.076 155.08 228.939 155.09 228.78 155.066C228.614 155.041 228.482 154.973 228.384 154.864C228.287 154.754 228.23 154.613 228.214 154.438C228.195 154.26 228.22 154.057 228.289 153.829C228.341 153.655 228.417 153.482 228.515 153.311C228.611 153.137 228.716 152.998 228.83 152.896L229.163 153.163C229.043 153.271 228.948 153.388 228.878 153.514C228.807 153.64 228.752 153.768 228.713 153.899C228.649 154.11 228.638 154.273 228.68 154.388C228.718 154.503 228.792 154.568 228.903 154.585C228.996 154.599 229.078 154.58 229.148 154.528C229.216 154.471 229.278 154.397 229.335 154.304C229.393 154.207 229.45 154.1 229.508 153.983C229.561 153.865 229.622 153.748 229.689 153.632C229.753 153.515 229.826 153.412 229.907 153.323C229.989 153.23 230.086 153.161 230.198 153.115C230.31 153.065 230.445 153.052 230.6 153.076C230.766 153.101 230.896 153.17 230.989 153.283C231.082 153.395 231.137 153.542 231.155 153.723C231.169 153.904 231.14 154.114 231.069 154.352ZM231.873 151.682C231.792 151.95 231.655 152.146 231.462 152.271C231.268 152.396 231.033 152.437 230.756 152.395L228.233 152.012L228.378 151.529L230.881 151.909C231.03 151.932 231.155 151.914 231.255 151.856C231.357 151.794 231.428 151.696 231.469 151.562C231.514 151.411 231.509 151.279 231.452 151.165L231.856 151.069C231.9 151.153 231.921 151.249 231.921 151.358C231.922 151.463 231.906 151.571 231.873 151.682ZM229.109 152.618L228.699 152.556L229.211 150.856L229.621 150.918L229.109 152.618ZM232.193 150.51L229.441 150.091L229.58 149.629L230.328 149.742L230.127 149.759C229.959 149.657 229.851 149.51 229.803 149.321C229.755 149.131 229.77 148.909 229.846 148.654L230.329 148.728C230.32 148.747 230.312 148.767 230.306 148.787C230.301 148.804 230.296 148.821 230.291 148.837C230.213 149.096 230.231 149.312 230.345 149.487C230.459 149.662 230.666 149.773 230.967 149.819L232.338 150.027L232.193 150.51ZM233.184 147.324C233.098 147.609 232.962 147.851 232.775 148.051C232.59 148.247 232.373 148.389 232.126 148.478C231.879 148.563 231.619 148.585 231.346 148.543C231.072 148.502 230.847 148.408 230.67 148.262C230.494 148.112 230.378 147.928 230.321 147.709C230.261 147.486 230.27 147.247 230.346 146.992C230.424 146.734 230.552 146.515 230.729 146.335C230.906 146.155 231.119 146.026 231.366 145.948C231.612 145.867 231.877 145.847 232.16 145.89C232.181 145.894 232.205 145.899 232.232 145.906C232.259 145.911 232.285 145.916 232.308 145.923L231.625 148.191L231.267 148.137L231.874 146.12L231.94 146.335C231.764 146.305 231.596 146.316 231.435 146.369C231.275 146.422 231.137 146.508 231.021 146.627C230.903 146.742 230.818 146.885 230.767 147.056C230.717 147.224 230.711 147.379 230.752 147.522C230.788 147.664 230.867 147.783 230.986 147.879C231.103 147.973 231.251 148.035 231.431 148.062L231.514 148.075C231.697 148.102 231.874 148.087 232.043 148.029C232.211 147.967 232.356 147.868 232.48 147.732C232.604 147.597 232.695 147.434 232.752 147.243C232.8 147.085 232.815 146.938 232.798 146.802C232.782 146.663 232.733 146.537 232.652 146.423L233.054 146.205C233.163 146.348 233.228 146.516 233.25 146.708C233.273 146.897 233.251 147.103 233.184 147.324ZM234.111 144.245C234.025 144.53 233.889 144.772 233.702 144.971C233.516 145.168 233.3 145.31 233.052 145.399C232.806 145.484 232.546 145.506 232.272 145.464C231.999 145.422 231.774 145.329 231.597 145.183C231.421 145.033 231.305 144.849 231.248 144.63C231.188 144.407 231.197 144.168 231.273 143.913C231.351 143.655 231.478 143.436 231.656 143.256C231.833 143.076 232.045 142.947 232.293 142.869C232.539 142.787 232.803 142.768 233.087 142.811C233.108 142.814 233.132 142.82 233.158 142.827C233.186 142.831 233.212 142.837 233.235 142.844L232.552 145.112L232.194 145.058L232.801 143.041L232.866 143.256C232.691 143.226 232.523 143.237 232.362 143.29C232.201 143.343 232.063 143.429 231.948 143.548C231.83 143.663 231.745 143.806 231.694 143.977C231.643 144.145 231.638 144.3 231.678 144.443C231.715 144.585 231.794 144.704 231.913 144.799C232.029 144.894 232.178 144.955 232.358 144.983L232.441 144.995C232.624 145.023 232.801 145.008 232.97 144.95C233.137 144.887 233.283 144.789 233.407 144.653C233.531 144.518 233.622 144.354 233.679 144.163C233.727 144.006 233.742 143.859 233.725 143.723C233.709 143.584 233.66 143.457 233.579 143.343L233.981 143.126C234.09 143.269 234.155 143.436 234.177 143.629C234.199 143.818 234.177 144.023 234.111 144.245ZM234.956 141.437C234.875 141.705 234.738 141.902 234.545 142.027C234.352 142.152 234.117 142.193 233.84 142.151L231.316 141.767L231.462 141.284L233.964 141.665C234.113 141.688 234.238 141.67 234.339 141.611C234.441 141.55 234.512 141.452 234.552 141.318C234.597 141.167 234.592 141.035 234.536 140.921L234.939 140.825C234.983 140.908 235.005 141.005 235.005 141.113C235.005 141.219 234.989 141.326 234.956 141.437ZM232.193 142.374L231.782 142.311L232.294 140.612L232.704 140.674L232.193 142.374ZM234.39 154.168C234.456 153.95 234.557 153.765 234.693 153.614C234.83 153.46 235 153.349 235.205 153.282C235.41 153.215 235.647 153.202 235.917 153.243L237.501 153.484L237.356 153.967L235.829 153.735C235.563 153.694 235.343 153.727 235.169 153.834C234.997 153.938 234.877 154.103 234.808 154.331C234.756 154.502 234.746 154.657 234.777 154.795C234.808 154.933 234.88 155.047 234.994 155.138C235.109 155.225 235.267 155.285 235.467 155.315L236.885 155.531L236.74 156.013L233.988 155.595L234.127 155.132L234.87 155.245L234.65 155.291C234.496 155.176 234.396 155.021 234.35 154.824C234.304 154.628 234.318 154.409 234.39 154.168ZM238.268 150.936L237.686 150.847L237.57 150.856L236.578 150.705C236.367 150.673 236.186 150.709 236.035 150.812C235.882 150.912 235.77 151.08 235.699 151.318C235.651 151.476 235.632 151.634 235.642 151.794C235.649 151.952 235.681 152.091 235.74 152.208L235.306 152.352C235.233 152.198 235.196 152.02 235.195 151.82C235.191 151.616 235.221 151.409 235.284 151.197C235.394 150.832 235.571 150.564 235.814 150.394C236.057 150.225 236.367 150.168 236.744 150.226L238.406 150.478L238.268 150.936ZM238.036 151.816C237.976 152.013 237.889 152.183 237.774 152.323C237.661 152.46 237.531 152.559 237.386 152.621C237.237 152.683 237.085 152.702 236.929 152.678C236.78 152.656 236.655 152.601 236.554 152.516C236.454 152.427 236.391 152.3 236.365 152.135C236.34 151.966 236.367 151.749 236.447 151.485L236.701 150.64L237.059 150.694L236.811 151.519C236.738 151.76 236.731 151.929 236.789 152.026C236.847 152.122 236.934 152.179 237.052 152.197C237.187 152.218 237.312 152.182 237.426 152.091C237.537 151.999 237.62 151.861 237.676 151.677C237.73 151.496 237.736 151.332 237.693 151.185C237.652 151.035 237.56 150.918 237.419 150.833L237.791 150.79C237.934 150.878 238.03 151.01 238.079 151.186C238.124 151.361 238.109 151.571 238.036 151.816ZM236.9 145.828C236.965 145.614 237.065 145.431 237.201 145.28C237.337 145.129 237.507 145.021 237.711 144.958C237.916 144.891 238.153 144.878 238.423 144.919L240.006 145.159L239.861 145.642L238.335 145.41C238.068 145.37 237.849 145.399 237.678 145.5C237.507 145.6 237.388 145.759 237.323 145.977C237.274 146.138 237.266 146.284 237.299 146.415C237.332 146.546 237.406 146.656 237.521 146.743C237.637 146.827 237.795 146.885 237.996 146.915L239.413 147.131L239.268 147.614L237.741 147.381C237.475 147.341 237.256 147.371 237.085 147.471C236.914 147.568 236.796 147.727 236.729 147.948C236.682 148.106 236.675 148.25 236.707 148.381C236.74 148.512 236.814 148.622 236.929 148.709C237.044 148.797 237.202 148.856 237.402 148.887L238.82 149.102L238.674 149.585L235.923 149.166L236.062 148.704L236.794 148.815L236.584 148.862C236.43 148.751 236.328 148.601 236.28 148.411C236.232 148.221 236.243 148.011 236.313 147.78C236.39 147.525 236.522 147.315 236.709 147.151C236.892 146.986 237.124 146.895 237.404 146.878L237.262 147.061C237.075 146.949 236.948 146.782 236.88 146.562C236.813 146.341 236.82 146.097 236.9 145.828ZM240.662 143.089C240.576 143.374 240.44 143.616 240.253 143.816C240.068 144.012 239.851 144.154 239.604 144.243C239.357 144.328 239.097 144.35 238.824 144.308C238.55 144.267 238.325 144.173 238.148 144.027C237.973 143.877 237.856 143.693 237.799 143.474C237.739 143.251 237.748 143.012 237.825 142.757C237.902 142.499 238.03 142.28 238.207 142.1C238.384 141.92 238.597 141.792 238.845 141.714C239.09 141.632 239.355 141.612 239.639 141.655C239.659 141.659 239.683 141.664 239.71 141.672C239.737 141.676 239.763 141.681 239.786 141.688L239.103 143.956L238.745 143.902L239.352 141.885L239.418 142.1C239.242 142.07 239.074 142.081 238.913 142.134C238.753 142.187 238.615 142.273 238.499 142.392C238.381 142.507 238.297 142.65 238.245 142.821C238.195 142.989 238.19 143.144 238.23 143.287C238.267 143.429 238.345 143.548 238.465 143.644C238.581 143.738 238.729 143.8 238.909 143.827L238.992 143.84C239.175 143.867 239.352 143.852 239.522 143.794C239.689 143.732 239.834 143.633 239.958 143.497C240.082 143.362 240.173 143.199 240.231 143.008C240.278 142.85 240.293 142.703 240.276 142.568C240.26 142.428 240.211 142.302 240.13 142.188L240.532 141.97C240.641 142.113 240.706 142.281 240.728 142.473C240.751 142.662 240.729 142.868 240.662 143.089Z" fill="#818181"/>
<path d="M265.113 240.16C264.984 240.352 264.831 240.525 264.654 240.679C264.48 240.831 264.316 240.941 264.163 241.011L263.903 240.708C264.045 240.635 264.192 240.535 264.342 240.408C264.493 240.28 264.619 240.141 264.72 239.99C264.851 239.795 264.913 239.645 264.907 239.539C264.902 239.431 264.844 239.357 264.731 239.319C264.648 239.291 264.566 239.295 264.485 239.332C264.403 239.368 264.321 239.426 264.24 239.506C264.16 239.582 264.076 239.67 263.99 239.769C263.9 239.867 263.806 239.963 263.709 240.059C263.609 240.154 263.505 240.236 263.397 240.306C263.285 240.376 263.167 240.421 263.042 240.443C262.914 240.464 262.774 240.449 262.622 240.397C262.463 240.343 262.35 240.256 262.283 240.137C262.216 240.018 262.199 239.877 262.232 239.713C262.263 239.545 262.345 239.363 262.478 239.165C262.579 239.014 262.703 238.869 262.85 238.729C262.995 238.586 263.139 238.477 263.281 238.405L263.539 238.711C263.39 238.789 263.262 238.88 263.156 238.983C263.05 239.086 262.959 239.194 262.883 239.308C262.76 239.491 262.703 239.639 262.712 239.753C262.718 239.866 262.774 239.94 262.88 239.976C262.969 240.006 263.057 240.004 263.141 239.968C263.225 239.929 263.308 239.871 263.391 239.796C263.476 239.718 263.564 239.63 263.654 239.532C263.741 239.433 263.834 239.336 263.935 239.242C264.031 239.146 264.133 239.064 264.239 238.997C264.347 238.927 264.464 238.88 264.589 238.858C264.715 238.834 264.853 238.846 265.002 238.897C265.161 238.951 265.272 239.038 265.333 239.159C265.394 239.28 265.409 239.426 265.375 239.596C265.339 239.766 265.251 239.954 265.113 240.16ZM266.667 237.845C266.511 238.078 266.318 238.234 266.09 238.313C265.862 238.393 265.615 238.388 265.35 238.298L262.933 237.478L263.214 237.06L265.611 237.872C265.753 237.921 265.883 237.927 266 237.892C266.12 237.854 266.218 237.777 266.296 237.661C266.384 237.53 266.416 237.407 266.391 237.291L266.822 237.277C266.842 237.362 266.837 237.455 266.806 237.555C266.778 237.653 266.731 237.749 266.667 237.845ZM263.639 238.199L263.246 238.066L264.235 236.592L264.628 236.726L263.639 238.199ZM267.316 236.823L264.68 235.929L264.95 235.528L265.666 235.771L265.46 235.75C265.321 235.624 265.254 235.469 265.259 235.285C265.265 235.102 265.341 234.899 265.49 234.678L265.952 234.835C265.937 234.852 265.924 234.868 265.912 234.886C265.902 234.9 265.893 234.915 265.883 234.929C265.733 235.153 265.69 235.356 265.755 235.539C265.819 235.721 265.996 235.862 266.284 235.959L267.597 236.405L267.316 236.823ZM269.203 234.067C269.037 234.314 268.833 234.513 268.59 234.662C268.349 234.809 268.092 234.9 267.82 234.936C267.549 234.969 267.283 234.942 267.021 234.853C266.759 234.764 266.56 234.636 266.424 234.468C266.29 234.298 266.226 234.107 266.23 233.894C266.233 233.677 266.309 233.459 266.457 233.238C266.607 233.014 266.796 232.835 267.024 232.702C267.252 232.569 267.501 232.489 267.771 232.463C268.039 232.432 268.309 232.463 268.581 232.556C268.601 232.562 268.623 232.572 268.648 232.584C268.675 232.593 268.698 232.603 268.72 232.613L267.4 234.58L267.057 234.463L268.23 232.715L268.235 232.925C268.068 232.865 267.897 232.845 267.721 232.864C267.546 232.883 267.384 232.936 267.235 233.025C267.084 233.11 266.959 233.226 266.86 233.374C266.762 233.52 266.713 233.662 266.714 233.801C266.71 233.939 266.755 234.063 266.848 234.173C266.938 234.282 267.069 234.366 267.241 234.424L267.321 234.451C267.497 234.511 267.678 234.529 267.864 234.507C268.048 234.48 268.222 234.416 268.384 234.314C268.546 234.212 268.683 234.078 268.794 233.912C268.886 233.776 268.942 233.643 268.963 233.515C268.986 233.383 268.973 233.258 268.924 233.137L269.387 233.011C269.456 233.163 269.474 233.329 269.442 233.511C269.411 233.69 269.332 233.875 269.203 234.067ZM270.995 231.397C270.829 231.644 270.625 231.843 270.382 231.992C270.141 232.139 269.884 232.23 269.612 232.267C269.341 232.3 269.075 232.272 268.813 232.183C268.551 232.094 268.352 231.966 268.216 231.799C268.082 231.628 268.018 231.437 268.022 231.224C268.025 231.008 268.101 230.789 268.249 230.568C268.399 230.344 268.588 230.166 268.816 230.032C269.044 229.899 269.293 229.819 269.563 229.793C269.831 229.763 270.102 229.794 270.373 229.886C270.393 229.893 270.416 229.902 270.44 229.914C270.467 229.923 270.491 229.933 270.512 229.944L269.192 231.91L268.849 231.794L270.022 230.045L270.028 230.256C269.86 230.195 269.689 230.175 269.514 230.194C269.338 230.213 269.176 230.267 269.027 230.355C268.876 230.44 268.751 230.556 268.652 230.704C268.554 230.85 268.506 230.992 268.506 231.131C268.503 231.269 268.547 231.393 268.64 231.504C268.73 231.612 268.861 231.696 269.034 231.755L269.113 231.782C269.289 231.841 269.47 231.86 269.656 231.837C269.841 231.811 270.014 231.746 270.176 231.644C270.338 231.542 270.475 231.408 270.586 231.243C270.678 231.106 270.734 230.974 270.755 230.845C270.778 230.714 270.765 230.588 270.716 230.468L271.179 230.341C271.248 230.493 271.266 230.66 271.234 230.841C271.203 231.02 271.124 231.206 270.995 231.397ZM272.629 228.963C272.473 229.196 272.281 229.352 272.052 229.431C271.824 229.511 271.577 229.506 271.312 229.416L268.895 228.596L269.176 228.177L271.573 228.99C271.716 229.039 271.845 229.045 271.963 229.01C272.082 228.972 272.18 228.895 272.259 228.779C272.346 228.648 272.378 228.525 272.354 228.409L272.785 228.395C272.805 228.48 272.799 228.573 272.769 228.673C272.74 228.771 272.694 228.867 272.629 228.963ZM269.601 229.317L269.208 229.184L270.198 227.71L270.591 227.844L269.601 229.317ZM272.232 224.634C272.359 224.445 272.512 224.294 272.69 224.179C272.871 224.062 273.073 223.991 273.296 223.967C273.52 223.943 273.761 223.975 274.02 224.063L275.537 224.577L275.256 224.996L273.794 224.5C273.538 224.413 273.309 224.403 273.106 224.47C272.904 224.534 272.737 224.664 272.604 224.862C272.505 225.01 272.451 225.151 272.443 225.284C272.435 225.417 272.476 225.536 272.564 225.64C272.654 225.742 272.796 225.826 272.988 225.891L274.346 226.352L274.065 226.77L271.429 225.876L271.698 225.475L272.409 225.716L272.176 225.718C272.055 225.584 271.998 225.422 272.008 225.232C272.017 225.043 272.092 224.843 272.232 224.634ZM277.02 222.368L276.463 222.179L276.344 222.166L275.394 221.843C275.191 221.775 275.001 221.774 274.821 221.842C274.64 221.905 274.48 222.04 274.342 222.247C274.25 222.383 274.187 222.526 274.152 222.675C274.114 222.822 274.108 222.956 274.133 223.075L273.658 223.128C273.629 222.972 273.641 222.801 273.696 222.617C273.75 222.428 273.838 222.242 273.961 222.059C274.174 221.742 274.425 221.528 274.716 221.416C275.007 221.304 275.333 221.309 275.695 221.432L277.286 221.971L277.02 222.368ZM276.54 223.137C276.425 223.308 276.291 223.448 276.136 223.557C275.984 223.662 275.827 223.73 275.664 223.76C275.498 223.79 275.34 223.779 275.191 223.728C275.048 223.68 274.938 223.607 274.861 223.51C274.786 223.409 274.759 223.28 274.779 223.123C274.801 222.963 274.889 222.768 275.043 222.538L275.535 221.806L275.878 221.922L275.398 222.637C275.258 222.846 275.203 223.001 275.234 223.101C275.264 223.2 275.336 223.269 275.449 223.307C275.578 223.351 275.713 223.342 275.853 223.278C275.99 223.214 276.112 223.102 276.219 222.942C276.324 222.785 276.376 222.635 276.375 222.492C276.375 222.346 276.317 222.221 276.199 222.117L276.583 222.145C276.702 222.253 276.761 222.393 276.76 222.564C276.756 222.734 276.683 222.925 276.54 223.137ZM277.086 217.404C277.211 217.218 277.362 217.067 277.541 216.953C277.719 216.839 277.92 216.771 278.141 216.75C278.365 216.726 278.606 216.758 278.865 216.845L280.382 217.36L280.101 217.778L278.639 217.282C278.383 217.196 278.156 217.183 277.956 217.244C277.757 217.305 277.594 217.429 277.467 217.618C277.373 217.758 277.324 217.891 277.32 218.018C277.316 218.146 277.36 218.26 277.45 218.362C277.542 218.461 277.684 218.543 277.877 218.608L279.234 219.069L278.953 219.487L277.491 218.992C277.236 218.905 277.008 218.892 276.809 218.953C276.611 219.011 276.448 219.136 276.319 219.328C276.228 219.464 276.18 219.596 276.176 219.723C276.172 219.85 276.215 219.965 276.305 220.067C276.396 220.169 276.537 220.252 276.729 220.318L278.087 220.778L277.806 221.197L275.17 220.303L275.439 219.902L276.141 220.139L275.918 220.144C275.794 220.013 275.735 219.856 275.74 219.672C275.746 219.488 275.816 219.296 275.95 219.095C276.099 218.874 276.289 218.705 276.523 218.588C276.753 218.47 277.01 218.429 277.295 218.465L277.102 218.608C276.946 218.47 276.866 218.292 276.86 218.076C276.854 217.86 276.93 217.636 277.086 217.404ZM281.619 215.571C281.453 215.818 281.249 216.016 281.006 216.166C280.765 216.312 280.508 216.404 280.236 216.44C279.965 216.473 279.699 216.445 279.437 216.356C279.175 216.267 278.976 216.139 278.841 215.972C278.707 215.802 278.642 215.61 278.646 215.397C278.649 215.181 278.725 214.962 278.873 214.741C279.023 214.517 279.212 214.339 279.44 214.205C279.668 214.072 279.917 213.992 280.187 213.966C280.456 213.936 280.726 213.967 280.998 214.059C281.018 214.066 281.04 214.075 281.064 214.087C281.091 214.096 281.115 214.106 281.136 214.117L279.816 216.083L279.473 215.967L280.646 214.218L280.652 214.429C280.485 214.369 280.313 214.348 280.138 214.367C279.962 214.386 279.8 214.44 279.651 214.528C279.5 214.613 279.375 214.729 279.276 214.878C279.178 215.023 279.13 215.165 279.13 215.305C279.127 215.443 279.172 215.567 279.265 215.677C279.354 215.786 279.485 215.869 279.658 215.928L279.737 215.955C279.913 216.014 280.094 216.033 280.28 216.01C280.465 215.984 280.638 215.92 280.8 215.818C280.962 215.715 281.099 215.582 281.21 215.416C281.302 215.279 281.358 215.147 281.379 215.018C281.403 214.887 281.389 214.761 281.34 214.641L281.803 214.514C281.872 214.666 281.891 214.833 281.858 215.015C281.828 215.194 281.748 215.379 281.619 215.571Z" fill="#818181"/>
<path d="M89.4093 234.407C89.1856 234.349 88.9862 234.266 88.8114 234.158C88.6399 234.05 88.5172 233.941 88.4433 233.83L88.8279 233.527C88.9066 233.628 89.018 233.726 89.1621 233.819C89.3062 233.913 89.4665 233.982 89.6428 234.028C89.8699 234.086 90.0478 234.098 90.1763 234.064C90.3082 234.031 90.4012 233.962 90.4552 233.856C90.4949 233.778 90.4954 233.709 90.4566 233.65C90.4178 233.59 90.3531 233.537 90.2626 233.489C90.1753 233.441 90.0747 233.394 89.9606 233.347C89.848 233.297 89.7371 233.244 89.6277 233.188C89.52 233.128 89.4271 233.062 89.3493 232.989C89.273 232.913 89.2258 232.825 89.2076 232.725C89.1911 232.622 89.2194 232.499 89.2925 232.355C89.3687 232.205 89.4812 232.086 89.63 231.997C89.7787 231.909 89.9513 231.856 90.1476 231.839C90.3489 231.821 90.5649 231.841 90.7954 231.9C90.9718 231.946 91.1394 232.012 91.2985 232.098C91.4625 232.183 91.5839 232.276 91.6626 232.377L91.273 232.679C91.189 232.573 91.0881 232.489 90.9702 232.427C90.8522 232.365 90.7271 232.317 90.5949 232.283C90.3813 232.228 90.2052 232.219 90.0668 232.258C89.9299 232.293 89.836 232.361 89.7852 232.461C89.7423 232.545 89.7394 232.618 89.7766 232.681C89.8188 232.741 89.8827 232.796 89.9683 232.847C90.0573 232.898 90.1581 232.948 90.2706 232.998C90.3847 233.045 90.4957 233.099 90.6034 233.158C90.7128 233.215 90.8047 233.279 90.8792 233.351C90.9571 233.424 91.0051 233.51 91.0232 233.61C91.0447 233.711 91.0197 233.832 90.9482 233.972C90.872 234.122 90.7586 234.239 90.608 234.324C90.4575 234.409 90.2798 234.46 90.0751 234.478C89.872 234.493 89.6501 234.469 89.4093 234.407ZM92.1099 235.102C91.8386 235.032 91.6626 234.911 91.5817 234.738C91.5009 234.566 91.524 234.355 91.6511 234.105L92.8095 231.831L93.2977 231.957L92.1489 234.212C92.0806 234.346 92.0637 234.458 92.0984 234.548C92.1364 234.639 92.2233 234.702 92.3589 234.737C92.5115 234.776 92.6585 234.77 92.7999 234.718L92.7881 235.081C92.6833 235.121 92.5712 235.141 92.4518 235.142C92.3357 235.144 92.2218 235.131 92.1099 235.102ZM91.887 232.626L92.0753 232.256L93.7943 232.698L93.606 233.068L91.887 232.626ZM93.3045 235.377L94.5677 232.897L95.0356 233.018L94.6924 233.692L94.7325 233.511C94.8944 233.359 95.0866 233.26 95.309 233.215C95.5314 233.17 95.7715 233.181 96.0292 233.247L95.8075 233.682C95.7887 233.674 95.7692 233.667 95.7489 233.662C95.7319 233.657 95.7149 233.653 95.698 233.649C95.4369 233.581 95.1935 233.6 94.9679 233.704C94.7422 233.808 94.5602 233.996 94.422 234.268L93.7927 235.503L93.3045 235.377ZM96.5169 236.236C96.2287 236.162 96.0022 236.042 95.8375 235.876C95.6761 235.711 95.5828 235.517 95.5577 235.296C95.5359 235.075 95.5878 234.841 95.7134 234.595C95.8389 234.348 96.0078 234.145 96.22 233.984C96.4356 233.824 96.6721 233.718 96.9296 233.664C97.192 233.608 97.4521 233.613 97.7098 233.679C97.9709 233.746 98.1744 233.859 98.3204 234.016C98.4665 234.174 98.5462 234.364 98.5595 234.586C98.5779 234.806 98.5219 235.044 98.3916 235.3C98.3821 235.318 98.3693 235.34 98.3532 235.364C98.3405 235.389 98.3268 235.412 98.3123 235.433L96.0185 234.843L96.183 234.52L98.2225 235.044L97.9669 235.106C98.0514 234.947 98.0881 234.796 98.077 234.652C98.066 234.508 98.0118 234.385 97.9146 234.282C97.8223 234.178 97.6896 234.103 97.5167 234.058C97.3472 234.015 97.178 234.012 97.0092 234.049C96.842 234.084 96.6886 234.156 96.5488 234.264C96.4107 234.37 96.3003 234.504 96.2177 234.666L96.1795 234.741C96.0953 234.906 96.0605 235.065 96.0752 235.217C96.0948 235.367 96.1609 235.497 96.2735 235.607C96.3862 235.717 96.5391 235.797 96.7324 235.847C96.8918 235.888 97.0486 235.9 97.2029 235.883C97.3605 235.867 97.5139 235.822 97.6631 235.747L97.7849 236.107C97.5961 236.207 97.3927 236.267 97.1746 236.289C96.96 236.311 96.7407 236.293 96.5169 236.236ZM99.6311 237.037C99.3429 236.963 99.1164 236.843 98.9517 236.677C98.7903 236.512 98.697 236.319 98.6719 236.097C98.6501 235.876 98.702 235.642 98.8276 235.396C98.9531 235.15 99.122 234.946 99.3342 234.785C99.5498 234.626 99.7863 234.519 100.044 234.465C100.306 234.409 100.566 234.414 100.824 234.481C101.085 234.548 101.289 234.66 101.435 234.818C101.581 234.975 101.66 235.165 101.674 235.387C101.692 235.607 101.636 235.845 101.506 236.101C101.496 236.12 101.483 236.141 101.467 236.165C101.455 236.19 101.441 236.213 101.427 236.234L99.1327 235.644L99.2972 235.321L101.337 235.846L101.081 235.907C101.166 235.749 101.202 235.598 101.191 235.454C101.18 235.31 101.126 235.186 101.029 235.084C100.936 234.979 100.804 234.904 100.631 234.86C100.461 234.816 100.292 234.813 100.123 234.851C99.9562 234.885 99.8028 234.957 99.663 235.066C99.5249 235.171 99.4145 235.305 99.3319 235.468L99.2937 235.542C99.2095 235.708 99.1747 235.866 99.1894 236.018C99.209 236.168 99.2751 236.298 99.3877 236.408C99.5004 236.518 99.6533 236.598 99.8466 236.648C100.006 236.689 100.163 236.701 100.317 236.684C100.475 236.668 100.628 236.623 100.777 236.549L100.899 236.908C100.71 237.008 100.507 237.068 100.289 237.09C100.074 237.112 99.8549 237.095 99.6311 237.037ZM102.471 237.768C102.199 237.698 102.023 237.577 101.943 237.404C101.862 237.232 101.885 237.021 102.012 236.771L103.17 234.497L103.659 234.622L102.51 236.878C102.441 237.012 102.425 237.124 102.459 237.214C102.497 237.305 102.584 237.368 102.72 237.403C102.872 237.442 103.019 237.436 103.161 237.384L103.149 237.746C103.044 237.787 102.932 237.807 102.813 237.808C102.697 237.81 102.583 237.797 102.471 237.768ZM102.248 235.292L102.436 234.922L104.155 235.364L103.967 235.734L102.248 235.292ZM107.746 236.262C107.966 236.318 108.139 236.407 108.266 236.528C108.396 236.649 108.468 236.802 108.481 236.985C108.495 237.169 108.44 237.382 108.316 237.626L107.589 239.053L107.101 238.927L107.802 237.552C107.924 237.311 107.952 237.114 107.885 236.959C107.822 236.805 107.675 236.698 107.444 236.639C107.271 236.595 107.104 236.587 106.944 236.616C106.783 236.646 106.636 236.712 106.503 236.815C106.373 236.919 106.262 237.062 106.17 237.243L105.519 238.52L105.031 238.395L106.294 235.915L106.762 236.035L106.421 236.704L106.436 236.507C106.607 236.367 106.807 236.276 107.036 236.232C107.265 236.189 107.502 236.199 107.746 236.262ZM110.166 239.716L110.433 239.192L110.458 239.087L110.913 238.193C111.01 238.003 111.024 237.841 110.954 237.706C110.889 237.57 110.737 237.47 110.496 237.409C110.337 237.368 110.168 237.352 109.99 237.363C109.814 237.371 109.652 237.401 109.506 237.455L109.474 237.066C109.665 236.999 109.871 236.964 110.091 236.96C110.317 236.955 110.536 236.98 110.75 237.035C111.119 237.13 111.362 237.286 111.478 237.502C111.594 237.719 111.565 237.998 111.392 238.338L110.629 239.835L110.166 239.716ZM109.267 239.517C109.067 239.465 108.907 239.388 108.786 239.287C108.668 239.186 108.597 239.071 108.571 238.94C108.547 238.807 108.571 238.67 108.642 238.53C108.71 238.396 108.806 238.283 108.93 238.191C109.056 238.1 109.215 238.042 109.404 238.017C109.597 237.992 109.827 238.014 110.095 238.083L110.949 238.303L110.785 238.626L109.951 238.412C109.707 238.349 109.523 238.344 109.4 238.397C109.277 238.45 109.189 238.53 109.135 238.636C109.073 238.757 109.075 238.869 109.142 238.971C109.211 239.07 109.338 239.143 109.525 239.191C109.708 239.238 109.886 239.242 110.06 239.202C110.237 239.163 110.393 239.079 110.527 238.951L110.466 239.285C110.327 239.415 110.154 239.503 109.947 239.548C109.741 239.591 109.515 239.58 109.267 239.517ZM116.18 238.432C116.397 238.488 116.569 238.576 116.695 238.697C116.821 238.817 116.89 238.969 116.9 239.152C116.914 239.335 116.859 239.549 116.735 239.792L116.008 241.219L115.52 241.094L116.221 239.718C116.343 239.478 116.374 239.281 116.314 239.128C116.254 238.975 116.114 238.87 115.894 238.813C115.731 238.771 115.573 238.766 115.419 238.797C115.265 238.828 115.123 238.896 114.993 239C114.867 239.105 114.758 239.248 114.665 239.429L114.015 240.706L113.526 240.581L114.227 239.205C114.35 238.965 114.381 238.768 114.321 238.615C114.264 238.463 114.124 238.358 113.9 238.3C113.74 238.259 113.584 238.254 113.43 238.285C113.276 238.316 113.134 238.384 113.005 238.488C112.875 238.592 112.764 238.735 112.672 238.916L112.021 240.193L111.533 240.068L112.796 237.587L113.264 237.708L112.928 238.368L112.937 238.18C113.105 238.039 113.3 237.946 113.522 237.901C113.744 237.856 113.973 237.864 114.207 237.924C114.464 237.99 114.656 238.107 114.782 238.273C114.91 238.437 114.942 238.644 114.879 238.896L114.719 238.77C114.897 238.601 115.117 238.485 115.38 238.422C115.642 238.359 115.909 238.362 116.18 238.432ZM118.093 241.787C117.805 241.713 117.578 241.593 117.413 241.427C117.252 241.262 117.159 241.069 117.134 240.847C117.112 240.626 117.164 240.393 117.289 240.146C117.415 239.9 117.584 239.696 117.796 239.536C118.011 239.376 118.248 239.269 118.505 239.215C118.768 239.159 119.028 239.165 119.286 239.231C119.547 239.298 119.75 239.41 119.896 239.568C120.042 239.725 120.122 239.915 120.135 240.138C120.154 240.358 120.098 240.595 119.968 240.851C119.958 240.87 119.945 240.891 119.929 240.915C119.916 240.94 119.903 240.963 119.888 240.984L117.594 240.394L117.759 240.071L119.798 240.596L119.543 240.657C119.627 240.499 119.664 240.348 119.653 240.204C119.642 240.06 119.588 239.937 119.49 239.834C119.398 239.729 119.266 239.654 119.093 239.61C118.923 239.566 118.754 239.563 118.585 239.601C118.418 239.636 118.264 239.707 118.125 239.816C117.987 239.922 117.876 240.056 117.794 240.218L117.755 240.293C117.671 240.458 117.636 240.617 117.651 240.769C117.671 240.918 117.737 241.048 117.849 241.158C117.962 241.269 118.115 241.349 118.308 241.398C118.468 241.439 118.624 241.451 118.779 241.435C118.936 241.419 119.09 241.374 119.239 241.299L119.361 241.658C119.172 241.758 118.969 241.819 118.751 241.84C118.536 241.863 118.317 241.845 118.093 241.787Z" fill="#818181"/>
<path d="M76.9612 82.6896C76.764 82.5692 76.6 82.4342 76.4692 82.2846C76.3414 82.1368 76.2618 82.0029 76.2303 81.8828L76.7171 81.7377C76.7567 81.8511 76.8296 81.9712 76.9359 82.0982C77.0421 82.2251 77.173 82.336 77.3284 82.4308C77.5286 82.553 77.6977 82.6194 77.8356 82.6298C77.9765 82.6422 78.0928 82.6104 78.1845 82.5344C78.2519 82.4786 78.2776 82.4187 78.2616 82.3546C78.2456 82.2905 78.2022 82.2233 78.1314 82.153C78.0636 82.0844 77.9827 82.0118 77.8886 81.9349C77.7972 81.8559 77.7084 81.7746 77.6224 81.6911C77.5391 81.6053 77.4729 81.5183 77.4237 81.4301C77.3772 81.3397 77.3634 81.2479 77.3825 81.1548C77.4042 81.0594 77.4771 80.9604 77.6011 80.8577C77.7306 80.7506 77.8842 80.6814 78.062 80.6503C78.2398 80.6192 78.4275 80.6271 78.6252 80.6741C78.8286 80.7206 79.0319 80.8059 79.2351 80.93C79.3905 81.0248 79.5299 81.1351 79.6532 81.2608C79.7822 81.3861 79.8665 81.5054 79.9061 81.6187L79.4148 81.7611C79.372 81.6418 79.3044 81.5366 79.2121 81.4454C79.1199 81.3541 79.0154 81.2729 78.8989 81.2018C78.7106 81.0869 78.5418 81.0246 78.3925 81.0149C78.246 81.003 78.1295 81.0328 78.0432 81.1043C77.9704 81.1645 77.9406 81.2278 77.954 81.2942C77.973 81.3601 78.015 81.4284 78.0801 81.4992C78.1482 81.5717 78.228 81.6476 78.3194 81.7266C78.4135 81.8034 78.5022 81.8847 78.5855 81.9705C78.6715 82.054 78.7376 82.139 78.7838 82.2253C78.833 82.3136 78.8481 82.4042 78.8291 82.4973C78.813 82.5923 78.7443 82.69 78.623 82.7904C78.4935 82.8976 78.3397 82.9647 78.1616 82.9917C77.9836 83.0188 77.7913 83.0082 77.585 82.9598C77.3813 82.9092 77.1734 82.8191 76.9612 82.6896ZM79.3415 84.1424C79.1024 83.9964 78.9751 83.8354 78.9596 83.6591C78.9441 83.4829 79.0442 83.3054 79.26 83.1268L81.2262 81.4994L81.6565 81.762L79.7065 83.3761C79.5905 83.4721 79.5329 83.5649 79.5336 83.6546C79.5373 83.746 79.599 83.8283 79.7185 83.9012C79.853 83.9833 79.9988 84.0238 80.1559 84.0227L80.0112 84.3358C79.8942 84.3381 79.7772 84.3211 79.6603 84.2846C79.5464 84.25 79.4401 84.2026 79.3415 84.1424ZM80.0338 81.9061L80.3534 81.6416L81.8686 82.5664L81.549 82.8309L80.0338 81.9061ZM80.4061 84.7572L82.5503 82.9824L82.9627 83.2341L82.3801 83.7163L82.4854 83.5711C82.6995 83.4885 82.9234 83.4622 83.157 83.4923C83.3906 83.5224 83.621 83.6068 83.8481 83.7454L83.4719 84.0569C83.4566 84.0437 83.44 84.0316 83.4221 84.0207C83.4072 84.0116 83.3922 84.0024 83.3773 83.9933C83.1472 83.8529 82.9028 83.7929 82.6443 83.8136C82.3857 83.8342 82.1391 83.9416 81.9045 84.1358L80.8364 85.0199L80.4061 84.7572ZM83.2258 86.5131C82.9718 86.3581 82.7949 86.1822 82.695 85.9855C82.5982 85.7907 82.5782 85.5923 82.6351 85.3904C82.6951 85.1904 82.8316 85.0022 83.0446 84.8259C83.2577 84.6495 83.4973 84.5242 83.7634 84.4501C84.0326 84.3777 84.3026 84.3583 84.5737 84.3919C84.8504 84.425 85.1023 84.5109 85.3294 84.6495C85.5595 84.79 85.7169 84.9519 85.8015 85.1355C85.8861 85.319 85.8941 85.51 85.8255 85.7086C85.7626 85.9068 85.6206 86.0975 85.3994 86.2805C85.3832 86.2939 85.3629 86.3086 85.3383 86.3247C85.3167 86.3425 85.295 86.3584 85.2731 86.3722L83.2514 85.1382L83.5305 84.9072L85.3281 86.0043L85.0562 85.978C85.1968 85.8659 85.2881 85.7452 85.3302 85.6158C85.3724 85.4864 85.3648 85.3615 85.3076 85.2413C85.2561 85.1206 85.1541 85.0138 85.0017 84.9208C84.8523 84.8296 84.6883 84.7741 84.5097 84.7543C84.3338 84.7322 84.1577 84.7469 83.9813 84.7983C83.8077 84.8475 83.6508 84.9301 83.5105 85.0462L83.4458 85.0998C83.3028 85.2181 83.2106 85.3461 83.169 85.4836C83.1332 85.6207 83.15 85.7551 83.2194 85.8867C83.2889 86.0183 83.4088 86.1361 83.5791 86.24C83.7196 86.3258 83.8682 86.3854 84.0249 86.419C84.1846 86.4544 84.351 86.4629 84.5239 86.4443L84.5107 86.797C84.2898 86.8251 84.069 86.8144 83.8483 86.765C83.6306 86.7175 83.4231 86.6335 83.2258 86.5131ZM85.9707 88.1884C85.7167 88.0334 85.5397 87.8575 85.4399 87.6608C85.343 87.4659 85.323 87.2676 85.38 87.0657C85.4399 86.8657 85.5764 86.6775 85.7895 86.5012C86.0026 86.3248 86.2422 86.1995 86.5083 86.1254C86.7774 86.053 87.0475 86.0336 87.3185 86.0672C87.5952 86.1003 87.8471 86.1862 88.0742 86.3248C88.3044 86.4652 88.4617 86.6272 88.5464 86.8107C88.631 86.9943 88.639 87.1853 88.5704 87.3839C88.5075 87.5821 88.3654 87.7728 88.1443 87.9558C88.1281 87.9692 88.1077 87.9839 88.0831 88C88.0616 88.0178 88.0398 88.0337 88.018 88.0475L85.9962 86.8135L86.2754 86.5825L88.073 87.6796L87.8011 87.6533C87.9416 87.5412 88.0329 87.4205 88.0751 87.2911C88.1172 87.1616 88.1097 87.0368 88.0525 86.9166C88.0009 86.7959 87.899 86.6891 87.7465 86.596C87.5971 86.5048 87.4331 86.4493 87.2545 86.4295C87.0786 86.4075 86.9025 86.4222 86.7262 86.4736C86.5526 86.5228 86.3956 86.6054 86.2554 86.7215L86.1906 86.7751C86.0477 86.8934 85.9554 87.0213 85.9139 87.1589C85.878 87.296 85.8948 87.4304 85.9643 87.562C86.0337 87.6936 86.1536 87.8114 86.324 87.9153C86.4644 88.0011 86.613 88.0607 86.7698 88.0943C86.9295 88.1297 87.0958 88.1382 87.2688 88.1196L87.2555 88.4723C87.0347 88.5004 86.8139 88.4897 86.5932 88.4403C86.3754 88.3928 86.1679 88.3088 85.9707 88.1884ZM88.4735 89.7159C88.2344 89.57 88.1071 89.4089 88.0916 89.2327C88.076 89.0564 88.1762 88.879 88.3919 88.7004L90.3582 87.0729L90.7885 87.3356L88.8385 88.9497C88.7225 89.0457 88.6649 89.1385 88.6656 89.2281C88.6693 89.3196 88.7309 89.4018 88.8505 89.4748C88.985 89.5569 89.1308 89.5974 89.2878 89.5963L89.1432 89.9094C89.0262 89.9117 88.9092 89.8946 88.7923 89.8582C88.6784 89.8235 88.5721 89.7761 88.4735 89.7159ZM89.1658 87.4797L89.4854 87.2152L91.0006 88.1399L90.681 88.4045L89.1658 87.4797ZM94.175 90.0483C94.3693 90.1669 94.5059 90.2987 94.5849 90.4439C94.6669 90.5909 94.681 90.7469 94.6271 90.9118C94.5732 91.0768 94.4411 91.2463 94.2307 91.4204L92.9968 92.4418L92.5664 92.1791L93.7559 91.1946C93.9635 91.0227 94.0632 90.8586 94.0548 90.7022C94.0494 90.5476 93.9451 90.4083 93.7419 90.2843C93.5895 90.1913 93.4295 90.1324 93.262 90.1078C93.0945 90.0831 92.9268 90.0952 92.7588 90.1439C92.5939 90.1945 92.4332 90.2845 92.2767 90.414L91.1723 91.3282L90.7419 91.0656L92.8861 89.2907L93.2986 89.5425L92.72 90.0213L92.8065 89.853C93.0245 89.7844 93.2533 89.7669 93.4928 89.8007C93.7324 89.8344 93.9598 89.917 94.175 90.0483ZM95.2681 93.828L95.7212 93.453L95.7837 93.369L96.5565 92.7294C96.721 92.5932 96.7939 92.4554 96.7754 92.3161C96.7625 92.1763 96.6499 92.0417 96.4377 91.9122C96.2973 91.8265 96.1382 91.7604 95.9606 91.7141C95.7856 91.6655 95.6168 91.6419 95.454 91.6434L95.566 91.2929C95.7775 91.294 95.9914 91.3276 96.2076 91.3936C96.4295 91.4592 96.6346 91.5495 96.8228 91.6644C97.1486 91.8632 97.3282 92.0756 97.3615 92.3015C97.3949 92.5274 97.2646 92.7621 96.9706 93.0054L95.676 94.077L95.2681 93.828ZM94.4638 93.372C94.2874 93.2644 94.159 93.1472 94.0785 93.0205C94.0009 92.8956 93.9735 92.7722 93.9962 92.6503C94.0215 92.5261 94.0949 92.4138 94.2163 92.3134C94.3322 92.2174 94.4673 92.1486 94.6215 92.1069C94.7787 92.0671 94.9543 92.0657 95.1484 92.1027C95.3455 92.1415 95.5621 92.233 95.7982 92.3771L96.5513 92.8368L96.2722 93.0678L95.537 92.6191C95.3218 92.4878 95.1445 92.4261 95.005 92.4341C94.8656 92.4421 94.75 92.484 94.6583 92.5599C94.5531 92.647 94.5145 92.7456 94.5424 92.8557C94.573 92.9636 94.6705 93.0677 94.8349 93.168C94.9963 93.2665 95.1691 93.3254 95.3534 93.3448C95.5406 93.366 95.7232 93.3417 95.901 93.2718L95.7192 93.5448C95.5357 93.6151 95.3344 93.6377 95.1154 93.6127C94.8992 93.5854 94.6819 93.5052 94.4638 93.372ZM101.609 94.5855C101.8 94.7022 101.935 94.8332 102.014 94.9784C102.093 95.1236 102.104 95.2777 102.048 95.4408C101.994 95.6058 101.862 95.7753 101.651 95.9494L100.417 96.9708L99.9869 96.7081L101.176 95.7236C101.384 95.5517 101.487 95.3894 101.484 95.2366C101.482 95.0839 101.384 94.9483 101.189 94.8297C101.046 94.7422 100.893 94.6879 100.732 94.6669C100.57 94.6458 100.407 94.6606 100.242 94.7112C100.08 94.7636 99.9209 94.8546 99.7645 94.9841L98.66 95.8982L98.2297 95.6356L99.4191 94.6511C99.6268 94.4792 99.7294 94.3169 99.727 94.1641C99.7276 94.0132 99.6293 93.8776 99.432 93.7572C99.2916 93.6715 99.1406 93.6181 98.979 93.5971C98.8175 93.5761 98.6543 93.5908 98.4893 93.6414C98.3244 93.692 98.1637 93.782 98.0072 93.9115L96.9027 94.8257L96.4724 94.5631L98.6166 92.7883L99.029 93.04L98.4586 93.5121L98.537 93.3505C98.752 93.2801 98.9763 93.2599 99.2099 93.29C99.4435 93.3201 99.6634 93.3981 99.8696 93.5239C100.097 93.6625 100.241 93.8244 100.303 94.0096C100.368 94.1925 100.323 94.3843 100.169 94.585L100.059 94.4247C100.295 94.3323 100.553 94.2995 100.832 94.3264C101.111 94.3532 101.37 94.4396 101.609 94.5855ZM102.243 98.1198C101.989 97.9648 101.812 97.7889 101.712 97.5922C101.615 97.3974 101.595 97.199 101.652 96.9972C101.712 96.7971 101.848 96.609 102.062 96.4326C102.275 96.2562 102.514 96.131 102.78 96.0568C103.05 95.9845 103.32 95.9651 103.591 95.9986C103.867 96.0317 104.119 96.1176 104.346 96.2562C104.576 96.3967 104.734 96.5587 104.818 96.7422C104.903 96.9257 104.911 97.1168 104.842 97.3154C104.78 97.5136 104.638 97.7042 104.416 97.8873C104.4 97.9006 104.38 97.9154 104.355 97.9314C104.334 97.9493 104.312 97.9651 104.29 97.9789L102.268 96.7449L102.547 96.5139L104.345 97.611L104.073 97.5847C104.214 97.4727 104.305 97.3519 104.347 97.2225C104.389 97.0931 104.382 96.9682 104.325 96.848C104.273 96.7273 104.171 96.6205 104.019 96.5275C103.869 96.4363 103.705 96.3808 103.527 96.361C103.351 96.339 103.175 96.3536 102.998 96.4051C102.825 96.4542 102.668 96.5369 102.527 96.6529L102.463 96.7065C102.32 96.8248 102.228 96.9528 102.186 97.0903C102.15 97.2274 102.167 97.3618 102.236 97.4934C102.306 97.625 102.426 97.7428 102.596 97.8468C102.737 97.9325 102.885 97.9922 103.042 98.0257C103.202 98.0612 103.368 98.0696 103.541 98.0511L103.528 98.4037C103.307 98.4318 103.086 98.4211 102.865 98.3718C102.648 98.3242 102.44 98.2402 102.243 98.1198Z" fill="#818181"/>
<path d="M42 238.5L176 153L119 112L196.5 66.5L313 140L330 116.5L275 83.5" stroke="#00ABFD" stroke-width="3"/>
</g>
</g>
<defs>
<clipPath id="clip0_2258_21913">
<rect width="370" height="280" fill="white"/>
</clipPath>
<clipPath id="clip1_2258_21913">
<rect width="456" height="430" fill="white" transform="translate(-34 -9)"/>
</clipPath>
</defs>
</svg>
