<svg width="13" height="11" viewBox="0 0 13 11" fill="none" xmlns="http://www.w3.org/2000/svg">
<path d="M1.1337 0.729492H11.8723C12.2018 0.729492 12.4689 0.996592 12.4689 1.32608V9.67834C12.4689 10.0078 12.2018 10.2749 11.8723 10.2749H1.1337C0.804215 10.2749 0.537109 10.0078 0.537109 9.67834V1.32608C0.537109 0.996592 0.804215 0.729492 1.1337 0.729492ZM3.21908 1.92093H1.7276V3.4124C2.55132 3.4124 3.21908 2.74465 3.21908 1.92093ZM9.7816 1.92093C9.7816 2.74465 10.4494 3.4124 11.2731 3.4124V1.92093H9.7816ZM1.7276 7.58854V9.08002H3.21908C3.21908 8.2563 2.55132 7.58854 1.7276 7.58854ZM9.7816 9.08002H11.2731V7.58854C10.4494 7.58854 9.7816 8.2563 9.7816 9.08002ZM6.50035 7.88684C7.81827 7.88684 8.88671 6.8184 8.88671 5.50047C8.88671 4.18252 7.81827 3.11411 6.50035 3.11411C5.18237 3.11411 4.11396 4.18252 4.11396 5.50047C4.11396 6.8184 5.18237 7.88684 6.50035 7.88684Z" fill="#F17B2C"/>
</svg>
