<svg width="14" height="14" viewBox="0 0 14 14" fill="none" xmlns="http://www.w3.org/2000/svg">
<path d="M6.13424 10.6221L6.68274 9.36575C7.17093 8.24775 8.04956 7.35775 9.14556 6.87125L10.6554 6.20107C11.1354 5.988 11.1354 5.28968 10.6554 5.07661L9.19268 4.42734C8.06849 3.92833 7.17412 3.00538 6.69431 1.84922L6.13868 0.510335C5.93249 0.0134815 5.24599 0.0134828 5.03981 0.510335L4.48416 1.8492C4.00435 3.00538 3.10995 3.92833 1.98578 4.42734L0.523106 5.07661C0.0430795 5.28968 0.0430788 5.988 0.523106 6.20107L2.03293 6.87125C3.12893 7.35775 4.00756 8.24775 4.49571 9.36575L5.04424 10.6221C5.25509 11.105 5.92337 11.105 6.13424 10.6221ZM11.6261 13.6811L11.7804 13.3275C12.0554 12.6971 12.5507 12.1952 13.1687 11.9206L13.6439 11.7094C13.901 11.5953 13.901 11.2217 13.6439 11.1075L13.1953 10.9081C12.5614 10.6265 12.0572 10.106 11.7869 9.45419L11.6285 9.07213C11.5181 8.80588 11.1499 8.80588 11.0395 9.07213L10.8811 9.45419C10.6109 10.106 10.1067 10.6265 9.47274 10.9081L9.02406 11.1075C8.76706 11.2217 8.76706 11.5953 9.02406 11.7094L9.49931 11.9206C10.1174 12.1952 10.6126 12.6971 10.8876 13.3275L11.0419 13.6811C11.1548 13.9399 11.5132 13.9399 11.6261 13.6811Z" fill="#00ABFD"/>
</svg>
