<svg width="65" height="13" viewBox="0 0 65 13" fill="none" xmlns="http://www.w3.org/2000/svg">
<path d="M11.7975 5.23132L8.18529 4.79752L6.66255 1.45215L5.13981 4.79752L1.53149 5.23132L4.19918 7.73644L3.49371 11.3515L6.66255 9.54982L9.83525 11.3515L9.12978 7.73644L11.7975 5.23132Z" fill="#F2AE40"/>
<path d="M24.7032 5.23132L21.0911 4.79752L19.5683 1.45215L18.0456 4.79752L14.4373 5.23132L17.1049 7.73644L16.3995 11.3515L19.5683 9.54982L22.741 11.3515L22.0355 7.73644L24.7032 5.23132Z" fill="#F2AE40"/>
<path d="M37.609 5.23132L33.9968 4.79752L32.4741 1.45215L30.9513 4.79752L27.343 5.23132L30.0107 7.73644L29.3052 11.3515L32.4741 9.54982L35.6468 11.3515L34.9413 7.73644L37.609 5.23132Z" fill="#F2AE40"/>
<path d="M50.5147 5.23132L46.9026 4.79752L45.3798 1.45215L43.8571 4.79752L40.2488 5.23132L42.9165 7.73644L42.211 11.3515L45.3798 9.54982L48.5525 11.3515L47.8471 7.73644L50.5147 5.23132Z" fill="#F2AE40"/>
<path d="M63.4205 5.23281L59.8083 4.79884L58.2856 1.45215L56.7629 4.79884L53.1545 5.23281L55.8222 7.73501L55.1129 11.3515L58.2856 9.54911L61.4583 11.3515L60.749 7.73501L63.4167 5.23281H63.4205ZM58.2895 8.6577V3.32098L59.2918 5.52604L61.6703 5.81145L59.9124 7.46134L60.3789 9.84234L58.2895 8.6577Z" fill="#F2AE40"/>
</svg>
